<svg xmlns="http://www.w3.org/2000/svg" width="31" height="43"><path fill="#005BA5" d="M28.373,0H2.627C1.208,0,0,1.206,0,2.622v37.756C0,41.848,1.208,43,2.627,43h25.746	C29.844,43,31,41.794,31,40.378V2.622C31,1.206,29.844,0,28.373,0L28.373,0z"/><linearGradient id="a" gradientUnits="userSpaceOnUse" x1="1320.098" y1="-1767.033" x2="1320.098" y2="-1727.021" gradientTransform="matrix(1 0 0 -1 -1304.6 -1725.5)"><stop offset="0" stop-color="#003866"/><stop offset="1" stop-color="#005ba5"/></linearGradient><path fill="url(#a)" d="M27.426,1.521H3.514c-1.311,0-2.413,1.102-2.413,2.413v35.134c0,1.363,1.102,2.465,2.413,2.465	h23.912c1.363,0,2.465-1.102,2.465-2.465V3.933C29.838,2.622,28.736,1.521,27.426,1.521L27.426,1.521z"/><path fill="#006DAA" d="M4.248,1.442c-1.73,0-3.146,1.311-3.146,2.989v23.44c0,0,2.925-12.55,6.765-17.646 c4.248-5.637,13.537-8.784,12.804-8.784L4.248,1.442L4.248,1.442z"/><path fill="#00255B" d="M7.092,27.32c0.061,0.061,0.148,0.096,0.239,0.096s0.178-0.035,0.237-0.096l4.753-4.813	c0.107-0.107,0.107-0.271-0.001-0.381l-4.753-4.754c-0.06-0.061-0.147-0.095-0.236-0.095c-0.091,0-0.177,0.035-0.238,0.095	l-4.752,4.754C2.232,22.236,2.232,22.4,2.34,22.51L7.092,27.32z"/><path fill="#FFF" d="M6.187,27.32c0.061,0.061,0.148,0.096,0.239,0.096c0.091,0,0.178-0.035,0.237-0.096l4.753-4.813	c0.107-0.107,0.107-0.271-0.001-0.381l-4.753-4.754c-0.06-0.061-0.147-0.095-0.236-0.095c-0.091,0-0.177,0.035-0.238,0.095	l-4.752,4.754C1.327,22.236,1.327,22.4,1.435,22.51L6.187,27.32z"/><path fill="#00255B" d="M3.937,14.864V13.55l3.242-3.476c0.468-0.537,0.801-0.99,0.998-1.359c0.197-0.37,0.296-0.712,0.296-1.029 c0-0.422-0.114-0.767-0.341-1.036s-0.55-0.403-0.967-0.403c-0.463,0-0.815,0.157-1.057,0.472C5.868,7.033,5.747,7.451,5.747,7.974 H3.792L3.779,7.933C3.756,7.029,4.053,6.264,4.67,5.638c0.617-0.626,1.449-0.939,2.495-0.939c1.033,0,1.845,0.268,2.437,0.805 c0.592,0.537,0.888,1.252,0.888,2.147c0,0.605-0.167,1.166-0.499,1.679c-0.333,0.514-0.885,1.184-1.655,2.01l-1.783,1.948 l0.014,0.034h2.602l0.083-0.991h1.528v2.533H3.937z"/><path fill="#FFF" d="M3.014,14.256v-1.314l3.242-3.476c0.468-0.537,0.801-0.99,0.998-1.359C7.451,7.736,7.55,7.394,7.55,7.077 c0-0.422-0.114-0.767-0.341-1.036s-0.55-0.403-0.967-0.403c-0.463,0-0.815,0.157-1.057,0.472C4.944,6.424,4.824,6.843,4.824,7.366 H2.869L2.855,7.325C2.833,6.421,3.129,5.655,3.747,5.029C4.364,4.403,5.196,4.09,6.242,4.09c1.033,0,1.845,0.268,2.437,0.805 c0.592,0.537,0.888,1.252,0.888,2.147c0,0.605-0.167,1.166-0.499,1.679c-0.333,0.514-0.885,1.184-1.655,2.01L5.629,12.68 l0.014,0.034h2.602l0.083-0.991h1.528v2.533H3.014z"/><path fill="#00255B" d="M16.96,39.688v-2.013l4.962-5.32c0.717-0.821,1.227-1.516,1.527-2.081c0.303-0.565,0.453-1.09,0.453-1.575 c0-0.646-0.174-1.175-0.521-1.585c-0.348-0.411-0.84-0.616-1.48-0.616c-0.709,0-1.248,0.24-1.617,0.722 c-0.367,0.48-0.553,1.122-0.553,1.922h-2.992l-0.021-0.063c-0.035-1.384,0.419-2.556,1.364-3.514 c0.945-0.959,2.219-1.438,3.818-1.438c1.582,0,2.824,0.411,3.73,1.232c0.906,0.822,1.359,1.918,1.359,3.287 c0,0.928-0.254,1.784-0.764,2.571c-0.51,0.786-1.354,1.813-2.533,3.076l-2.73,2.981l0.021,0.053h3.982l0.127-1.517h2.34v3.877 H16.96z"/><path fill="#FFF" d="M16.126,39.063V37.05l4.962-5.32c0.717-0.821,1.227-1.516,1.527-2.081c0.303-0.565,0.453-1.09,0.453-1.575 c0-0.646-0.174-1.175-0.521-1.585c-0.348-0.411-0.84-0.616-1.48-0.616c-0.709,0-1.248,0.24-1.617,0.722 c-0.367,0.48-0.553,1.122-0.553,1.922h-2.992l-0.021-0.063c-0.035-1.384,0.419-2.556,1.364-3.514 c0.945-0.959,2.219-1.438,3.818-1.438c1.582,0,2.824,0.411,3.73,1.232c0.906,0.822,1.359,1.918,1.359,3.287 c0,0.928-0.254,1.784-0.764,2.571c-0.51,0.786-1.354,1.813-2.533,3.076l-2.73,2.981l0.021,0.053h3.982l0.127-1.517h2.34v3.877 H16.126z"/></svg>