<svg xmlns="http://www.w3.org/2000/svg" width="31" height="43"><path fill="#005BA5" d="M28.373,0H2.627C1.208,0,0,1.206,0,2.622v37.756C0,41.848,1.208,43,2.627,43h25.746	C29.844,43,31,41.794,31,40.378V2.622C31,1.206,29.844,0,28.373,0L28.373,0z"/><linearGradient id="a" gradientUnits="userSpaceOnUse" x1="1320.098" y1="-1767.033" x2="1320.098" y2="-1727.021" gradientTransform="matrix(1 0 0 -1 -1304.6 -1725.5)"><stop offset="0" stop-color="#003866"/><stop offset="1" stop-color="#005ba5"/></linearGradient><path fill="url(#a)" d="M27.426,1.521H3.514c-1.311,0-2.413,1.102-2.413,2.413v35.134c0,1.363,1.102,2.465,2.413,2.465	h23.912c1.363,0,2.465-1.102,2.465-2.465V3.933C29.838,2.622,28.736,1.521,27.426,1.521L27.426,1.521z"/><path fill="#006DAA" d="M4.248,1.442c-1.73,0-3.146,1.311-3.146,2.989v23.44c0,0,2.925-12.55,6.765-17.646 c4.248-5.637,13.537-8.784,12.804-8.784L4.248,1.442L4.248,1.442z"/><path fill="#00255B" d="M7.092,27.32c0.061,0.061,0.148,0.096,0.239,0.096s0.178-0.035,0.237-0.096l4.753-4.813	c0.107-0.107,0.107-0.271-0.001-0.381l-4.753-4.754c-0.06-0.061-0.147-0.095-0.236-0.095c-0.091,0-0.177,0.035-0.238,0.095	l-4.752,4.754C2.232,22.236,2.232,22.4,2.34,22.51L7.092,27.32z"/><path fill="#FFF" d="M6.187,27.32c0.061,0.061,0.148,0.096,0.239,0.096c0.091,0,0.178-0.035,0.237-0.096l4.753-4.813	c0.107-0.107,0.107-0.271-0.001-0.381l-4.753-4.754c-0.06-0.061-0.147-0.095-0.236-0.095c-0.091,0-0.177,0.035-0.238,0.095	l-4.752,4.754C1.327,22.236,1.327,22.4,1.435,22.51L6.187,27.32z"/><path fill="#00255B" d="M9.794,11.134h1.136v1.335H9.794v0.984l1.067,0.207v1.205H6.718V13.66l1.074-0.207v-0.984H3.703 l-0.097-0.984l4.165-6.642h2.023V11.134z M5.486,11.134h2.306V7.52L7.75,7.506L7.585,7.795L5.486,11.134z"/><path fill="#FFF" d="M8.871,10.525h1.136v1.335H8.871v0.984l1.067,0.207v1.205H5.794v-1.205l1.074-0.207V11.86H2.78 l-0.097-0.984l4.165-6.642h2.023V10.525z M4.563,10.525h2.306V6.912L6.827,6.898L6.662,7.187L4.563,10.525z"/><path fill="#00255B" d="M25.926,33.978h1.739v2.044h-1.739v1.506l1.634,0.316v1.844h-6.343v-1.844l1.644-0.316v-1.506h-6.259 l-0.146-1.507l6.374-10.167h3.097V33.978z M19.331,33.978h3.529v-5.532l-0.063-0.021l-0.253,0.442L19.331,33.978z"/><path fill="#FFF" d="M25.092,33.353h1.739v2.044h-1.739v1.506l1.634,0.316v1.844h-6.343v-1.844l1.644-0.316v-1.506h-6.258 l-0.147-1.507l6.375-10.167h3.097V33.353z M18.497,33.353h3.529V27.82L21.963,27.8l-0.253,0.442L18.497,33.353z"/></svg>