<svg xmlns="http://www.w3.org/2000/svg" width="31" height="43"><path fill="#005BA5" d="M28.373,0H2.627C1.208,0,0,1.206,0,2.622v37.756C0,41.848,1.208,43,2.627,43h25.746	C29.844,43,31,41.794,31,40.378V2.622C31,1.206,29.844,0,28.373,0L28.373,0z"/><linearGradient id="a" gradientUnits="userSpaceOnUse" x1="1320.098" y1="-1767.033" x2="1320.098" y2="-1727.021" gradientTransform="matrix(1 0 0 -1 -1304.6 -1725.5)"><stop offset="0" stop-color="#003866"/><stop offset="1" stop-color="#005ba5"/></linearGradient><path fill="url(#a)" d="M27.426,1.521H3.514c-1.311,0-2.413,1.102-2.413,2.413v35.134c0,1.363,1.102,2.465,2.413,2.465	h23.912c1.363,0,2.465-1.102,2.465-2.465V3.933C29.838,2.622,28.736,1.521,27.426,1.521L27.426,1.521z"/><path fill="#006DAA" d="M4.248,1.442c-1.73,0-3.146,1.311-3.146,2.989v23.44c0,0,2.925-12.55,6.765-17.646 c4.248-5.637,13.537-8.784,12.804-8.784L4.248,1.442L4.248,1.442z"/><path fill="#00255B" d="M7.092,27.32c0.061,0.061,0.148,0.096,0.239,0.096s0.178-0.035,0.237-0.096l4.753-4.813	c0.107-0.107,0.107-0.271-0.001-0.381l-4.753-4.754c-0.06-0.061-0.147-0.095-0.236-0.095c-0.091,0-0.177,0.035-0.238,0.095	l-4.752,4.754C2.232,22.236,2.232,22.4,2.34,22.51L7.092,27.32z"/><path fill="#FFF" d="M6.187,27.32c0.061,0.061,0.148,0.096,0.239,0.096c0.091,0,0.178-0.035,0.237-0.096l4.753-4.813	c0.107-0.107,0.107-0.271-0.001-0.381l-4.753-4.754c-0.06-0.061-0.147-0.095-0.236-0.095c-0.091,0-0.177,0.035-0.238,0.095	l-4.752,4.754C1.327,22.236,1.327,22.4,1.435,22.51L6.187,27.32z"/><path fill="#00255B" d="M9.313,7.128L9.134,6.453H6.436L6.153,8.766c0.188-0.138,0.413-0.251,0.675-0.341 c0.261-0.09,0.55-0.137,0.867-0.141c0.963-0.014,1.709,0.277,2.237,0.874s0.792,1.427,0.792,2.492c0,0.963-0.29,1.764-0.871,2.402 c-0.581,0.638-1.417,0.957-2.509,0.957c-0.918,0-1.705-0.251-2.361-0.754c-0.656-0.502-0.973-1.194-0.95-2.075l0.014-0.034 l1.927-0.096c0,0.445,0.126,0.792,0.378,1.042s0.583,0.375,0.991,0.375c0.468,0,0.814-0.167,1.039-0.502 c0.225-0.335,0.337-0.769,0.337-1.301c0-0.578-0.119-1.042-0.358-1.39S7.769,9.75,7.296,9.75c-0.381,0-0.673,0.071-0.877,0.213 c-0.204,0.143-0.35,0.335-0.437,0.578l-1.776-0.117l0.578-5.582h5.768v2.285H9.313z"/><path fill="#FFF" d="M8.389,6.52L8.21,5.845H5.512L5.23,8.158C5.418,8.02,5.643,7.906,5.905,7.817 c0.261-0.09,0.55-0.137,0.867-0.141C7.735,7.662,8.481,7.953,9.009,8.55S9.8,9.977,9.8,11.042c0,0.963-0.29,1.764-0.871,2.402 C8.349,14.082,7.513,14.4,6.421,14.4c-0.918,0-1.705-0.251-2.361-0.754c-0.656-0.502-0.973-1.194-0.95-2.075l0.014-0.034 l1.927-0.096c0,0.445,0.126,0.792,0.378,1.042s0.583,0.375,0.991,0.375c0.468,0,0.814-0.167,1.039-0.502 c0.225-0.335,0.337-0.769,0.337-1.301c0-0.578-0.119-1.042-0.358-1.39S6.845,9.142,6.373,9.142c-0.381,0-0.673,0.071-0.877,0.213 C5.291,9.498,5.145,9.69,5.058,9.933L3.282,9.816L3.86,4.234h5.768V6.52H8.389z"/><path fill="#00255B" d="M25.189,27.845l-0.275-1.032h-4.129l-0.432,3.54c0.287-0.211,0.631-0.385,1.031-0.521 s0.844-0.209,1.328-0.216c1.475-0.021,2.617,0.425,3.424,1.338c0.809,0.913,1.211,2.185,1.211,3.814 c0,1.475-0.443,2.7-1.332,3.677s-2.168,1.465-3.84,1.465c-1.404,0-2.609-0.385-3.613-1.154c-1.006-0.769-1.49-1.828-1.455-3.177 l0.021-0.053l2.949-0.147c0,0.682,0.193,1.214,0.58,1.597s0.893,0.574,1.518,0.574c0.717,0,1.246-0.257,1.59-0.77 c0.346-0.513,0.518-1.176,0.518-1.991c0-0.885-0.184-1.594-0.549-2.128s-0.91-0.801-1.633-0.801c-0.582,0-1.031,0.109-1.344,0.326 c-0.313,0.218-0.535,0.514-0.668,0.886l-2.719-0.18l0.885-8.544h8.83v3.497H25.189z"/><path fill="#FFF" d="M24.355,27.22l-0.275-1.032h-4.129l-0.432,3.54c0.287-0.211,0.631-0.385,1.031-0.521 s0.844-0.209,1.328-0.216c1.475-0.021,2.617,0.425,3.424,1.338c0.809,0.913,1.211,2.185,1.211,3.814 c0,1.475-0.443,2.7-1.332,3.677s-2.168,1.465-3.84,1.465c-1.404,0-2.609-0.385-3.613-1.154c-1.006-0.769-1.49-1.828-1.455-3.177 l0.021-0.053l2.949-0.147c0,0.682,0.193,1.214,0.58,1.597s0.893,0.574,1.518,0.574c0.717,0,1.246-0.257,1.59-0.77 c0.346-0.513,0.518-1.176,0.518-1.991c0-0.885-0.184-1.594-0.549-2.128s-0.91-0.801-1.633-0.801c-0.582,0-1.031,0.109-1.344,0.326 c-0.313,0.218-0.535,0.514-0.668,0.886l-2.719-0.18l0.885-8.544h8.83v3.497H24.355z"/></svg>