<svg xmlns="http://www.w3.org/2000/svg" width="31" height="43"><path fill="#005BA5" d="M28.373,0H2.627C1.208,0,0,1.206,0,2.622v37.756C0,41.848,1.208,43,2.627,43h25.746	C29.844,43,31,41.794,31,40.378V2.622C31,1.206,29.844,0,28.373,0L28.373,0z"/><linearGradient id="a" gradientUnits="userSpaceOnUse" x1="1320.098" y1="-1767.033" x2="1320.098" y2="-1727.021" gradientTransform="matrix(1 0 0 -1 -1304.6 -1725.5)"><stop offset="0" stop-color="#003866"/><stop offset="1" stop-color="#005ba5"/></linearGradient><path fill="url(#a)" d="M27.426,1.521H3.514c-1.311,0-2.413,1.102-2.413,2.413v35.134c0,1.363,1.102,2.465,2.413,2.465	h23.912c1.363,0,2.465-1.102,2.465-2.465V3.933C29.838,2.622,28.736,1.521,27.426,1.521L27.426,1.521z"/><path fill="#006DAA" d="M4.248,1.442c-1.73,0-3.146,1.311-3.146,2.989v23.44c0,0,2.925-12.55,6.765-17.646 c4.248-5.637,13.537-8.784,12.804-8.784L4.248,1.442L4.248,1.442z"/><path fill="#00255B" d="M7.092,27.32c0.061,0.061,0.148,0.096,0.239,0.096s0.178-0.035,0.237-0.096l4.753-4.813	c0.107-0.107,0.107-0.271-0.001-0.381l-4.753-4.754c-0.06-0.061-0.147-0.095-0.236-0.095c-0.091,0-0.177,0.035-0.238,0.095	l-4.752,4.754C2.232,22.236,2.232,22.4,2.34,22.51L7.092,27.32z"/><path fill="#FFF" d="M6.187,27.32c0.061,0.061,0.148,0.096,0.239,0.096c0.091,0,0.178-0.035,0.237-0.096l4.753-4.813	c0.107-0.107,0.107-0.271-0.001-0.381l-4.753-4.754c-0.06-0.061-0.147-0.095-0.236-0.095c-0.091,0-0.177,0.035-0.238,0.095	l-4.752,4.754C1.327,22.236,1.327,22.4,1.435,22.51L6.187,27.32z"/><path fill="#00255B" d="M8.04,4.698c0.376,0,0.724,0.035,1.043,0.106c0.319,0.071,0.639,0.175,0.96,0.313L9.691,6.584 c-0.289-0.101-0.555-0.178-0.798-0.23S8.37,6.274,8.053,6.274c-0.596,0-1.075,0.218-1.435,0.654S6.076,8.006,6.071,8.855 L6.092,8.89c0.225-0.234,0.51-0.417,0.857-0.55c0.346-0.133,0.733-0.2,1.16-0.2c0.895,0,1.597,0.318,2.106,0.953 c0.509,0.636,0.764,1.447,0.764,2.433c0,1.01-0.314,1.842-0.943,2.499s-1.441,0.984-2.437,0.984c-1.056,0-1.916-0.359-2.581-1.077 c-0.666-0.718-0.998-1.713-0.998-2.984V9.186c0-1.417,0.375-2.52,1.125-3.307C5.896,5.091,6.86,4.698,8.04,4.698z M7.579,9.661 c-0.372,0-0.688,0.06-0.95,0.179c-0.261,0.119-0.463,0.282-0.605,0.488v0.668c0,0.794,0.143,1.404,0.43,1.831 c0.287,0.427,0.668,0.64,1.146,0.64c0.413,0,0.745-0.189,0.995-0.568c0.25-0.378,0.375-0.836,0.375-1.373 c0-0.555-0.126-1.005-0.378-1.349S8,9.661,7.579,9.661z"/><path fill="#FFF" d="M7.116,4.09c0.376,0,0.724,0.035,1.043,0.106c0.319,0.071,0.639,0.175,0.96,0.313L8.768,5.976 C8.479,5.875,8.213,5.798,7.97,5.745S7.447,5.666,7.13,5.666c-0.596,0-1.075,0.218-1.435,0.654S5.152,7.398,5.148,8.247 l0.021,0.034c0.225-0.234,0.51-0.417,0.857-0.55c0.346-0.133,0.733-0.2,1.16-0.2c0.895,0,1.597,0.318,2.106,0.953 c0.509,0.636,0.764,1.447,0.764,2.433c0,1.01-0.314,1.842-0.943,2.499S7.671,14.4,6.676,14.4c-1.056,0-1.916-0.359-2.581-1.077 c-0.666-0.718-0.998-1.713-0.998-2.984V8.577c0-1.417,0.375-2.52,1.125-3.307C4.972,4.483,5.937,4.09,7.116,4.09z M6.655,9.052 c-0.372,0-0.688,0.06-0.95,0.179C5.444,9.351,5.242,9.514,5.1,9.72v0.668c0,0.794,0.143,1.404,0.43,1.831 c0.287,0.427,0.668,0.64,1.146,0.64c0.413,0,0.745-0.189,0.995-0.568c0.25-0.378,0.375-0.836,0.375-1.373 c0-0.555-0.126-1.005-0.378-1.349S7.077,9.052,6.655,9.052z"/><path fill="#00255B" d="M23.239,24.126c0.576,0,1.108,0.055,1.597,0.163c0.488,0.109,0.978,0.269,1.47,0.479l-0.537,2.244 c-0.442-0.154-0.851-0.272-1.223-0.353c-0.372-0.081-0.801-0.121-1.285-0.121c-0.913,0-1.646,0.333-2.196,1.001 c-0.552,0.667-0.831,1.65-0.838,2.949l0.031,0.053c0.345-0.357,0.781-0.639,1.312-0.843c0.53-0.203,1.122-0.306,1.775-0.306 c1.37,0,2.444,0.487,3.225,1.46c0.779,0.973,1.169,2.214,1.169,3.724c0,1.546-0.481,2.82-1.443,3.825 c-0.962,1.004-2.205,1.507-3.729,1.507c-1.615,0-2.933-0.55-3.951-1.649c-1.019-1.099-1.527-2.621-1.527-4.567v-2.697 c0-2.17,0.574-3.857,1.723-5.063C19.958,24.729,21.435,24.126,23.239,24.126z M22.534,31.723c-0.569,0-1.054,0.091-1.454,0.273 s-0.71,0.433-0.928,0.748v1.022c0,1.215,0.22,2.149,0.659,2.803c0.438,0.652,1.023,0.979,1.754,0.979 c0.632,0,1.14-0.29,1.522-0.869c0.383-0.58,0.574-1.28,0.574-2.103c0-0.85-0.193-1.538-0.58-2.064 C23.696,31.985,23.18,31.723,22.534,31.723z"/><path fill="#FFF" d="M22.405,23.501c0.576,0,1.108,0.055,1.597,0.163c0.488,0.109,0.978,0.269,1.47,0.479l-0.537,2.244 c-0.442-0.154-0.851-0.272-1.223-0.353c-0.372-0.081-0.801-0.121-1.285-0.121c-0.913,0-1.646,0.333-2.196,1.001 c-0.552,0.667-0.831,1.65-0.838,2.949l0.031,0.053c0.345-0.357,0.781-0.639,1.312-0.843c0.53-0.203,1.122-0.306,1.775-0.306 c1.37,0,2.444,0.487,3.225,1.46c0.779,0.973,1.169,2.214,1.169,3.724c0,1.546-0.481,2.82-1.443,3.825 c-0.962,1.004-2.205,1.507-3.729,1.507c-1.615,0-2.933-0.55-3.951-1.649c-1.019-1.099-1.527-2.621-1.527-4.567V30.37 c0-2.17,0.574-3.857,1.723-5.063C19.124,24.104,20.601,23.501,22.405,23.501z M21.7,31.098c-0.569,0-1.054,0.091-1.454,0.273 s-0.71,0.433-0.928,0.748v1.022c0,1.215,0.22,2.149,0.659,2.803c0.438,0.652,1.023,0.979,1.754,0.979 c0.632,0,1.14-0.29,1.522-0.869c0.383-0.58,0.574-1.28,0.574-2.103c0-0.85-0.193-1.538-0.58-2.064 C22.862,31.36,22.346,31.098,21.7,31.098z"/></svg>