<svg xmlns="http://www.w3.org/2000/svg" width="31" height="43"><path fill="#005BA5" d="M28.373,0H2.627C1.208,0,0,1.206,0,2.622v37.756C0,41.848,1.208,43,2.627,43h25.746	C29.844,43,31,41.794,31,40.378V2.622C31,1.206,29.844,0,28.373,0L28.373,0z"/><linearGradient id="a" gradientUnits="userSpaceOnUse" x1="1320.098" y1="-1767.033" x2="1320.098" y2="-1727.021" gradientTransform="matrix(1 0 0 -1 -1304.6 -1725.5)"><stop offset="0" stop-color="#003866"/><stop offset="1" stop-color="#005ba5"/></linearGradient><path fill="url(#a)" d="M27.426,1.521H3.514c-1.311,0-2.413,1.102-2.413,2.413v35.134c0,1.363,1.102,2.465,2.413,2.465	h23.912c1.363,0,2.465-1.102,2.465-2.465V3.933C29.838,2.622,28.736,1.521,27.426,1.521L27.426,1.521z"/><path fill="#006DAA" d="M4.248,1.442c-1.73,0-3.146,1.311-3.146,2.989v23.44c0,0,2.925-12.55,6.765-17.646 c4.248-5.637,13.537-8.784,12.804-8.784L4.248,1.442L4.248,1.442z"/><path fill="#00255B" d="M7.092,27.32c0.061,0.061,0.148,0.096,0.239,0.096s0.178-0.035,0.237-0.096l4.753-4.813	c0.107-0.107,0.107-0.271-0.001-0.381l-4.753-4.754c-0.06-0.061-0.147-0.095-0.236-0.095c-0.091,0-0.177,0.035-0.238,0.095	l-4.752,4.754C2.232,22.236,2.232,22.4,2.34,22.51L7.092,27.32z"/><path fill="#FFF" d="M6.187,27.32c0.061,0.061,0.148,0.096,0.239,0.096c0.091,0,0.178-0.035,0.237-0.096l4.753-4.813	c0.107-0.107,0.107-0.271-0.001-0.381l-4.753-4.754c-0.06-0.061-0.147-0.095-0.236-0.095c-0.091,0-0.177,0.035-0.238,0.095	l-4.752,4.754C1.327,22.236,1.327,22.4,1.435,22.51L6.187,27.32z"/><path fill="#00255B" d="M10.941,6.391c-1.074,1.257-1.807,2.43-2.199,3.518c-0.392,1.087-0.673,2.4-0.843,3.937l-0.096,1.019 h-2.01l0.096-1.019c0.156-1.473,0.491-2.826,1.005-4.058c0.514-1.232,1.218-2.364,2.113-3.397H5.476L5.4,7.382H3.858v-2.54h7.083 V6.391z"/><path fill="#FFF" d="M10.018,5.783C8.944,7.04,8.211,8.212,7.818,9.3c-0.392,1.087-0.673,2.4-0.843,3.937l-0.096,1.019h-2.01 l0.096-1.019c0.156-1.473,0.491-2.826,1.005-4.058c0.514-1.232,1.218-2.364,2.113-3.397H4.552L4.477,6.774H2.935v-2.54h7.083 V5.783z"/><path fill="#00255B" d="M27.68,26.718c-1.643,1.925-2.766,3.719-3.365,5.384c-0.602,1.665-1.031,3.674-1.291,6.026l-0.146,1.56 h-3.078l0.148-1.56c0.238-2.255,0.752-4.325,1.537-6.211c0.787-1.886,1.865-3.619,3.236-5.199h-5.406l-0.115,1.518h-2.36v-3.888 H27.68V26.718z"/><path fill="#FFF" d="M26.846,26.093c-1.643,1.925-2.766,3.719-3.365,5.384c-0.602,1.665-1.031,3.674-1.291,6.026l-0.146,1.56 h-3.078l0.148-1.56c0.238-2.255,0.752-4.325,1.537-6.211c0.787-1.886,1.865-3.619,3.236-5.199H18.48l-0.115,1.518h-2.36v-3.888 h10.841V26.093z"/></svg>