<svg xmlns="http://www.w3.org/2000/svg" width="31" height="43"><path fill="#005BA5" d="M28.373,0H2.627C1.208,0,0,1.206,0,2.622v37.756C0,41.848,1.208,43,2.627,43h25.746	C29.844,43,31,41.794,31,40.378V2.622C31,1.206,29.844,0,28.373,0L28.373,0z"/><linearGradient id="a" gradientUnits="userSpaceOnUse" x1="1320.098" y1="-1767.033" x2="1320.098" y2="-1727.021" gradientTransform="matrix(1 0 0 -1 -1304.6 -1725.5)"><stop offset="0" stop-color="#003866"/><stop offset="1" stop-color="#005ba5"/></linearGradient><path fill="url(#a)" d="M27.426,1.521H3.514c-1.311,0-2.412,1.102-2.412,2.413v35.134c0,1.363,1.102,2.465,2.412,2.465	h23.912c1.363,0,2.465-1.102,2.465-2.465V3.933C29.838,2.622,28.736,1.521,27.426,1.521L27.426,1.521z"/><path fill="#006DAA" d="M4.248,1.442c-1.73,0-3.146,1.311-3.146,2.989v23.44c0,0,2.926-12.55,6.766-17.646 c4.248-5.637,13.537-8.784,12.804-8.784L4.248,1.442L4.248,1.442z"/><path fill="#00255B" d="M7.092,27.32c0.061,0.061,0.148,0.096,0.239,0.096s0.178-0.035,0.237-0.096l4.752-4.813	c0.107-0.107,0.107-0.271,0-0.381l-4.754-4.754c-0.06-0.061-0.146-0.095-0.235-0.095c-0.091,0-0.177,0.035-0.238,0.095l-4.752,4.754	C2.232,22.236,2.232,22.4,2.34,22.51L7.092,27.32z"/><path fill="#FFF" d="M6.188,27.32c0.061,0.061,0.147,0.096,0.238,0.096c0.092,0,0.178-0.035,0.237-0.096l4.753-4.813	c0.107-0.107,0.107-0.271-0.001-0.381l-4.753-4.754c-0.061-0.061-0.146-0.095-0.236-0.095c-0.091,0-0.177,0.035-0.238,0.095	l-4.752,4.754c-0.108,0.109-0.108,0.273,0,0.383L6.188,27.32z"/><path fill="#00255B" d="M2.551,13.66l0.715-0.103l3.05-8.714h2.058l3.029,8.714l0.715,0.103v1.205H8.703V13.66l0.695-0.124 l-0.439-1.376h-3.25L5.27,13.536l0.695,0.124v1.205H2.551V13.66z M6.185,10.679h2.299L7.354,7.148H7.313L6.185,10.679z"/><path fill="#FFF" d="M1.627,13.051l0.716-0.103l3.05-8.714H7.45l3.028,8.714l0.716,0.103v1.205H7.78v-1.205l0.695-0.124 l-0.44-1.376H4.786l-0.44,1.376l0.695,0.124v1.205H1.627V13.051z M5.262,10.071h2.299L6.432,6.54H6.391L5.262,10.071z"/><path fill="#00255B" d="M14.838,37.844l1.096-0.158l4.667-13.338h3.15l4.636,13.338l1.096,0.158v1.844h-5.227v-1.844l1.064-0.189 l-0.674-2.107h-4.974l-0.674,2.107l1.064,0.189v1.844h-5.226V37.844z M20.4,33.281h3.519l-1.728-5.404h-0.063L20.4,33.281z"/><path fill="#FFF" d="M14.004,37.219l1.096-0.158l4.667-13.338h3.15l4.636,13.338l1.096,0.158v1.844h-5.227v-1.844l1.064-0.189 l-0.674-2.107h-4.974l-0.674,2.107l1.064,0.189v1.844h-5.226V37.219z M19.566,32.656h3.519l-1.728-5.404h-0.063L19.566,32.656z"/></svg>