<svg xmlns="http://www.w3.org/2000/svg" width="31" height="43"><path fill="#005BA5" d="M28.373,0H2.627C1.208,0,0,1.206,0,2.622v37.756C0,41.848,1.208,43,2.627,43h25.746	C29.844,43,31,41.794,31,40.378V2.622C31,1.206,29.844,0,28.373,0L28.373,0z"/><linearGradient id="a" gradientUnits="userSpaceOnUse" x1="1320.098" y1="-1767.033" x2="1320.098" y2="-1727.021" gradientTransform="matrix(1 0 0 -1 -1304.6 -1725.5)"><stop offset="0" stop-color="#003866"/><stop offset="1" stop-color="#005ba5"/></linearGradient><path fill="url(#a)" d="M27.426,1.521H3.514c-1.311,0-2.412,1.102-2.412,2.413v35.134c0,1.363,1.102,2.465,2.412,2.465	h23.912c1.363,0,2.465-1.102,2.465-2.465V3.933C29.838,2.622,28.736,1.521,27.426,1.521L27.426,1.521z"/><path fill="#006DAA" d="M4.248,1.442c-1.73,0-3.146,1.311-3.146,2.989v23.44c0,0,2.926-12.55,6.766-17.646 c4.248-5.637,13.537-8.784,12.804-8.784L4.248,1.442L4.248,1.442z"/><path fill="#00255B" d="M7.092,27.32c0.061,0.061,0.148,0.096,0.239,0.096s0.178-0.035,0.237-0.096l4.752-4.813	c0.107-0.107,0.107-0.271,0-0.381l-4.754-4.754c-0.06-0.061-0.146-0.095-0.235-0.095c-0.091,0-0.177,0.035-0.238,0.095l-4.752,4.754	C2.232,22.236,2.232,22.4,2.34,22.51L7.092,27.32z"/><path fill="#FFF" d="M6.188,27.32c0.061,0.061,0.147,0.096,0.238,0.096c0.092,0,0.178-0.035,0.237-0.096l4.753-4.813	c0.107-0.107,0.107-0.271-0.001-0.381l-4.753-4.754c-0.061-0.061-0.146-0.095-0.236-0.095c-0.091,0-0.177,0.035-0.238,0.095	l-4.752,4.754c-0.108,0.109-0.108,0.273,0,0.383L6.188,27.32z"/><path fill="#00255B" d="M11.246,4.843v1.211L10.173,6.26v5.596c0,0.968-0.315,1.736-0.946,2.302 c-0.631,0.567-1.428,0.85-2.392,0.85c-1.046,0-1.875-0.255-2.485-0.764c-0.609-0.509-0.904-1.259-0.881-2.25l0.014-0.042h1.955 c0,0.528,0.126,0.912,0.379,1.153c0.252,0.241,0.592,0.361,1.019,0.361c0.372,0,0.687-0.143,0.946-0.43 c0.26-0.287,0.389-0.68,0.389-1.18V6.26L7.096,6.054V4.843h3.077H11.246z"/><path fill="#FFF" d="M10.323,4.234v1.211L9.25,5.652v5.596c0,0.968-0.316,1.736-0.947,2.302 c-0.631,0.567-1.428,0.85-2.391,0.85c-1.047,0-1.875-0.255-2.485-0.764s-0.904-1.259-0.882-2.25l0.015-0.042h1.954 c0,0.528,0.127,0.912,0.379,1.153c0.252,0.241,0.592,0.361,1.02,0.361c0.371,0,0.687-0.143,0.945-0.43 c0.26-0.287,0.389-0.68,0.389-1.18V5.652L6.173,5.446V4.234H9.25H10.323z"/><path fill="#00255B" d="M28.149,24.348v1.854l-1.644,0.316v8.565c0,1.482-0.483,2.657-1.449,3.524 c-0.966,0.868-2.186,1.302-3.661,1.302c-1.602,0-2.869-0.391-3.804-1.17c-0.934-0.779-1.383-1.928-1.348-3.445l0.021-0.063h2.992 c0,0.809,0.193,1.396,0.58,1.765c0.386,0.369,0.905,0.554,1.559,0.554c0.569,0,1.052-0.22,1.449-0.658 c0.396-0.439,0.595-1.042,0.595-1.808v-8.565l-1.644-0.316v-1.854h4.71H28.149z"/><path fill="#FFF" d="M27.315,23.723v1.854l-1.644,0.316v8.565c0,1.482-0.483,2.657-1.449,3.524 c-0.966,0.868-2.186,1.302-3.661,1.302c-1.602,0-2.869-0.391-3.804-1.17c-0.934-0.779-1.383-1.928-1.348-3.445l0.021-0.063h2.992 c0,0.809,0.193,1.396,0.58,1.765c0.386,0.369,0.905,0.554,1.559,0.554c0.569,0,1.052-0.22,1.449-0.658 c0.396-0.439,0.595-1.042,0.595-1.808v-8.565l-1.644-0.316v-1.854h4.71H27.315z"/></svg>