<svg xmlns="http://www.w3.org/2000/svg" width="31" height="43"><path fill="#005BA5" d="M28.373,0H2.627C1.208,0,0,1.206,0,2.622v37.756C0,41.848,1.208,43,2.627,43h25.746	C29.844,43,31,41.794,31,40.378V2.622C31,1.206,29.844,0,28.373,0L28.373,0z"/><linearGradient id="a" gradientUnits="userSpaceOnUse" x1="1320.098" y1="-1767.033" x2="1320.098" y2="-1727.021" gradientTransform="matrix(1 0 0 -1 -1304.6 -1725.5)"><stop offset="0" stop-color="#003866"/><stop offset="1" stop-color="#005ba5"/></linearGradient><path fill="url(#a)" d="M27.426,1.521H3.514c-1.311,0-2.412,1.102-2.412,2.413v35.134c0,1.363,1.102,2.465,2.412,2.465	h23.912c1.363,0,2.465-1.102,2.465-2.465V3.933C29.838,2.622,28.736,1.521,27.426,1.521L27.426,1.521z"/><path fill="#006DAA" d="M4.248,1.442c-1.73,0-3.146,1.311-3.146,2.989v23.44c0,0,2.926-12.55,6.766-17.646 c4.248-5.637,13.537-8.784,12.804-8.784L4.248,1.442L4.248,1.442z"/><path fill="#00255B" d="M7.092,27.32c0.061,0.061,0.148,0.096,0.239,0.096s0.178-0.035,0.237-0.096l4.752-4.813	c0.107-0.107,0.107-0.271,0-0.381l-4.754-4.754c-0.06-0.061-0.146-0.095-0.235-0.095c-0.091,0-0.177,0.035-0.238,0.095l-4.752,4.754	C2.232,22.236,2.232,22.4,2.34,22.51L7.092,27.32z"/><path fill="#FFF" d="M6.188,27.32c0.061,0.061,0.147,0.096,0.238,0.096c0.092,0,0.178-0.035,0.237-0.096l4.753-4.813	c0.107-0.107,0.107-0.271-0.001-0.381l-4.753-4.754c-0.061-0.061-0.146-0.095-0.236-0.095c-0.091,0-0.177,0.035-0.238,0.095	l-4.752,4.754c-0.108,0.109-0.108,0.273,0,0.383L6.188,27.32z"/><path fill="#00255B" d="M2.678,13.66l1.066-0.207V6.26L2.678,6.054V4.843h4.096v1.211L5.754,6.26v2.678h0.875l1.927-2.801 L7.963,6.054V4.843h3.973v1.211L10.848,6.24L8.383,9.53l2.768,3.958l1.005,0.172v1.205H8.184V13.66l0.619-0.083l-1.927-2.898 H5.754v2.774l1.02,0.207v1.205H2.678V13.66z"/><path fill="#FFF" d="M1.754,13.051l1.066-0.207V5.652L1.754,5.446V4.234H5.85v1.211L4.831,5.652V8.33h0.874l1.928-2.801 L7.04,5.446V4.234h3.972v1.211L9.924,5.631L7.46,8.921l2.767,3.958l1.006,0.172v1.205H7.261v-1.205l0.619-0.083l-1.927-2.898 H4.831v2.774l1.019,0.207v1.205H1.754V13.051z"/><path fill="#00255B" d="M15.031,37.844l1.634-0.316v-11.01l-1.634-0.316v-1.854h6.27v1.854l-1.559,0.316v4.099h1.338l2.949-4.288 l-0.906-0.127v-1.854h6.08v1.854l-1.666,0.285l-3.771,5.036l4.236,6.058l1.537,0.264v1.844h-6.078v-1.844l0.947-0.126 l-2.949-4.437h-1.717v4.246l1.559,0.316v1.844h-6.27V37.844z"/><path fill="#FFF" d="M14.197,37.219l1.634-0.316v-11.01l-1.634-0.316v-1.854h6.27v1.854l-1.559,0.316v4.099h1.338l2.949-4.288 l-0.906-0.127v-1.854h6.08v1.854l-1.666,0.285l-3.771,5.036l4.236,6.058l1.537,0.264v1.844h-6.078v-1.844l0.947-0.126 l-2.949-4.437h-1.717v4.246l1.559,0.316v1.844h-6.27V37.219z"/></svg>