<svg xmlns="http://www.w3.org/2000/svg" width="31" height="43"><path fill="#005BA5" d="M28.373,0H2.627C1.208,0,0,1.206,0,2.622v37.756C0,41.848,1.208,43,2.627,43h25.746	C29.844,43,31,41.794,31,40.378V2.622C31,1.206,29.844,0,28.373,0L28.373,0z"/><linearGradient id="a" gradientUnits="userSpaceOnUse" x1="1320.098" y1="-1767.033" x2="1320.098" y2="-1727.021" gradientTransform="matrix(1 0 0 -1 -1304.6 -1725.5)"><stop offset="0" stop-color="#003866"/><stop offset="1" stop-color="#005ba5"/></linearGradient><path fill="url(#a)" d="M27.426,1.521H3.514c-1.311,0-2.412,1.102-2.412,2.413v35.134c0,1.363,1.102,2.465,2.412,2.465	h23.912c1.363,0,2.465-1.102,2.465-2.465V3.933C29.838,2.622,28.736,1.521,27.426,1.521L27.426,1.521z"/><path fill="#006DAA" d="M4.248,1.442c-1.73,0-3.146,1.311-3.146,2.989v23.44c0,0,2.926-12.55,6.766-17.646 c4.248-5.637,13.537-8.784,12.804-8.784L4.248,1.442L4.248,1.442z"/><path fill="#00255B" d="M7.092,27.32c0.061,0.061,0.148,0.096,0.239,0.096s0.178-0.035,0.237-0.096l4.752-4.813	c0.107-0.107,0.107-0.271,0-0.381l-4.754-4.754c-0.06-0.061-0.146-0.095-0.235-0.095c-0.091,0-0.177,0.035-0.238,0.095l-4.752,4.754	C2.232,22.236,2.232,22.4,2.34,22.51L7.092,27.32z"/><path fill="#FFF" d="M6.188,27.32c0.061,0.061,0.147,0.096,0.238,0.096c0.092,0,0.178-0.035,0.237-0.096l4.753-4.813	c0.107-0.107,0.107-0.271-0.001-0.381l-4.753-4.754c-0.061-0.061-0.146-0.095-0.236-0.095c-0.091,0-0.177,0.035-0.238,0.095	l-4.752,4.754c-0.108,0.109-0.108,0.273,0,0.383L6.188,27.32z"/><g fill="#00255B"><path d="M1.504 13.66l1.454-.207V6.667H1.486V5.517l3.192-.674v8.61l1.454.207v1.205H1.504V13.66zM12.865 10.961c0 1.326-.26 2.333-.782 3.019s-1.229 1.029-2.12 1.029c-.898 0-1.61-.343-2.134-1.029-.524-.686-.786-1.692-.786-3.019V8.752c0-1.321.262-2.327.783-3.018.521-.69 1.23-1.036 2.125-1.036.891 0 1.599.345 2.126 1.036.525.691.788 1.697.788 3.018V10.961zM11.146 8.545c0-.793-.103-1.375-.308-1.745-.204-.369-.501-.554-.887-.554-.391 0-.686.184-.887.551s-.302.95-.302 1.748v2.609c0 .808.102 1.395.305 1.762s.502.55.896.55c.386 0 .68-.183.881-.55s.302-.955.302-1.762V8.545z"/></g><g fill="#FFF"><path d="M.71 13.051l1.454-.207V6.058H.693V4.909l3.192-.674v8.61l1.454.207v1.205H.71V13.051zM12.072 10.353c0 1.326-.261 2.333-.782 3.019-.523.686-1.229 1.029-2.12 1.029-.898 0-1.609-.343-2.134-1.029s-.787-1.692-.787-3.019V8.144c0-1.321.262-2.327.783-3.018C7.555 4.435 8.264 4.09 9.158 4.09c.891 0 1.6.345 2.125 1.036.527.691.789 1.697.789 3.018V10.353zM10.353 7.937c0-.793-.103-1.375-.308-1.745-.204-.369-.5-.554-.887-.554-.391 0-.686.184-.887.551-.2.367-.301.95-.301 1.748v2.609c0 .808.101 1.395.303 1.762.203.367.502.55.896.55.387 0 .68-.183.881-.55s.302-.955.302-1.762V7.937z"/></g><g fill="#00255B"><path d="M13.744 37.844l2.101-.316V27.14h-2.126v-1.76l4.611-1.032v13.18l2.102.316v1.844h-6.688V37.844zM30.157 33.714c0 2.029-.377 3.569-1.131 4.62-.755 1.05-1.775 1.575-3.062 1.575-1.299 0-2.326-.525-3.084-1.575-.756-1.051-1.135-2.591-1.135-4.62v-3.382c0-2.023.377-3.563 1.131-4.62.755-1.058 1.778-1.586 3.07-1.586 1.287 0 2.311.528 3.07 1.586.76 1.057 1.14 2.597 1.14 4.62V33.714zM27.673 30.016c0-1.215-.148-2.105-.444-2.671s-.724-.848-1.281-.848c-.563 0-.99.28-1.281.843-.29.562-.436 1.453-.436 2.676v3.993c0 1.236.146 2.135.44 2.697.293.562.725.843 1.294.843.558 0 .981-.281 1.272-.843.29-.563.436-1.461.436-2.697V30.016z"/></g><g fill="#FFF"><path d="M13.068 37.219l2.101-.316V26.515h-2.126v-1.76l4.611-1.032v13.18l2.102.316v1.844h-6.688V37.219zM29.481 33.089c0 2.029-.377 3.569-1.132 4.62-.754 1.05-1.774 1.575-3.062 1.575-1.298 0-2.325-.525-3.083-1.575-.757-1.051-1.135-2.591-1.135-4.62v-3.382c0-2.023.377-3.563 1.131-4.62.755-1.058 1.778-1.586 3.07-1.586 1.286 0 2.31.528 3.07 1.586.76 1.057 1.14 2.597 1.14 4.62V33.089zM26.996 29.391c0-1.215-.147-2.105-.443-2.671s-.724-.848-1.281-.848c-.563 0-.991.28-1.281.843-.291.562-.436 1.453-.436 2.676v3.993c0 1.236.146 2.135.44 2.697.293.562.724.843 1.293.843.559 0 .982-.281 1.273-.843.289-.563.435-1.461.435-2.697V29.391z"/></g></svg>