<svg xmlns="http://www.w3.org/2000/svg" width="31" height="43"><path fill="#4F4F4F" d="M28.373,0H2.627C1.208,0,0,1.206,0,2.622v37.756C0,41.848,1.208,43,2.627,43h25.746 C29.844,43,31,41.794,31,40.378V2.622C31,1.206,29.844,0,28.373,0L28.373,0z"/><linearGradient id="a" gradientUnits="userSpaceOnUse" x1="1320.098" y1="-1767.033" x2="1320.098" y2="-1727.022" gradientTransform="matrix(1 0 0 -1 -1304.6 -1725.5)"><stop offset="0" stop-color="#141414"/><stop offset="1" stop-color="#4f4f4f"/></linearGradient><path fill="url(#a)" d="M27.426,1.521H3.514c-1.311,0-2.413,1.102-2.413,2.412v35.135c0,1.363,1.102,2.465,2.413,2.465 h23.912c1.363,0,2.465-1.102,2.465-2.465V3.934C29.838,2.622,28.736,1.521,27.426,1.521L27.426,1.521z"/><path fill="#5B5B5B" d="M4.248,1.441c-1.73,0-3.146,1.312-3.146,2.99v23.439c0,0,2.925-12.551,6.765-17.646 c4.248-5.637,13.537-8.783,12.804-8.783H4.248L4.248,1.441z"/><path fill="#161616" d="M7.509,17.223c0,0-5.09,3.894-5.09,5.726c0,1.829,1.257,2.383,2.244,2.227 c0.994-0.157,2.297-2.227,2.297-2.227c0,3.17-2.297,3.346-2.297,3.346v1.108h2.846h2.845v-1.108c0,0-2.298-0.176-2.298-3.346 c0,0,1.296,2.116,2.298,2.227c0.798,0.089,2.245-0.396,2.245-2.227C12.599,21.116,7.509,17.223,7.509,17.223"/><path fill="#FFF" d="M6.426,16.85c0,0-5.09,3.893-5.09,5.725c0,1.83,1.257,2.384,2.244,2.227 c0.994-0.158,2.297-2.227,2.297-2.227c0,3.17-2.297,3.347-2.297,3.347v1.108h2.846h2.845V25.92c0,0-2.298-0.177-2.298-3.347 c0,0,1.296,2.118,2.298,2.227c0.798,0.089,2.245-0.396,2.245-2.227C11.516,20.741,6.426,16.85,6.426,16.85"/><g><path fill="#161616" d="M3.937,14.864V13.55l3.242-3.476c0.468-0.537,0.801-0.99,0.998-1.359c0.197-0.37,0.296-0.713,0.296-1.029 c0-0.422-0.114-0.768-0.341-1.036s-0.55-0.403-0.967-0.403c-0.463,0-0.815,0.158-1.057,0.473C5.868,7.033,5.747,7.451,5.747,7.975 H3.792L3.779,7.934C3.756,7.029,4.053,6.264,4.67,5.638s1.449-0.939,2.495-0.939c1.033,0,1.845,0.269,2.437,0.806 C10.194,6.04,10.49,6.756,10.49,7.65c0,0.605-0.167,1.166-0.499,1.68c-0.333,0.514-0.885,1.184-1.655,2.01l-1.783,1.948 l0.014,0.034h2.602l0.083-0.991h1.528v2.533H3.937z"/></g><g><path fill="#FFF" d="M3.014,14.256v-1.314l3.242-3.477c0.468-0.537,0.801-0.99,0.998-1.359S7.55,7.394,7.55,7.076 c0-0.422-0.114-0.767-0.341-1.035s-0.55-0.402-0.967-0.402c-0.463,0-0.815,0.156-1.057,0.471C4.944,6.424,4.824,6.843,4.824,7.365 H2.869L2.855,7.324C2.833,6.421,3.129,5.655,3.747,5.029C4.364,4.402,5.196,4.09,6.242,4.09c1.033,0,1.845,0.268,2.437,0.805 c0.592,0.537,0.888,1.253,0.888,2.148c0,0.605-0.167,1.165-0.499,1.679c-0.333,0.515-0.885,1.185-1.655,2.011L5.629,12.68 l0.014,0.034h2.602l0.083-0.991h1.528v2.533H3.014z"/></g><g><path fill="#161616" d="M16.96,39.688v-2.013l4.962-5.32c0.717-0.821,1.227-1.516,1.527-2.081c0.303-0.565,0.453-1.09,0.453-1.575 c0-0.646-0.174-1.175-0.521-1.585c-0.348-0.411-0.84-0.616-1.48-0.616c-0.709,0-1.248,0.24-1.617,0.722 c-0.367,0.48-0.553,1.122-0.553,1.922h-2.992l-0.021-0.063c-0.035-1.384,0.419-2.556,1.364-3.514 c0.945-0.959,2.219-1.438,3.818-1.438c1.582,0,2.824,0.411,3.73,1.232c0.906,0.822,1.359,1.918,1.359,3.287 c0,0.928-0.254,1.784-0.764,2.571c-0.51,0.786-1.354,1.813-2.533,3.076l-2.73,2.981l0.021,0.053h3.982l0.127-1.517h2.34v3.877 H16.96z"/></g><g><path fill="#FFF" d="M16.126,39.063V37.05l4.962-5.32c0.717-0.821,1.227-1.516,1.527-2.081c0.303-0.565,0.453-1.09,0.453-1.575 c0-0.646-0.174-1.175-0.521-1.585c-0.348-0.411-0.84-0.616-1.48-0.616c-0.709,0-1.248,0.24-1.617,0.722 c-0.367,0.48-0.553,1.122-0.553,1.922h-2.992l-0.021-0.063c-0.035-1.384,0.419-2.556,1.364-3.514 c0.945-0.959,2.219-1.438,3.818-1.438c1.582,0,2.824,0.411,3.73,1.232c0.906,0.822,1.359,1.918,1.359,3.287 c0,0.928-0.254,1.784-0.764,2.571c-0.51,0.786-1.354,1.813-2.533,3.076l-2.73,2.981l0.021,0.053h3.982l0.127-1.517h2.34v3.877 H16.126z"/></g></svg>