<svg xmlns="http://www.w3.org/2000/svg" width="31" height="43"><path fill="#4F4F4F" d="M28.373,0H2.627C1.208,0,0,1.206,0,2.622v37.756C0,41.848,1.208,43,2.627,43h25.746 C29.844,43,31,41.794,31,40.378V2.622C31,1.206,29.844,0,28.373,0L28.373,0z"/><linearGradient id="a" gradientUnits="userSpaceOnUse" x1="1320.098" y1="-1767.033" x2="1320.098" y2="-1727.022" gradientTransform="matrix(1 0 0 -1 -1304.6 -1725.5)"><stop offset="0" stop-color="#141414"/><stop offset="1" stop-color="#4f4f4f"/></linearGradient><path fill="url(#a)" d="M27.426,1.521H3.514c-1.311,0-2.413,1.102-2.413,2.412v35.135c0,1.363,1.102,2.465,2.413,2.465 h23.912c1.363,0,2.465-1.102,2.465-2.465V3.934C29.838,2.622,28.736,1.521,27.426,1.521L27.426,1.521z"/><path fill="#5B5B5B" d="M4.248,1.441c-1.73,0-3.146,1.312-3.146,2.99v23.439c0,0,2.925-12.551,6.765-17.646 c4.248-5.637,13.537-8.783,12.804-8.783H4.248L4.248,1.441z"/><path fill="#161616" d="M7.509,17.223c0,0-5.09,3.894-5.09,5.726c0,1.829,1.257,2.383,2.244,2.227 c0.994-0.157,2.297-2.227,2.297-2.227c0,3.17-2.297,3.346-2.297,3.346v1.108h2.846h2.845v-1.108c0,0-2.298-0.176-2.298-3.346 c0,0,1.296,2.116,2.298,2.227c0.798,0.089,2.245-0.396,2.245-2.227C12.599,21.116,7.509,17.223,7.509,17.223"/><path fill="#FFF" d="M6.426,16.85c0,0-5.09,3.893-5.09,5.725c0,1.83,1.257,2.384,2.244,2.227 c0.994-0.158,2.297-2.227,2.297-2.227c0,3.17-2.297,3.347-2.297,3.347v1.108h2.846h2.845V25.92c0,0-2.298-0.177-2.298-3.347 c0,0,1.296,2.118,2.298,2.227c0.798,0.089,2.245-0.396,2.245-2.227C11.516,20.741,6.426,16.85,6.426,16.85"/><g><path fill="#161616" d="M9.794,11.134h1.136v1.335H9.794v0.984l1.067,0.207v1.204H6.718V13.66l1.074-0.207v-0.984H3.703 l-0.097-0.984l4.165-6.642h2.023V11.134z M5.486,11.134h2.306V7.52L7.75,7.506L7.585,7.795L5.486,11.134z"/></g><g><path fill="#FFF" d="M8.871,10.525h1.136v1.335H8.871v0.984l1.067,0.206v1.205H5.794v-1.205l1.074-0.206V11.86H2.78 l-0.097-0.983l4.165-6.643h2.023V10.525z M4.563,10.525h2.306V6.912L6.827,6.898L6.662,7.188L4.563,10.525z"/></g><g><path fill="#161616" d="M25.926,33.978h1.739v2.044h-1.739v1.506l1.634,0.316v1.844h-6.343v-1.844l1.644-0.316v-1.506h-6.259 l-0.146-1.507l6.374-10.167h3.097V33.978z M19.331,33.978h3.529v-5.532l-0.063-0.021l-0.253,0.442L19.331,33.978z"/></g><g><path fill="#FFF" d="M25.092,33.353h1.739v2.044h-1.739v1.506l1.634,0.316v1.844h-6.343v-1.844l1.644-0.316v-1.506h-6.258 l-0.147-1.507l6.375-10.167h3.097V33.353z M18.497,33.353h3.529V27.82L21.963,27.8l-0.253,0.442L18.497,33.353z"/></g></svg>