<svg xmlns="http://www.w3.org/2000/svg" width="31" height="43"><path fill="#4F4F4F" d="M28.373,0H2.627C1.208,0,0,1.206,0,2.622v37.756C0,41.848,1.208,43,2.627,43h25.746 C29.844,43,31,41.794,31,40.378V2.622C31,1.206,29.844,0,28.373,0L28.373,0z"/><linearGradient id="a" gradientUnits="userSpaceOnUse" x1="1320.098" y1="-1767.033" x2="1320.098" y2="-1727.022" gradientTransform="matrix(1 0 0 -1 -1304.6 -1725.5)"><stop offset="0" stop-color="#141414"/><stop offset="1" stop-color="#4f4f4f"/></linearGradient><path fill="url(#a)" d="M27.426,1.521H3.514c-1.311,0-2.413,1.102-2.413,2.412v35.135c0,1.363,1.102,2.465,2.413,2.465 h23.912c1.363,0,2.465-1.102,2.465-2.465V3.934C29.838,2.622,28.736,1.521,27.426,1.521L27.426,1.521z"/><path fill="#5B5B5B" d="M4.248,1.441c-1.73,0-3.146,1.312-3.146,2.99v23.439c0,0,2.925-12.551,6.765-17.646 c4.248-5.637,13.537-8.783,12.804-8.783H4.248L4.248,1.441z"/><path fill="#161616" d="M7.509,17.223c0,0-5.09,3.894-5.09,5.726c0,1.829,1.257,2.383,2.244,2.227 c0.994-0.157,2.297-2.227,2.297-2.227c0,3.17-2.297,3.346-2.297,3.346v1.108h2.846h2.845v-1.108c0,0-2.298-0.176-2.298-3.346 c0,0,1.296,2.116,2.298,2.227c0.798,0.089,2.245-0.396,2.245-2.227C12.599,21.116,7.509,17.223,7.509,17.223"/><path fill="#FFF" d="M6.426,16.85c0,0-5.09,3.893-5.09,5.725c0,1.83,1.257,2.384,2.244,2.227 c0.994-0.158,2.297-2.227,2.297-2.227c0,3.17-2.297,3.347-2.297,3.347v1.108h2.846h2.845V25.92c0,0-2.298-0.177-2.298-3.347 c0,0,1.296,2.118,2.298,2.227c0.798,0.089,2.245-0.396,2.245-2.227C11.516,20.741,6.426,16.85,6.426,16.85"/><g><path fill="#161616" d="M9.313,7.128L9.134,6.453H6.436L6.153,8.766c0.188-0.137,0.413-0.251,0.675-0.34 c0.261-0.09,0.55-0.137,0.867-0.142c0.963-0.014,1.709,0.277,2.237,0.874s0.792,1.428,0.792,2.492c0,0.963-0.29,1.764-0.871,2.402 c-0.581,0.637-1.417,0.956-2.509,0.956c-0.918,0-1.705-0.251-2.361-0.754s-0.973-1.194-0.95-2.075l0.014-0.034l1.927-0.097 c0,0.445,0.126,0.793,0.378,1.043s0.583,0.375,0.991,0.375c0.468,0,0.814-0.168,1.039-0.502c0.225-0.336,0.337-0.77,0.337-1.301 c0-0.578-0.119-1.042-0.358-1.391S7.769,9.75,7.296,9.75c-0.381,0-0.673,0.071-0.877,0.213c-0.204,0.143-0.35,0.336-0.437,0.578 l-1.776-0.116l0.578-5.582h5.768v2.285H9.313z"/></g><g><path fill="#FFF" d="M8.389,6.52L8.21,5.845H5.512L5.23,8.158C5.418,8.02,5.643,7.906,5.905,7.816 c0.261-0.09,0.55-0.137,0.867-0.141C7.735,7.662,8.481,7.953,9.009,8.55S9.8,9.977,9.8,11.041c0,0.964-0.29,1.765-0.871,2.402 C8.349,14.082,7.513,14.4,6.421,14.4c-0.918,0-1.705-0.251-2.361-0.754c-0.656-0.502-0.973-1.193-0.95-2.075l0.014-0.034 l1.927-0.096c0,0.444,0.126,0.792,0.378,1.042s0.583,0.375,0.991,0.375c0.468,0,0.814-0.167,1.039-0.503 c0.225-0.334,0.337-0.768,0.337-1.301c0-0.578-0.119-1.041-0.358-1.39S6.845,9.142,6.373,9.142c-0.381,0-0.673,0.071-0.877,0.214 s-0.35,0.334-0.437,0.578L3.282,9.816L3.86,4.234h5.768V6.52H8.389z"/></g><g><path fill="#161616" d="M25.189,27.845l-0.275-1.032h-4.129l-0.432,3.54c0.287-0.211,0.631-0.385,1.031-0.521 s0.844-0.209,1.328-0.216c1.475-0.021,2.617,0.425,3.424,1.338c0.809,0.913,1.211,2.185,1.211,3.814 c0,1.475-0.443,2.7-1.332,3.677s-2.168,1.465-3.84,1.465c-1.404,0-2.609-0.385-3.613-1.154c-1.006-0.769-1.49-1.828-1.455-3.177 l0.021-0.053l2.949-0.147c0,0.682,0.193,1.214,0.58,1.597s0.893,0.574,1.518,0.574c0.717,0,1.246-0.257,1.59-0.77 c0.346-0.513,0.518-1.176,0.518-1.991c0-0.885-0.184-1.594-0.549-2.128s-0.91-0.801-1.633-0.801c-0.582,0-1.031,0.109-1.344,0.326 c-0.313,0.218-0.535,0.514-0.668,0.886l-2.719-0.18l0.885-8.544h8.83v3.497H25.189z"/></g><g><path fill="#FFF" d="M24.355,27.22l-0.275-1.032h-4.129l-0.432,3.54c0.287-0.211,0.631-0.385,1.031-0.521 s0.844-0.209,1.328-0.216c1.475-0.021,2.617,0.425,3.424,1.338c0.809,0.913,1.211,2.185,1.211,3.814 c0,1.475-0.443,2.7-1.332,3.677s-2.168,1.465-3.84,1.465c-1.404,0-2.609-0.385-3.613-1.154c-1.006-0.769-1.49-1.828-1.455-3.177 l0.021-0.053l2.949-0.147c0,0.682,0.193,1.214,0.58,1.597s0.893,0.574,1.518,0.574c0.717,0,1.246-0.257,1.59-0.77 c0.346-0.513,0.518-1.176,0.518-1.991c0-0.885-0.184-1.594-0.549-2.128s-0.91-0.801-1.633-0.801c-0.582,0-1.031,0.109-1.344,0.326 c-0.313,0.218-0.535,0.514-0.668,0.886l-2.719-0.18l0.885-8.544h8.83v3.497H24.355z"/></g></svg>