<svg xmlns="http://www.w3.org/2000/svg" width="31" height="43"><path fill="#4F4F4F" d="M28.373,0H2.627C1.208,0,0,1.206,0,2.622v37.756C0,41.848,1.208,43,2.627,43h25.746 C29.844,43,31,41.794,31,40.378V2.622C31,1.206,29.844,0,28.373,0L28.373,0z"/><linearGradient id="a" gradientUnits="userSpaceOnUse" x1="1320.098" y1="-1767.033" x2="1320.098" y2="-1727.022" gradientTransform="matrix(1 0 0 -1 -1304.6 -1725.5)"><stop offset="0" stop-color="#141414"/><stop offset="1" stop-color="#4f4f4f"/></linearGradient><path fill="url(#a)" d="M27.426,1.521H3.514c-1.311,0-2.413,1.102-2.413,2.412v35.135c0,1.363,1.102,2.465,2.413,2.465 h23.912c1.363,0,2.465-1.102,2.465-2.465V3.934C29.838,2.622,28.736,1.521,27.426,1.521L27.426,1.521z"/><path fill="#5B5B5B" d="M4.248,1.441c-1.73,0-3.146,1.312-3.146,2.99v23.439c0,0,2.925-12.551,6.765-17.646 c4.248-5.637,13.537-8.783,12.804-8.783H4.248L4.248,1.441z"/><path fill="#161616" d="M7.509,17.223c0,0-5.09,3.894-5.09,5.726c0,1.829,1.257,2.383,2.244,2.227 c0.994-0.157,2.297-2.227,2.297-2.227c0,3.17-2.297,3.346-2.297,3.346v1.108h2.846h2.845v-1.108c0,0-2.298-0.176-2.298-3.346 c0,0,1.296,2.116,2.298,2.227c0.798,0.089,2.245-0.396,2.245-2.227C12.599,21.116,7.509,17.223,7.509,17.223"/><path fill="#FFF" d="M6.426,16.85c0,0-5.09,3.893-5.09,5.725c0,1.83,1.257,2.384,2.244,2.227 c0.994-0.158,2.297-2.227,2.297-2.227c0,3.17-2.297,3.347-2.297,3.347v1.108h2.846h2.845V25.92c0,0-2.298-0.177-2.298-3.347 c0,0,1.296,2.118,2.298,2.227c0.798,0.089,2.245-0.396,2.245-2.227C11.516,20.741,6.426,16.85,6.426,16.85"/><g><path fill="#161616" d="M10.941,6.391C9.867,7.648,9.134,8.82,8.742,9.908c-0.392,1.088-0.673,2.4-0.843,3.938l-0.096,1.019h-2.01 l0.096-1.019c0.156-1.473,0.491-2.826,1.005-4.058c0.514-1.231,1.218-2.364,2.113-3.397H5.476L5.4,7.383H3.858v-2.54h7.083V6.391z"/></g><g><path fill="#FFF" d="M10.018,5.783C8.944,7.04,8.211,8.213,7.818,9.301c-0.392,1.087-0.673,2.399-0.843,3.937l-0.096,1.019 h-2.01l0.096-1.019c0.156-1.474,0.491-2.825,1.005-4.058c0.514-1.232,1.218-2.364,2.113-3.396H4.552l-0.076,0.99H2.935V4.234 h7.083V5.783z"/></g><g><path fill="#161616" d="M27.68,26.718c-1.643,1.925-2.766,3.719-3.365,5.384c-0.602,1.665-1.031,3.674-1.291,6.026l-0.146,1.56 h-3.078l0.148-1.56c0.238-2.255,0.752-4.325,1.537-6.211c0.787-1.886,1.865-3.619,3.236-5.199h-5.406l-0.115,1.518h-2.36v-3.888 H27.68V26.718z"/></g><g><path fill="#FFF" d="M26.846,26.093c-1.643,1.925-2.766,3.719-3.365,5.384c-0.602,1.665-1.031,3.674-1.291,6.026l-0.146,1.56 h-3.078l0.148-1.56c0.238-2.255,0.752-4.325,1.537-6.211c0.787-1.886,1.865-3.619,3.236-5.199H18.48l-0.115,1.518h-2.36v-3.888 h10.841V26.093z"/></g></svg>