<svg xmlns="http://www.w3.org/2000/svg" width="31" height="43"><path fill="#4F4F4F" d="M28.373,0H2.627C1.208,0,0,1.206,0,2.622v37.756C0,41.848,1.208,43,2.627,43h25.746 C29.844,43,31,41.794,31,40.378V2.622C31,1.206,29.844,0,28.373,0L28.373,0z"/><linearGradient id="a" gradientUnits="userSpaceOnUse" x1="1320.098" y1="-1767.033" x2="1320.098" y2="-1727.022" gradientTransform="matrix(1 0 0 -1 -1304.6 -1725.5)"><stop offset="0" stop-color="#141414"/><stop offset="1" stop-color="#4f4f4f"/></linearGradient><path fill="url(#a)" d="M27.426,1.521H3.514c-1.311,0-2.412,1.102-2.412,2.412v35.135c0,1.363,1.102,2.465,2.412,2.465 h23.912c1.363,0,2.465-1.102,2.465-2.465V3.934C29.838,2.622,28.736,1.521,27.426,1.521L27.426,1.521z"/><path fill="#5B5B5B" d="M4.248,1.441c-1.73,0-3.146,1.312-3.146,2.99v23.439c0,0,2.926-12.551,6.766-17.646 c4.248-5.637,13.537-8.783,12.804-8.783H4.248L4.248,1.441z"/><path fill="#161616" d="M7.509,17.223c0,0-5.09,3.894-5.09,5.726c0,1.829,1.257,2.383,2.244,2.227 c0.994-0.157,2.297-2.227,2.297-2.227c0,3.17-2.297,3.346-2.297,3.346v1.108h2.846h2.845v-1.108c0,0-2.297-0.176-2.297-3.346 c0,0,1.295,2.116,2.297,2.227c0.799,0.089,2.246-0.396,2.246-2.227C12.6,21.116,7.509,17.223,7.509,17.223"/><path fill="#FFF" d="M6.426,16.85c0,0-5.09,3.893-5.09,5.725c0,1.83,1.257,2.384,2.244,2.227 c0.994-0.158,2.297-2.227,2.297-2.227c0,3.17-2.297,3.347-2.297,3.347v1.108h2.846h2.846V25.92c0,0-2.299-0.177-2.299-3.347 c0,0,1.297,2.118,2.299,2.227c0.797,0.089,2.244-0.396,2.244-2.227C11.516,20.741,6.426,16.85,6.426,16.85"/><g><path fill="#161616" d="M6.852,13.467c0.537,0,0.971-0.205,1.302-0.615c0.33-0.411,0.495-1.027,0.495-1.849v-0.151 c-0.225,0.289-0.493,0.508-0.805,0.657c-0.313,0.149-0.647,0.224-1.006,0.224c-0.936,0-1.67-0.307-2.202-0.919 S3.838,9.355,3.838,8.277c0-1.014,0.317-1.864,0.953-2.551C5.426,5.041,6.23,4.698,7.203,4.698c1.023,0,1.854,0.353,2.492,1.056 c0.637,0.705,0.957,1.695,0.957,2.971v2.175c0,1.299-0.355,2.309-1.064,3.028c-0.709,0.721-1.621,1.081-2.736,1.081 c-0.348,0-0.707-0.036-1.076-0.106c-0.369-0.071-0.711-0.176-1.022-0.313l0.228-1.452c0.307,0.115,0.605,0.198,0.895,0.251 S6.49,13.467,6.852,13.467z M7.176,10.26c0.335,0,0.627-0.063,0.877-0.189c0.25-0.127,0.449-0.295,0.596-0.506V8.49 c0-0.734-0.129-1.291-0.385-1.672C8.006,6.438,7.658,6.246,7.217,6.246c-0.404,0-0.732,0.199-0.987,0.596 C5.975,7.239,5.848,7.717,5.848,8.277c0,0.605,0.113,1.088,0.34,1.445C6.415,10.08,6.744,10.26,7.176,10.26z"/></g><g><path fill="#FFF" d="M5.929,12.858c0.537,0,0.971-0.205,1.302-0.616c0.33-0.41,0.495-1.026,0.495-1.848v-0.151 C7.5,10.532,7.232,10.752,6.92,10.9s-0.646,0.224-1.005,0.224c-0.937,0-1.671-0.306-2.202-0.919 C3.18,9.593,2.914,8.747,2.914,7.669c0-1.015,0.318-1.864,0.953-2.55C4.503,4.433,5.307,4.09,6.279,4.09 c1.023,0,1.854,0.352,2.492,1.057c0.638,0.704,0.957,1.693,0.957,2.97v2.175c0,1.299-0.354,2.309-1.063,3.029 c-0.709,0.72-1.621,1.08-2.736,1.08c-0.349,0-0.708-0.035-1.077-0.106s-0.71-0.176-1.021-0.313l0.227-1.452 c0.308,0.114,0.605,0.198,0.895,0.251S5.566,12.858,5.929,12.858z M6.252,9.65c0.336,0,0.628-0.063,0.878-0.188 s0.448-0.295,0.596-0.506V7.883c0-0.734-0.129-1.293-0.386-1.674s-0.605-0.57-1.047-0.57c-0.403,0-0.732,0.198-0.986,0.596 C5.051,6.631,4.924,7.109,4.924,7.669c0,0.605,0.113,1.087,0.341,1.445S5.82,9.65,6.252,9.65z"/></g><g><path fill="#161616" d="M21.422,37.549c0.822,0,1.485-0.314,1.991-0.943c0.506-0.628,0.759-1.571,0.759-2.828v-0.232 c-0.344,0.442-0.755,0.778-1.232,1.006c-0.478,0.229-0.99,0.343-1.538,0.343c-1.434,0-2.558-0.469-3.372-1.406 s-1.223-2.232-1.223-3.883c0-1.552,0.487-2.854,1.46-3.903s2.203-1.575,3.692-1.575c1.566,0,2.838,0.539,3.814,1.617 s1.465,2.594,1.465,4.546v3.33c0,1.987-0.543,3.533-1.628,4.636c-1.086,1.103-2.481,1.654-4.188,1.654 c-0.534,0-1.083-0.055-1.648-0.164c-0.565-0.108-1.087-0.269-1.564-0.479l0.348-2.223c0.47,0.176,0.927,0.304,1.369,0.385 S20.867,37.549,21.422,37.549z M21.917,32.639c0.513,0,0.961-0.096,1.344-0.289s0.687-0.451,0.911-0.774v-1.644 c0-1.124-0.196-1.978-0.59-2.561s-0.928-0.874-1.602-0.874c-0.618,0-1.122,0.304-1.512,0.911s-0.585,1.34-0.585,2.196 c0,0.928,0.174,1.665,0.521,2.213S21.257,32.639,21.917,32.639z"/></g><g><path fill="#FFF" d="M20.588,36.924c0.822,0,1.485-0.314,1.991-0.943c0.506-0.628,0.759-1.571,0.759-2.828V32.92 c-0.344,0.442-0.755,0.778-1.232,1.006c-0.478,0.229-0.99,0.343-1.538,0.343c-1.434,0-2.558-0.469-3.372-1.406 s-1.223-2.232-1.223-3.883c0-1.552,0.487-2.854,1.46-3.903s2.203-1.575,3.692-1.575c1.566,0,2.838,0.539,3.814,1.617 s1.465,2.594,1.465,4.546v3.33c0,1.987-0.543,3.533-1.628,4.636c-1.086,1.103-2.481,1.654-4.188,1.654 c-0.534,0-1.083-0.055-1.648-0.164c-0.565-0.108-1.087-0.269-1.564-0.479l0.348-2.223c0.47,0.176,0.927,0.304,1.369,0.385 S20.033,36.924,20.588,36.924z M21.083,32.014c0.513,0,0.961-0.096,1.344-0.289s0.687-0.451,0.911-0.774v-1.644 c0-1.124-0.196-1.978-0.59-2.561s-0.928-0.874-1.602-0.874c-0.618,0-1.122,0.304-1.512,0.911s-0.585,1.34-0.585,2.196 c0,0.928,0.174,1.665,0.521,2.213S20.423,32.014,21.083,32.014z"/></g></svg>