<svg xmlns="http://www.w3.org/2000/svg" width="31" height="43"><path fill="#4F4F4F" d="M28.373,0H2.627C1.208,0,0,1.206,0,2.622v37.756C0,41.848,1.208,43,2.627,43h25.746 C29.844,43,31,41.794,31,40.378V2.622C31,1.206,29.844,0,28.373,0L28.373,0z"/><linearGradient id="a" gradientUnits="userSpaceOnUse" x1="1320.098" y1="-1767.033" x2="1320.098" y2="-1727.022" gradientTransform="matrix(1 0 0 -1 -1304.6 -1725.5)"><stop offset="0" stop-color="#141414"/><stop offset="1" stop-color="#4f4f4f"/></linearGradient><path fill="url(#a)" d="M27.426,1.521H3.514c-1.311,0-2.412,1.102-2.412,2.412v35.135c0,1.363,1.102,2.465,2.412,2.465 h23.912c1.363,0,2.465-1.102,2.465-2.465V3.934C29.838,2.622,28.736,1.521,27.426,1.521L27.426,1.521z"/><path fill="#5B5B5B" d="M4.248,1.441c-1.73,0-3.146,1.312-3.146,2.99v23.439c0,0,2.926-12.551,6.766-17.646 c4.248-5.637,13.537-8.783,12.804-8.783H4.248L4.248,1.441z"/><path fill="#161616" d="M7.509,17.223c0,0-5.09,3.894-5.09,5.726c0,1.829,1.257,2.383,2.244,2.227 c0.994-0.157,2.297-2.227,2.297-2.227c0,3.17-2.297,3.346-2.297,3.346v1.108h2.846h2.845v-1.108c0,0-2.297-0.176-2.297-3.346 c0,0,1.295,2.116,2.297,2.227c0.799,0.089,2.246-0.396,2.246-2.227C12.6,21.116,7.509,17.223,7.509,17.223"/><path fill="#FFF" d="M6.426,16.85c0,0-5.09,3.893-5.09,5.725c0,1.83,1.257,2.384,2.244,2.227 c0.994-0.158,2.297-2.227,2.297-2.227c0,3.17-2.297,3.347-2.297,3.347v1.108h2.846h2.846V25.92c0,0-2.299-0.177-2.299-3.347 c0,0,1.297,2.118,2.299,2.227c0.797,0.089,2.244-0.396,2.244-2.227C11.516,20.741,6.426,16.85,6.426,16.85"/><g><path fill="#161616" d="M2.551,13.66l0.715-0.104l3.05-8.714h2.058l3.029,8.714l0.715,0.104v1.204H8.703V13.66l0.695-0.125 l-0.439-1.376h-3.25L5.27,13.535l0.695,0.125v1.204H2.551V13.66z M6.185,10.68h2.299L7.354,7.148H7.313L6.185,10.68z"/></g><g><path fill="#FFF" d="M1.627,13.051l0.716-0.103l3.05-8.714H7.45l3.028,8.714l0.716,0.103v1.205H7.78v-1.205l0.695-0.123 l-0.44-1.377H4.786l-0.44,1.377l0.695,0.123v1.205H1.627V13.051z M5.262,10.07h2.299L6.432,6.54H6.391L5.262,10.07z"/></g><g><path fill="#161616" d="M14.838,37.844l1.096-0.158l4.667-13.338h3.15l4.636,13.338l1.096,0.158v1.844h-5.227v-1.844l1.064-0.189 l-0.674-2.107h-4.974l-0.674,2.107l1.064,0.189v1.844h-5.226V37.844z M20.4,33.281h3.519l-1.728-5.404h-0.063L20.4,33.281z"/></g><g><path fill="#FFF" d="M14.004,37.219l1.096-0.158l4.667-13.338h3.15l4.636,13.338l1.096,0.158v1.844h-5.227v-1.844l1.064-0.189 l-0.674-2.107h-4.974l-0.674,2.107l1.064,0.189v1.844h-5.226V37.219z M19.566,32.656h3.519l-1.728-5.404h-0.063L19.566,32.656z"/></g></svg>