<svg xmlns="http://www.w3.org/2000/svg" width="31" height="43"><path fill="#4F4F4F" d="M28.373,0H2.627C1.208,0,0,1.206,0,2.622v37.756C0,41.848,1.208,43,2.627,43h25.746 C29.844,43,31,41.794,31,40.378V2.622C31,1.206,29.844,0,28.373,0L28.373,0z"/><linearGradient id="a" gradientUnits="userSpaceOnUse" x1="1320.098" y1="-1767.033" x2="1320.098" y2="-1727.022" gradientTransform="matrix(1 0 0 -1 -1304.6 -1725.5)"><stop offset="0" stop-color="#141414"/><stop offset="1" stop-color="#4f4f4f"/></linearGradient><path fill="url(#a)" d="M27.426,1.521H3.514c-1.311,0-2.412,1.102-2.412,2.412v35.135c0,1.363,1.102,2.465,2.412,2.465 h23.912c1.363,0,2.465-1.102,2.465-2.465V3.934C29.838,2.622,28.736,1.521,27.426,1.521L27.426,1.521z"/><path fill="#5B5B5B" d="M4.248,1.441c-1.73,0-3.146,1.312-3.146,2.99v23.439c0,0,2.926-12.551,6.766-17.646 c4.248-5.637,13.537-8.783,12.804-8.783H4.248L4.248,1.441z"/><path fill="#161616" d="M7.509,17.223c0,0-5.09,3.894-5.09,5.726c0,1.829,1.257,2.383,2.244,2.227 c0.994-0.157,2.297-2.227,2.297-2.227c0,3.17-2.297,3.346-2.297,3.346v1.108h2.846h2.845v-1.108c0,0-2.297-0.176-2.297-3.346 c0,0,1.295,2.116,2.297,2.227c0.799,0.089,2.246-0.396,2.246-2.227C12.6,21.116,7.509,17.223,7.509,17.223"/><path fill="#FFF" d="M6.426,16.85c0,0-5.09,3.893-5.09,5.725c0,1.83,1.257,2.384,2.244,2.227 c0.994-0.158,2.297-2.227,2.297-2.227c0,3.17-2.297,3.347-2.297,3.347v1.108h2.846h2.846V25.92c0,0-2.299-0.177-2.299-3.347 c0,0,1.297,2.118,2.299,2.227c0.797,0.089,2.244-0.396,2.244-2.227C11.516,20.741,6.426,16.85,6.426,16.85"/><g><path fill="#161616" d="M11.246,4.843v1.212L10.173,6.26v5.597c0,0.968-0.315,1.735-0.946,2.302 c-0.631,0.567-1.428,0.851-2.392,0.851c-1.046,0-1.875-0.255-2.485-0.765c-0.609-0.509-0.904-1.259-0.881-2.25l0.014-0.041h1.955 c0,0.527,0.126,0.912,0.379,1.152c0.252,0.241,0.592,0.361,1.019,0.361c0.372,0,0.687-0.143,0.946-0.43s0.389-0.681,0.389-1.181 V6.26L7.096,6.055V4.843h3.077H11.246z"/></g><g><path fill="#FFF" d="M10.323,4.234v1.211L9.25,5.652v5.596c0,0.969-0.316,1.736-0.947,2.303S6.875,14.4,5.912,14.4 c-1.047,0-1.875-0.255-2.485-0.764c-0.61-0.51-0.904-1.26-0.882-2.251l0.015-0.042h1.954c0,0.528,0.127,0.912,0.379,1.153 s0.592,0.361,1.02,0.361c0.371,0,0.687-0.144,0.945-0.431c0.26-0.286,0.389-0.68,0.389-1.18V5.652L6.173,5.445V4.234H9.25H10.323z"/></g><g><path fill="#161616" d="M28.149,24.348v1.854l-1.644,0.316v8.565c0,1.482-0.483,2.657-1.449,3.524 c-0.966,0.868-2.186,1.302-3.661,1.302c-1.602,0-2.869-0.391-3.804-1.17c-0.934-0.779-1.383-1.928-1.348-3.445l0.021-0.063h2.992 c0,0.809,0.193,1.396,0.58,1.765c0.386,0.369,0.905,0.554,1.559,0.554c0.569,0,1.052-0.22,1.449-0.658 c0.396-0.439,0.595-1.042,0.595-1.808v-8.565l-1.644-0.316v-1.854h4.71H28.149z"/></g><g><path fill="#FFF" d="M27.315,23.723v1.854l-1.644,0.316v8.565c0,1.482-0.483,2.657-1.449,3.524 c-0.966,0.868-2.186,1.302-3.661,1.302c-1.602,0-2.869-0.391-3.804-1.17c-0.934-0.779-1.383-1.928-1.348-3.445l0.021-0.063h2.992 c0,0.809,0.193,1.396,0.58,1.765c0.386,0.369,0.905,0.554,1.559,0.554c0.569,0,1.052-0.22,1.449-0.658 c0.396-0.439,0.595-1.042,0.595-1.808v-8.565l-1.644-0.316v-1.854h4.71H27.315z"/></g></svg>