<svg xmlns="http://www.w3.org/2000/svg" width="31" height="43"><path fill="#4F4F4F" d="M28.373,0H2.627C1.208,0,0,1.206,0,2.622v37.756C0,41.848,1.208,43,2.627,43h25.746 C29.844,43,31,41.794,31,40.378V2.622C31,1.206,29.844,0,28.373,0L28.373,0z"/><linearGradient id="a" gradientUnits="userSpaceOnUse" x1="1320.098" y1="-1767.033" x2="1320.098" y2="-1727.022" gradientTransform="matrix(1 0 0 -1 -1304.6 -1725.5)"><stop offset="0" stop-color="#141414"/><stop offset="1" stop-color="#4f4f4f"/></linearGradient><path fill="url(#a)" d="M27.426,1.521H3.514c-1.311,0-2.412,1.102-2.412,2.412v35.135c0,1.363,1.102,2.465,2.412,2.465 h23.912c1.363,0,2.465-1.102,2.465-2.465V3.934C29.838,2.622,28.736,1.521,27.426,1.521L27.426,1.521z"/><path fill="#5B5B5B" d="M4.248,1.441c-1.73,0-3.146,1.312-3.146,2.99v23.439c0,0,2.926-12.551,6.766-17.646 c4.248-5.637,13.537-8.783,12.804-8.783H4.248L4.248,1.441z"/><path fill="#161616" d="M7.509,17.223c0,0-5.09,3.894-5.09,5.726c0,1.829,1.257,2.383,2.244,2.227 c0.994-0.157,2.297-2.227,2.297-2.227c0,3.17-2.297,3.346-2.297,3.346v1.108h2.846h2.845v-1.108c0,0-2.297-0.176-2.297-3.346 c0,0,1.295,2.116,2.297,2.227c0.799,0.089,2.246-0.396,2.246-2.227C12.6,21.116,7.509,17.223,7.509,17.223"/><path fill="#FFF" d="M6.426,16.85c0,0-5.09,3.893-5.09,5.725c0,1.83,1.257,2.384,2.244,2.227 c0.994-0.158,2.297-2.227,2.297-2.227c0,3.17-2.297,3.347-2.297,3.347v1.108h2.846h2.846V25.92c0,0-2.299-0.177-2.299-3.347 c0,0,1.297,2.118,2.299,2.227c0.797,0.089,2.244-0.396,2.244-2.227C11.516,20.741,6.426,16.85,6.426,16.85"/><g><path fill="#161616" d="M2.678,13.66l1.066-0.207V6.26L2.678,6.055V4.843h4.096v1.212L5.754,6.26v2.678h0.875l1.927-2.801 L7.963,6.055V4.843h3.973v1.212L10.848,6.24L8.383,9.529l2.768,3.959l1.005,0.172v1.204H8.184V13.66l0.619-0.083L6.876,10.68 H5.754v2.773l1.02,0.207v1.204H2.678V13.66z"/></g><g><path fill="#FFF" d="M1.754,13.051l1.066-0.206V5.652L1.754,5.445V4.234H5.85v1.211L4.831,5.652V8.33h0.874l1.928-2.802 L7.04,5.445V4.234h3.972v1.211L9.924,5.631L7.46,8.922l2.767,3.957l1.006,0.172v1.205H7.261v-1.205l0.619-0.082L5.953,10.07H4.831 v2.774l1.019,0.206v1.205H1.754V13.051z"/></g><g><path fill="#161616" d="M15.031,37.844l1.634-0.316v-11.01l-1.634-0.316v-1.854h6.27v1.854l-1.559,0.316v4.099h1.338l2.949-4.288 l-0.906-0.127v-1.854h6.08v1.854l-1.666,0.285l-3.771,5.036l4.236,6.058l1.537,0.264v1.844h-6.078v-1.844l0.947-0.126 l-2.949-4.437h-1.717v4.246l1.559,0.316v1.844h-6.27V37.844z"/></g><g><path fill="#FFF" d="M14.197,37.219l1.634-0.316v-11.01l-1.634-0.316v-1.854h6.27v1.854l-1.559,0.316v4.099h1.338l2.949-4.288 l-0.906-0.127v-1.854h6.08v1.854l-1.666,0.285l-3.771,5.036l4.236,6.058l1.537,0.264v1.844h-6.078v-1.844l0.947-0.126 l-2.949-4.437h-1.717v4.246l1.559,0.316v1.844h-6.27V37.219z"/></g></svg>