<svg xmlns="http://www.w3.org/2000/svg" width="31" height="43"><path fill="#4F4F4F" d="M28.373,0H2.627C1.208,0,0,1.206,0,2.622v37.756C0,41.848,1.208,43,2.627,43h25.746 C29.844,43,31,41.794,31,40.378V2.622C31,1.206,29.844,0,28.373,0L28.373,0z"/><linearGradient id="a" gradientUnits="userSpaceOnUse" x1="1320.098" y1="-1767.033" x2="1320.098" y2="-1727.022" gradientTransform="matrix(1 0 0 -1 -1304.6 -1725.5)"><stop offset="0" stop-color="#141414"/><stop offset="1" stop-color="#4f4f4f"/></linearGradient><path fill="url(#a)" d="M27.426,1.521H3.514c-1.311,0-2.412,1.102-2.412,2.412v35.135c0,1.363,1.102,2.465,2.412,2.465 h23.912c1.363,0,2.465-1.102,2.465-2.465V3.934C29.838,2.622,28.736,1.521,27.426,1.521L27.426,1.521z"/><path fill="#5B5B5B" d="M4.248,1.441c-1.73,0-3.146,1.312-3.146,2.99v23.439c0,0,2.926-12.551,6.766-17.646 c4.248-5.637,13.537-8.783,12.804-8.783H4.248L4.248,1.441z"/><path fill="#161616" d="M7.509,17.223c0,0-5.09,3.894-5.09,5.726c0,1.829,1.257,2.383,2.244,2.227 c0.994-0.157,2.297-2.227,2.297-2.227c0,3.17-2.297,3.346-2.297,3.346v1.108h2.846h2.845v-1.108c0,0-2.297-0.176-2.297-3.346 c0,0,1.295,2.116,2.297,2.227c0.799,0.089,2.246-0.396,2.246-2.227C12.6,21.116,7.509,17.223,7.509,17.223"/><path fill="#FFF" d="M6.426,16.85c0,0-5.09,3.893-5.09,5.725c0,1.83,1.257,2.384,2.244,2.227 c0.994-0.158,2.297-2.227,2.297-2.227c0,3.17-2.297,3.347-2.297,3.347v1.108h2.846h2.846V25.92c0,0-2.299-0.177-2.299-3.347 c0,0,1.297,2.118,2.299,2.227c0.797,0.089,2.244-0.396,2.244-2.227C11.516,20.741,6.426,16.85,6.426,16.85"/><g><path fill="#161616" d="M11.891,9.93c0,0.871-0.157,1.668-0.472,2.388c-0.314,0.721-0.753,1.308-1.317,1.763l2.133,1.328 l-1.418,1.094l-2.402-1.617c-0.178,0.037-0.358,0.066-0.539,0.09c-0.182,0.022-0.362,0.034-0.541,0.034 c-1.354,0-2.447-0.479-3.279-1.438c-0.834-0.959-1.25-2.173-1.25-3.641V9.777c0-1.459,0.416-2.67,1.246-3.634 s1.922-1.445,3.276-1.445c1.358,0,2.458,0.481,3.3,1.445c0.843,0.964,1.264,2.175,1.264,3.634V9.93z M9.888,9.764 c0-1.037-0.216-1.879-0.647-2.525C8.809,6.591,8.172,6.268,7.327,6.268s-1.474,0.32-1.89,0.963 C5.022,7.873,4.814,8.718,4.814,9.764V9.93c0,1.055,0.211,1.904,0.63,2.55c0.42,0.645,1.05,0.967,1.89,0.967 c0.849,0,1.486-0.322,1.914-0.967c0.426-0.646,0.64-1.495,0.64-2.55V9.764z"/></g><g><path fill="#FFF" d="M10.967,9.32c0,0.872-0.156,1.668-0.471,2.389s-0.754,1.309-1.318,1.762l2.134,1.329l-1.418,1.095 l-2.402-1.618c-0.179,0.036-0.358,0.066-0.54,0.09C6.77,14.389,6.59,14.4,6.41,14.4c-1.354,0-2.446-0.479-3.279-1.438 s-1.25-2.173-1.25-3.642V9.17c0-1.46,0.416-2.672,1.246-3.635C3.958,4.571,5.05,4.09,6.404,4.09c1.357,0,2.457,0.481,3.3,1.445 c0.843,0.963,1.263,2.175,1.263,3.635V9.32z M8.965,9.156c0-1.037-0.217-1.88-0.647-2.527c-0.432-0.646-1.069-0.97-1.913-0.97 c-0.845,0-1.475,0.321-1.891,0.964C4.1,7.266,3.892,8.109,3.892,9.156V9.32c0,1.056,0.21,1.906,0.63,2.551 s1.049,0.967,1.889,0.967c0.85,0,1.487-0.322,1.914-0.967s0.641-1.495,0.641-2.551V9.156z"/></g><g><path fill="#161616" d="M29.135,32.133c0,1.335-0.24,2.554-0.723,3.656c-0.48,1.103-1.152,2.002-2.018,2.697l3.266,2.033 l-2.17,1.676l-3.676-2.477c-0.275,0.057-0.551,0.103-0.828,0.138s-0.553,0.053-0.826,0.053c-2.072,0-3.746-0.734-5.021-2.202 c-1.274-1.468-1.912-3.326-1.912-5.574v-0.231c0-2.233,0.636-4.088,1.907-5.563c1.271-1.476,2.942-2.213,5.015-2.213 c2.08,0,3.764,0.737,5.053,2.213c1.289,1.475,1.934,3.329,1.934,5.563V32.133z M26.068,31.881c0-1.588-0.33-2.877-0.99-3.867 s-1.637-1.485-2.93-1.485c-1.291,0-2.256,0.491-2.891,1.475c-0.637,0.983-0.955,2.276-0.955,3.878v0.252 c0,1.616,0.322,2.917,0.965,3.904c0.643,0.986,1.607,1.48,2.893,1.48c1.299,0,2.275-0.494,2.928-1.48 c0.654-0.987,0.98-2.288,0.98-3.904V31.881z"/></g><g><path fill="#FFF" d="M28.301,31.508c0,1.335-0.24,2.554-0.723,3.656c-0.48,1.103-1.152,2.002-2.018,2.697l3.266,2.033 l-2.17,1.676l-3.676-2.477c-0.275,0.057-0.551,0.103-0.828,0.138s-0.553,0.053-0.826,0.053c-2.072,0-3.746-0.734-5.021-2.202 c-1.274-1.468-1.912-3.326-1.912-5.574v-0.231c0-2.233,0.636-4.088,1.907-5.563c1.271-1.476,2.942-2.213,5.015-2.213 c2.08,0,3.764,0.737,5.053,2.213c1.289,1.475,1.934,3.329,1.934,5.563V31.508z M25.234,31.256c0-1.588-0.33-2.877-0.99-3.867 s-1.637-1.485-2.93-1.485c-1.291,0-2.256,0.491-2.891,1.475c-0.637,0.983-0.955,2.276-0.955,3.878v0.252 c0,1.616,0.322,2.917,0.965,3.904c0.643,0.986,1.607,1.48,2.893,1.48c1.299,0,2.275-0.494,2.928-1.48 c0.654-0.987,0.98-2.288,0.98-3.904V31.256z"/></g></svg>