<svg xmlns="http://www.w3.org/2000/svg" xmlns:xlink="http://www.w3.org/1999/xlink" viewBox="0 0 32 32"><symbol id="a" viewBox="-16 -16 32 32"><path fill="none" d="M-16 -16H16V16H-16z"/><path d="M0,12c-6.6,0-12-5.4-12-12c0-6.6,5.4-12,12-12S12-6.6,12,0 C12,6.6,6.6,12,0,12z M6.3,8.4C8.6,6.7,10.2,4,10.4,1H7.9C7.7,3.1,6.6,5,5,6.3L6.3,8.4z M0,10.5c1.6,0,3.2-0.4,4.5-1.1L3.3,7.3 C2.3,7.7,1.2,8,0,8s-2.3-0.3-3.3-0.7l-1.3,2.1C-3.2,10.1-1.6,10.5,0,10.5z M-6.3,8.4L-5,6.3C-6.6,5-7.7,3.1-7.9,1h-2.5 C-10.2,4-8.6,6.7-6.3,8.4z M-6.3-8.4C-8.6-6.7-10.2-4-10.4-1h2.5c0.3-2.1,1.4-4,3-5.3L-6.3-8.4z M0-10.5c-1.6,0-3.2,0.4-4.5,1.1 l1.3,2.1C-2.3-7.7-1.2-8,0-8s2.3,0.3,3.3,0.7l1.3-2.1C3.2-10.1,1.6-10.5,0-10.5z M0-7c-3.9,0-7,3.1-7,7s3.1,7,7,7s7-3.1,7-7 S3.9-7,0-7z M6.3-8.4L5-6.3C6.6-5,7.7-3.1,7.9-1h2.5C10.2-4,8.6-6.7,6.3-8.4z" fill-rule="evenodd" clip-rule="evenodd" fill="#fff"/><path fill-rule="evenodd" clip-rule="evenodd" fill="#fff" d="M4 1L1 1 1 4 -1 4 -1 1 -4 1 -4 -1 -1 -1 -1 -4 1 -4 1 -1 4 -1z"/></symbol><use xlink:href="#a" width="32" height="32" x="-16" y="-16" transform="matrix(1 0 0 -1 16 16)" overflow="visible"/></svg>