<svg xmlns="http://www.w3.org/2000/svg" xmlns:xlink="http://www.w3.org/1999/xlink" viewBox="0 0 32 32"><symbol id="a" viewBox="-16 -16 32 32"><path fill="none" d="M-16 -16H16V16H-16z"/><path d="M6,9H-6c-3.9,0-7-3.1-7-7v-4c0-3.9,3.1-7,7-7H6c3.9,0,7,3.1,7,7v4C13,5.9,9.9,9,6,9z M11-2 c0-2.8-2.2-5-5-5H-6c-2.8,0-5,2.2-5,5v4c0,2.8,2.2,5,5,5H6c2.8,0,5-2.2,5-5V-2z" fill="#fff"/><path fill="#fff" d="M-8 1H8V3H-8zM-8-3H8V-1H-8z"/></symbol><use xlink:href="#a" width="32" height="32" x="-16" y="-16" transform="matrix(1 0 0 -1 16 16)" overflow="visible"/></svg>