<svg xmlns="http://www.w3.org/2000/svg" xmlns:xlink="http://www.w3.org/1999/xlink" viewBox="0 0 32 32"><symbol id="a" viewBox="-16 -16 32 32"><path fill="none" d="M-16 -16H16V16H-16z"/><path fill-rule="evenodd" clip-rule="evenodd" fill="#fff" d="M1 -5L1 0 1 2 -1 2 -3 2 -3 0 -1 0 -1 -5 -3 -5 -3 -7 -1 -7 1 -7 3 -7 3 -5z"/><circle cx="-.5" cy="5.5" r="1.5" fill-rule="evenodd" clip-rule="evenodd" fill="#fff"/><path d="M0,12c-6.6,0-12-5.4-12-12c0-6.6,5.4-12,12-12S12-6.6,12,0 C12,6.6,6.6,12,0,12z M0-10.5c-5.8,0-10.5,4.7-10.5,10.5S-5.8,10.5,0,10.5S10.5,5.8,10.5,0S5.8-10.5,0-10.5z" fill-rule="evenodd" clip-rule="evenodd" fill="#fff"/></symbol><use xlink:href="#a" width="32" height="32" x="-16" y="-16" transform="matrix(1 0 0 -1 16 16)" overflow="visible"/></svg>