<svg xmlns="http://www.w3.org/2000/svg" xmlns:xlink="http://www.w3.org/1999/xlink" viewBox="0 0 32 32"><symbol id="a" viewBox="-17.6 -16 32 32"><path fill="none" d="M-17.6 -16H14.399999999999999V16H-17.6z"/><path fill="#fff" d="M6.6 -1L6.6 -8 -4.4 -8 -6.4 -8 -9.4 -8 -9.4 -5 -9.4 -3 -9.4 8 1.6 8 3.6 8 4.6 8 6.6 10 3.6 10 1.6 10 -11.4 10 -11.4 -3 -11.4 -5 -11.4 -10 -6.4 -10 -4.4 -10 8.6 -10 8.6 1z"/><path fill="#fff" d="M11.4 8L10 9.4 -0.9 -1.6 -4.9 2.4 -6.3 1 -1 -4.4 -0.9 -4.4 -0.9 -4.4z"/></symbol><use xlink:href="#a" width="32" height="32" x="-17.6" y="-16" transform="matrix(1 0 0 -1 17.555 16)" overflow="visible"/></svg>