<svg version="1.1" xmlns="http://www.w3.org/2000/svg" x="0px" y="0px" viewBox="0 0 32 32" style="enable-background:new 0 0 32 32;" xml:space="preserve">
<style type="text/css">
	.st0{fill:#FFFFFF;}
</style>
<path class="st0" d="M21,13c-3.9,0-7,3.1-7,7s3.1,7,7,7s7-3.1,7-7S24.9,13,21,13z M21,25c-2.8,0-5-2.2-5-5s2.2-5,5-5s5,2.2,5,5
	S23.8,25,21,25z"/>
<path class="st0" d="M25,5H8v2h17V5z"/>
<path class="st0" d="M6,5H4v2h2V5z"/>
<path class="st0" d="M22,16h-2v5h2V16z"/>
<path class="st0" d="M25,10H8v2h17V10z"/>
<path class="st0" d="M6,10H4v2h2V10z"/>
<path class="st0" d="M6,15H4v2h2V15z"/>
<path class="st0" d="M6,20H4v2h2V20z"/>
<path class="st0" d="M24,19h-2v2h2V19z"/>
<path class="st0" d="M25,15.5V15h-0.7C24.6,15.2,24.8,15.3,25,15.5z"/>
<path class="st0" d="M17.7,15H8v2h7.8C16.3,16.2,16.9,15.5,17.7,15z"/>
<path class="st0" d="M15,20H8v2h7.3C15.1,21.4,15,20.7,15,20z"/>
</svg>
