<svg xmlns="http://www.w3.org/2000/svg" width="31" height="43"><path fill="#00910A" d="M28.373,0H2.627C1.208,0,0,1.206,0,2.622v37.756C0,41.848,1.208,43,2.627,43h25.746 C29.844,43,31,41.794,31,40.378V2.622C31,1.206,29.844,0,28.373,0L28.373,0z"/><linearGradient id="a" gradientUnits="userSpaceOnUse" x1="1398.297" y1="-1955.832" x2="1398.297" y2="-1915.821" gradientTransform="matrix(1 0 0 -1 -1382.8 -1914.3)"><stop offset="0" stop-color="#006609"/><stop offset="1" stop-color="#00910a"/></linearGradient><path fill="url(#a)" d="M27.426,1.521H3.514c-1.311,0-2.413,1.102-2.413,2.413v35.134c0,1.363,1.102,2.465,2.413,2.465 h23.912c1.363,0,2.465-1.102,2.465-2.465V3.933C29.838,2.622,28.736,1.521,27.426,1.521L27.426,1.521z"/><path fill="#00A000" d="M4.248,1.442c-1.73,0-3.146,1.311-3.146,2.989v23.44c0,0,2.925-12.55,6.765-17.646 c4.248-5.637,13.537-8.784,12.804-8.784L4.248,1.442L4.248,1.442z"/><path fill="#004402" d="M10.527,21.113c-0.604,0-1.146,0.302-1.447,0.784c-0.422,0.421-0.845,0.242-1.086,0.121 c-0.241-0.181-0.482-0.784,0.182-1.266l0,0c0.361-0.301,0.603-0.784,0.603-1.267c0-0.904-0.784-1.688-1.688-1.688 c-0.964,0-1.688,0.724-1.688,1.688c0,0.543,0.241,0.966,0.663,1.267l0,0c0.664,0.482,0.422,1.146,0.182,1.266 c-0.241,0.185-0.724,0.361-1.146-0.181c-0.302-0.422-0.845-0.724-1.448-0.724c-0.965,0-1.688,0.724-1.688,1.688 c0,0.967,0.784,1.689,1.688,1.689c0.543,0,1.025-0.24,1.327-0.664l0,0c0.543-0.662,1.507-0.301,1.507-0.301 c0,3.498-2.291,3.313-2.291,3.313v1.146H6.85h0.3h2.773V26.84c0,0-2.352,0.184-2.352-3.314c0,0,0.905-0.301,1.447,0.242 c0.302,0.422,0.845,0.724,1.387,0.724c0.966,0,1.688-0.724,1.688-1.689C12.095,21.836,11.492,21.113,10.527,21.113z"/><g><path fill="#FFF" d="M10.014,20.57c-0.603,0-1.146,0.302-1.447,0.785c-0.422,0.421-0.844,0.24-1.086,0.12 c-0.24-0.182-0.482-0.784,0.182-1.266l0,0c0.361-0.302,0.604-0.784,0.604-1.267c0-0.904-0.785-1.689-1.689-1.689 c-0.964,0-1.688,0.724-1.688,1.689c0,0.542,0.24,0.965,0.663,1.267l0,0c0.663,0.481,0.421,1.146,0.181,1.266 c-0.241,0.181-0.724,0.361-1.146-0.182c-0.302-0.422-0.845-0.724-1.448-0.724c-0.964,0-1.688,0.724-1.688,1.69 s0.784,1.688,1.688,1.688c0.543,0,1.025-0.24,1.327-0.664l0,0c0.543-0.662,1.507-0.301,1.507-0.301 c0,3.498-2.291,3.313-2.291,3.313v1.146h2.653h0.302h2.774v-1.146c0,0-2.352,0.185-2.352-3.313c0,0,0.904-0.301,1.446,0.242 c0.302,0.422,0.845,0.723,1.388,0.723c0.965,0,1.688-0.723,1.688-1.688C11.583,21.293,10.979,20.57,10.014,20.57z"/></g><g><path fill="#004402" d="M3.937,14.864V13.55l3.242-3.476c0.468-0.537,0.801-0.99,0.998-1.359 c0.197-0.37,0.296-0.712,0.296-1.029c0-0.422-0.114-0.767-0.341-1.036s-0.55-0.403-0.967-0.403 c-0.463,0-0.815,0.157-1.057,0.472C5.868,7.033,5.747,7.451,5.747,7.974H3.792L3.779,7.933C3.756,7.029,4.053,6.264,4.67,5.638 c0.617-0.626,1.449-0.939,2.495-0.939c1.033,0,1.845,0.268,2.437,0.805c0.592,0.537,0.888,1.252,0.888,2.147 c0,0.605-0.167,1.166-0.499,1.679c-0.333,0.514-0.885,1.184-1.655,2.01l-1.783,1.948l0.014,0.034h2.602l0.083-0.991h1.528v2.533 H3.937z"/><path fill="#FFF" d="M3.014,14.256v-1.314l3.242-3.476c0.468-0.537,0.801-0.99,0.998-1.359 C7.451,7.736,7.55,7.394,7.55,7.077c0-0.422-0.114-0.767-0.341-1.036s-0.55-0.403-0.967-0.403c-0.463,0-0.815,0.157-1.057,0.472 C4.944,6.424,4.824,6.843,4.824,7.366H2.869L2.855,7.325C2.833,6.421,3.129,5.655,3.747,5.029 C4.364,4.403,5.196,4.09,6.242,4.09c1.033,0,1.845,0.268,2.437,0.805c0.592,0.537,0.888,1.252,0.888,2.147 c0,0.605-0.167,1.166-0.499,1.679c-0.333,0.514-0.885,1.184-1.655,2.01L5.629,12.68l0.014,0.034h2.602l0.083-0.991h1.528v2.533 H3.014z"/></g><g><path fill="#004402" d="M16.96,39.688v-2.013l4.962-5.32c0.717-0.821,1.227-1.516,1.527-2.081 c0.303-0.565,0.453-1.09,0.453-1.575c0-0.646-0.174-1.175-0.521-1.585c-0.348-0.411-0.84-0.616-1.48-0.616 c-0.709,0-1.248,0.24-1.617,0.722c-0.367,0.48-0.553,1.122-0.553,1.922h-2.992l-0.021-0.063 c-0.035-1.384,0.419-2.556,1.364-3.514c0.945-0.959,2.219-1.438,3.818-1.438c1.582,0,2.824,0.411,3.73,1.232 c0.906,0.822,1.359,1.918,1.359,3.287c0,0.928-0.254,1.784-0.764,2.571c-0.51,0.786-1.354,1.813-2.533,3.076l-2.73,2.981 l0.021,0.053h3.982l0.127-1.517h2.34v3.877H16.96z"/><path fill="#FFF" d="M16.126,39.063V37.05l4.962-5.32c0.717-0.821,1.227-1.516,1.527-2.081 c0.303-0.565,0.453-1.09,0.453-1.575c0-0.646-0.174-1.175-0.521-1.585c-0.348-0.411-0.84-0.616-1.48-0.616 c-0.709,0-1.248,0.24-1.617,0.722c-0.367,0.48-0.553,1.122-0.553,1.922h-2.992l-0.021-0.063 c-0.035-1.384,0.419-2.556,1.364-3.514c0.945-0.959,2.219-1.438,3.818-1.438c1.582,0,2.824,0.411,3.73,1.232 c0.906,0.822,1.359,1.918,1.359,3.287c0,0.928-0.254,1.784-0.764,2.571c-0.51,0.786-1.354,1.813-2.533,3.076l-2.73,2.981 l0.021,0.053h3.982l0.127-1.517h2.34v3.877H16.126z"/></g></svg>