<svg xmlns="http://www.w3.org/2000/svg" width="31" height="43"><path fill="#00910A" d="M28.373,0H2.627C1.208,0,0,1.206,0,2.622v37.756C0,41.848,1.208,43,2.627,43h25.746 C29.844,43,31,41.794,31,40.378V2.622C31,1.206,29.844,0,28.373,0L28.373,0z"/><linearGradient id="a" gradientUnits="userSpaceOnUse" x1="1398.297" y1="-1955.832" x2="1398.297" y2="-1915.821" gradientTransform="matrix(1 0 0 -1 -1382.8 -1914.3)"><stop offset="0" stop-color="#006609"/><stop offset="1" stop-color="#00910a"/></linearGradient><path fill="url(#a)" d="M27.426,1.521H3.514c-1.311,0-2.413,1.102-2.413,2.413v35.134c0,1.363,1.102,2.465,2.413,2.465 h23.912c1.363,0,2.465-1.102,2.465-2.465V3.933C29.838,2.622,28.736,1.521,27.426,1.521L27.426,1.521z"/><path fill="#00A000" d="M4.248,1.442c-1.73,0-3.146,1.311-3.146,2.989v23.44c0,0,2.925-12.55,6.765-17.646 c4.248-5.637,13.537-8.784,12.804-8.784L4.248,1.442L4.248,1.442z"/><path fill="#004402" d="M10.527,21.113c-0.604,0-1.146,0.302-1.447,0.784c-0.422,0.421-0.845,0.242-1.086,0.121 c-0.241-0.181-0.482-0.784,0.182-1.266l0,0c0.361-0.301,0.603-0.784,0.603-1.267c0-0.904-0.784-1.688-1.688-1.688 c-0.964,0-1.688,0.724-1.688,1.688c0,0.543,0.241,0.966,0.663,1.267l0,0c0.664,0.482,0.422,1.146,0.182,1.266 c-0.241,0.185-0.724,0.361-1.146-0.181c-0.302-0.422-0.845-0.724-1.448-0.724c-0.965,0-1.688,0.724-1.688,1.688 c0,0.967,0.784,1.689,1.688,1.689c0.543,0,1.025-0.24,1.327-0.664l0,0c0.543-0.662,1.507-0.301,1.507-0.301 c0,3.498-2.291,3.313-2.291,3.313v1.146H6.85h0.3h2.773V26.84c0,0-2.352,0.184-2.352-3.314c0,0,0.905-0.301,1.447,0.242 c0.302,0.422,0.845,0.724,1.387,0.724c0.966,0,1.688-0.724,1.688-1.689C12.095,21.836,11.492,21.113,10.527,21.113z"/><g><path fill="#FFF" d="M10.014,20.57c-0.603,0-1.146,0.302-1.447,0.785c-0.422,0.421-0.844,0.24-1.086,0.12 c-0.24-0.182-0.482-0.784,0.182-1.266l0,0c0.361-0.302,0.604-0.784,0.604-1.267c0-0.904-0.785-1.689-1.689-1.689 c-0.964,0-1.688,0.724-1.688,1.689c0,0.542,0.24,0.965,0.663,1.267l0,0c0.663,0.481,0.421,1.146,0.181,1.266 c-0.241,0.181-0.724,0.361-1.146-0.182c-0.302-0.422-0.845-0.724-1.448-0.724c-0.964,0-1.688,0.724-1.688,1.69 s0.784,1.688,1.688,1.688c0.543,0,1.025-0.24,1.327-0.664l0,0c0.543-0.662,1.507-0.301,1.507-0.301 c0,3.498-2.291,3.313-2.291,3.313v1.146h2.653h0.302h2.774v-1.146c0,0-2.352,0.185-2.352-3.313c0,0,0.904-0.301,1.446,0.242 c0.302,0.422,0.845,0.723,1.388,0.723c0.965,0,1.688-0.723,1.688-1.688C11.583,21.293,10.979,20.57,10.014,20.57z"/></g><g><path fill="#004402" d="M6.126,9h1.129c0.477,0,0.83-0.125,1.06-0.375c0.229-0.25,0.344-0.598,0.344-1.043 c0-0.404-0.115-0.727-0.344-0.971C8.085,6.368,7.752,6.247,7.316,6.247c-0.376,0-0.693,0.11-0.95,0.331S5.981,7.086,5.981,7.444 H4.033L4.02,7.403C3.992,6.618,4.292,5.971,4.921,5.462C5.55,4.953,6.33,4.698,7.262,4.698c1.037,0,1.864,0.248,2.481,0.743 s0.926,1.202,0.926,2.12c0,0.436-0.137,0.85-0.413,1.242C9.98,9.196,9.602,9.502,9.12,9.723c0.555,0.197,0.979,0.5,1.27,0.909 c0.291,0.408,0.437,0.883,0.437,1.425c0,0.917-0.334,1.639-1.001,2.165c-0.668,0.525-1.522,0.788-2.564,0.788 c-0.932,0-1.731-0.247-2.399-0.74s-0.99-1.19-0.967-2.089l0.014-0.041h1.948c0,0.385,0.138,0.703,0.413,0.953 s0.624,0.375,1.046,0.375c0.464,0,0.83-0.128,1.098-0.385s0.402-0.605,0.402-1.046c0-0.527-0.132-0.914-0.396-1.16 c-0.264-0.246-0.653-0.368-1.167-0.368H6.126V9z"/><path fill="#FFF" d="M5.203,8.392h1.129c0.477,0,0.83-0.125,1.06-0.375c0.229-0.25,0.344-0.598,0.344-1.043 c0-0.404-0.115-0.727-0.344-0.971C7.162,5.76,6.829,5.638,6.393,5.638c-0.376,0-0.693,0.11-0.95,0.331S5.058,6.478,5.058,6.836 H3.11L3.096,6.794C3.069,6.01,3.369,5.363,3.998,4.854C4.626,4.344,5.407,4.09,6.338,4.09c1.037,0,1.864,0.248,2.481,0.743 s0.926,1.202,0.926,2.12c0,0.436-0.137,0.85-0.413,1.242C9.057,8.588,8.678,8.894,8.197,9.114c0.555,0.197,0.979,0.5,1.27,0.909 c0.291,0.408,0.437,0.883,0.437,1.425c0,0.917-0.334,1.639-1.001,2.165C8.234,14.138,7.38,14.4,6.338,14.4 c-0.932,0-1.731-0.247-2.399-0.74s-0.99-1.19-0.967-2.089l0.014-0.041h1.948c0,0.385,0.138,0.703,0.413,0.953 s0.624,0.375,1.046,0.375c0.464,0,0.83-0.128,1.098-0.385s0.402-0.605,0.402-1.046c0-0.527-0.132-0.914-0.396-1.16 c-0.264-0.246-0.653-0.368-1.167-0.368H5.203V8.392z"/></g><g><path fill="#004402" d="M20.311,30.711h1.729c0.73,0,1.271-0.191,1.621-0.574c0.352-0.383,0.527-0.915,0.527-1.596 c0-0.618-0.176-1.113-0.527-1.486c-0.35-0.372-0.859-0.558-1.527-0.558c-0.576,0-1.061,0.168-1.453,0.505 c-0.395,0.338-0.59,0.78-0.59,1.328h-2.982l-0.021-0.063c-0.041-1.201,0.418-2.191,1.381-2.971 c0.963-0.78,2.156-1.17,3.582-1.17c1.588,0,2.854,0.379,3.799,1.138c0.943,0.759,1.416,1.841,1.416,3.245 c0,0.668-0.211,1.302-0.631,1.902c-0.422,0.6-1.002,1.069-1.738,1.406c0.85,0.302,1.496,0.766,1.943,1.391 c0.445,0.625,0.668,1.353,0.668,2.181c0,1.405-0.51,2.51-1.533,3.313c-1.021,0.805-2.33,1.207-3.924,1.207 c-1.426,0-2.65-0.378-3.672-1.133s-1.516-1.821-1.48-3.198l0.021-0.063H19.9c0,0.59,0.211,1.076,0.631,1.459 c0.422,0.383,0.955,0.574,1.602,0.574c0.709,0,1.27-0.196,1.682-0.59c0.41-0.394,0.615-0.928,0.615-1.602 c0-0.808-0.201-1.399-0.605-1.775s-1-0.563-1.785-0.563h-1.729V30.711z"/><path fill="#FFF" d="M19.477,30.086h1.729c0.73,0,1.271-0.191,1.621-0.574c0.352-0.383,0.527-0.915,0.527-1.596 c0-0.618-0.176-1.113-0.527-1.486c-0.35-0.372-0.859-0.558-1.527-0.558c-0.576,0-1.061,0.168-1.453,0.505 c-0.395,0.338-0.59,0.78-0.59,1.328h-2.982l-0.021-0.063c-0.041-1.201,0.418-2.191,1.381-2.971 c0.963-0.78,2.156-1.17,3.582-1.17c1.588,0,2.854,0.379,3.799,1.138c0.943,0.759,1.416,1.841,1.416,3.245 c0,0.668-0.211,1.302-0.631,1.902c-0.422,0.6-1.002,1.069-1.738,1.406c0.85,0.302,1.496,0.766,1.943,1.391 c0.445,0.625,0.668,1.353,0.668,2.181c0,1.405-0.51,2.51-1.533,3.313c-1.021,0.805-2.33,1.207-3.924,1.207 c-1.426,0-2.65-0.378-3.672-1.133s-1.516-1.821-1.48-3.198l0.021-0.063h2.982c0,0.59,0.211,1.076,0.631,1.459 c0.422,0.383,0.955,0.574,1.602,0.574c0.709,0,1.27-0.196,1.682-0.59c0.41-0.394,0.615-0.928,0.615-1.602 c0-0.808-0.201-1.399-0.605-1.775s-1-0.563-1.785-0.563h-1.729V30.086z"/></g></svg>