<svg xmlns="http://www.w3.org/2000/svg" width="31" height="43"><path fill="#00910A" d="M28.373,0H2.627C1.208,0,0,1.206,0,2.622v37.756C0,41.848,1.208,43,2.627,43h25.746 C29.844,43,31,41.794,31,40.378V2.622C31,1.206,29.844,0,28.373,0L28.373,0z"/><linearGradient id="a" gradientUnits="userSpaceOnUse" x1="1398.297" y1="-1955.832" x2="1398.297" y2="-1915.821" gradientTransform="matrix(1 0 0 -1 -1382.8 -1914.3)"><stop offset="0" stop-color="#006609"/><stop offset="1" stop-color="#00910a"/></linearGradient><path fill="url(#a)" d="M27.426,1.521H3.514c-1.311,0-2.413,1.102-2.413,2.413v35.134c0,1.363,1.102,2.465,2.413,2.465 h23.912c1.363,0,2.465-1.102,2.465-2.465V3.933C29.838,2.622,28.736,1.521,27.426,1.521L27.426,1.521z"/><path fill="#00A000" d="M4.248,1.442c-1.73,0-3.146,1.311-3.146,2.989v23.44c0,0,2.925-12.55,6.765-17.646 c4.248-5.637,13.537-8.784,12.804-8.784L4.248,1.442L4.248,1.442z"/><path fill="#004402" d="M10.527,21.113c-0.604,0-1.146,0.302-1.447,0.783c-0.422,0.422-0.845,0.242-1.086,0.121 c-0.241-0.181-0.482-0.783,0.182-1.266l0,0c0.361-0.301,0.603-0.784,0.603-1.267c0-0.904-0.784-1.688-1.688-1.688 c-0.964,0-1.688,0.724-1.688,1.688c0,0.543,0.241,0.966,0.663,1.267l0,0c0.664,0.482,0.422,1.146,0.182,1.266 c-0.241,0.185-0.724,0.361-1.146-0.181c-0.302-0.422-0.845-0.724-1.448-0.724c-0.965,0-1.688,0.724-1.688,1.688 c0,0.967,0.784,1.689,1.688,1.689c0.543,0,1.025-0.24,1.327-0.664l0,0c0.543-0.662,1.507-0.301,1.507-0.301 c0,3.498-2.291,3.313-2.291,3.313v1.146H6.85h0.3h2.773V26.84c0,0-2.352,0.184-2.352-3.314c0,0,0.905-0.301,1.447,0.242 c0.302,0.422,0.845,0.724,1.387,0.724c0.966,0,1.688-0.724,1.688-1.689C12.095,21.836,11.492,21.113,10.527,21.113z"/><g><path fill="#FFF" d="M10.014,20.57c-0.603,0-1.146,0.302-1.447,0.786c-0.422,0.42-0.844,0.24-1.086,0.119 c-0.24-0.182-0.482-0.784,0.182-1.266l0,0c0.361-0.302,0.604-0.784,0.604-1.267c0-0.904-0.785-1.689-1.689-1.689 c-0.964,0-1.688,0.724-1.688,1.689c0,0.542,0.24,0.965,0.663,1.267l0,0c0.663,0.481,0.421,1.146,0.181,1.266 c-0.241,0.182-0.724,0.361-1.146-0.182c-0.302-0.422-0.845-0.724-1.448-0.724c-0.964,0-1.688,0.724-1.688,1.69 s0.784,1.688,1.688,1.688c0.543,0,1.025-0.24,1.327-0.664l0,0c0.543-0.662,1.507-0.301,1.507-0.301 c0,3.498-2.291,3.313-2.291,3.313v1.146h2.653h0.302h2.774v-1.146c0,0-2.352,0.185-2.352-3.313c0,0,0.904-0.301,1.446,0.242 c0.302,0.422,0.845,0.723,1.388,0.723c0.965,0,1.688-0.723,1.688-1.688C11.583,21.293,10.979,20.57,10.014,20.57z"/></g><g><path fill="#004402" d="M9.794,11.134h1.136v1.335H9.794v0.984l1.067,0.207v1.205H6.718V13.66l1.074-0.207v-0.984H3.703 l-0.097-0.984l4.165-6.642h2.023V11.134z M5.486,11.134h2.306V7.52L7.75,7.506L7.585,7.795L5.486,11.134z"/><path fill="#FFF" d="M8.871,10.525h1.136v1.335H8.871v0.984l1.067,0.207v1.205H5.794v-1.205l1.074-0.207V11.86H2.78 l-0.097-0.984l4.165-6.642h2.023V10.525z M4.563,10.525h2.306V6.912L6.827,6.898L6.662,7.187L4.563,10.525z"/></g><g><path fill="#004402" d="M25.926,33.978h1.739v2.044h-1.739v1.506l1.634,0.316v1.844h-6.343v-1.844l1.644-0.316v-1.506h-6.259 l-0.146-1.507l6.374-10.167h3.097V33.978z M19.331,33.978h3.529v-5.532l-0.063-0.021l-0.253,0.442L19.331,33.978z"/><path fill="#FFF" d="M25.092,33.353h1.739v2.044h-1.739v1.506l1.634,0.316v1.844h-6.343v-1.844l1.644-0.316v-1.506h-6.259 l-0.146-1.507l6.374-10.167h3.097V33.353z M18.497,33.353h3.529V27.82L21.963,27.8l-0.253,0.442L18.497,33.353z"/></g></svg>