<svg xmlns="http://www.w3.org/2000/svg" width="31" height="43"><path fill="#00910A" d="M28.373,0H2.627C1.208,0,0,1.206,0,2.622v37.756C0,41.848,1.208,43,2.627,43h25.746 C29.844,43,31,41.794,31,40.378V2.622C31,1.206,29.844,0,28.373,0L28.373,0z"/><linearGradient id="a" gradientUnits="userSpaceOnUse" x1="1398.297" y1="-1955.832" x2="1398.297" y2="-1915.821" gradientTransform="matrix(1 0 0 -1 -1382.8 -1914.3)"><stop offset="0" stop-color="#006609"/><stop offset="1" stop-color="#00910a"/></linearGradient><path fill="url(#a)" d="M27.426,1.521H3.514c-1.311,0-2.413,1.102-2.413,2.413v35.134c0,1.363,1.102,2.465,2.413,2.465 h23.912c1.363,0,2.465-1.102,2.465-2.465V3.933C29.838,2.622,28.736,1.521,27.426,1.521L27.426,1.521z"/><path fill="#00A000" d="M4.248,1.442c-1.73,0-3.146,1.311-3.146,2.989v23.44c0,0,2.925-12.55,6.765-17.646 c4.248-5.637,13.537-8.784,12.804-8.784L4.248,1.442L4.248,1.442z"/><path fill="#004402" d="M10.527,21.113c-0.604,0-1.146,0.302-1.447,0.784c-0.422,0.421-0.846,0.242-1.086,0.121 c-0.241-0.181-0.482-0.784,0.182-1.266l0,0c0.361-0.301,0.604-0.784,0.604-1.267c0-0.904-0.784-1.688-1.688-1.688 c-0.964,0-1.688,0.724-1.688,1.688c0,0.543,0.241,0.966,0.663,1.267l0,0c0.664,0.482,0.422,1.146,0.182,1.266 c-0.241,0.185-0.724,0.361-1.146-0.181c-0.302-0.422-0.845-0.724-1.448-0.724c-0.965,0-1.688,0.724-1.688,1.688 c0,0.967,0.784,1.689,1.688,1.689c0.543,0,1.025-0.24,1.327-0.664l0,0c0.543-0.662,1.507-0.301,1.507-0.301 c0,3.498-2.291,3.313-2.291,3.313v1.146H6.85h0.3h2.773V26.84c0,0-2.352,0.184-2.352-3.314c0,0,0.906-0.301,1.447,0.242 c0.303,0.422,0.846,0.724,1.387,0.724c0.967,0,1.688-0.724,1.688-1.689C12.096,21.836,11.492,21.113,10.527,21.113z"/><g><path fill="#FFF" d="M10.014,20.57c-0.603,0-1.146,0.302-1.447,0.785c-0.422,0.421-0.843,0.24-1.085,0.12 c-0.24-0.182-0.482-0.784,0.182-1.266l0,0c0.36-0.302,0.604-0.784,0.604-1.267c0-0.904-0.786-1.689-1.689-1.689 c-0.964,0-1.688,0.724-1.688,1.689c0,0.542,0.24,0.965,0.663,1.267l0,0c0.663,0.481,0.421,1.146,0.181,1.266 c-0.241,0.181-0.724,0.361-1.146-0.182c-0.302-0.422-0.845-0.724-1.448-0.724c-0.964,0-1.688,0.724-1.688,1.69 s0.784,1.688,1.688,1.688c0.543,0,1.025-0.24,1.327-0.664l0,0c0.543-0.662,1.507-0.301,1.507-0.301 c0,3.498-2.291,3.313-2.291,3.313v1.146h2.653h0.302h2.774v-1.146c0,0-2.352,0.185-2.352-3.313c0,0,0.904-0.301,1.446,0.242 c0.303,0.422,0.846,0.723,1.389,0.723c0.965,0,1.688-0.723,1.688-1.688C11.583,21.293,10.979,20.57,10.014,20.57z"/></g><g><path fill="#004402" d="M10.941,6.391c-1.074,1.257-1.807,2.43-2.199,3.518c-0.392,1.087-0.673,2.4-0.843,3.937l-0.096,1.019 h-2.01l0.096-1.019c0.156-1.473,0.491-2.826,1.005-4.058c0.514-1.232,1.218-2.364,2.113-3.397H5.476L5.4,7.382H3.858v-2.54 h7.083V6.391z"/><path fill="#FFF" d="M10.018,5.783C8.944,7.04,8.211,8.212,7.818,9.3c-0.392,1.087-0.673,2.4-0.843,3.937l-0.096,1.019h-2.01 l0.096-1.019c0.156-1.473,0.491-2.826,1.005-4.058c0.514-1.232,1.218-2.364,2.113-3.397H4.552L4.477,6.774H2.935v-2.54h7.083 V5.783z"/></g><g><path fill="#004402" d="M27.68,26.718c-1.643,1.925-2.766,3.719-3.365,5.384c-0.602,1.665-1.031,3.674-1.291,6.026l-0.146,1.56 h-3.078l0.148-1.56c0.238-2.255,0.752-4.325,1.537-6.211c0.787-1.886,1.865-3.619,3.236-5.199h-5.406l-0.115,1.518h-2.36v-3.888 H27.68V26.718z"/><path fill="#FFF" d="M26.846,26.093c-1.643,1.925-2.766,3.719-3.365,5.384c-0.602,1.665-1.031,3.674-1.291,6.026l-0.146,1.56 h-3.078l0.148-1.56c0.238-2.255,0.752-4.325,1.537-6.211c0.787-1.886,1.865-3.619,3.236-5.199H18.48l-0.115,1.518h-2.36v-3.888 h10.841V26.093z"/></g></svg>