<svg xmlns="http://www.w3.org/2000/svg" width="31" height="43"><path fill="#00910A" d="M28.373,0H2.627C1.208,0,0,1.206,0,2.622v37.756C0,41.848,1.208,43,2.627,43h25.746 C29.844,43,31,41.794,31,40.378V2.622C31,1.206,29.844,0,28.373,0L28.373,0z"/><linearGradient id="a" gradientUnits="userSpaceOnUse" x1="1398.297" y1="-1955.832" x2="1398.297" y2="-1915.821" gradientTransform="matrix(1 0 0 -1 -1382.8 -1914.3)"><stop offset="0" stop-color="#006609"/><stop offset="1" stop-color="#00910a"/></linearGradient><path fill="url(#a)" d="M27.426,1.521H3.514c-1.311,0-2.413,1.102-2.413,2.413v35.134c0,1.363,1.102,2.465,2.413,2.465 h23.912c1.363,0,2.465-1.102,2.465-2.465V3.933C29.838,2.622,28.736,1.521,27.426,1.521L27.426,1.521z"/><path fill="#00A000" d="M4.248,1.442c-1.73,0-3.146,1.311-3.146,2.989v23.44c0,0,2.925-12.55,6.765-17.646 c4.248-5.637,13.537-8.784,12.804-8.784L4.248,1.442L4.248,1.442z"/><path fill="#004402" d="M10.527,21.113c-0.604,0-1.146,0.302-1.447,0.784c-0.422,0.421-0.845,0.242-1.086,0.121 c-0.241-0.181-0.482-0.784,0.182-1.266l0,0c0.361-0.301,0.603-0.784,0.603-1.267c0-0.904-0.784-1.688-1.688-1.688 c-0.964,0-1.688,0.724-1.688,1.688c0,0.543,0.241,0.966,0.663,1.267l0,0c0.664,0.482,0.422,1.146,0.182,1.266 c-0.241,0.185-0.724,0.361-1.146-0.181c-0.302-0.422-0.845-0.724-1.448-0.724c-0.965,0-1.688,0.724-1.688,1.688 c0,0.967,0.784,1.689,1.688,1.689c0.543,0,1.025-0.24,1.327-0.664l0,0c0.543-0.662,1.507-0.301,1.507-0.301 c0,3.498-2.291,3.313-2.291,3.313v1.146H6.85h0.3h2.773V26.84c0,0-2.352,0.184-2.352-3.314c0,0,0.905-0.301,1.447,0.242 c0.302,0.422,0.845,0.724,1.387,0.724c0.966,0,1.688-0.724,1.688-1.689C12.095,21.836,11.492,21.113,10.527,21.113z"/><g><path fill="#FFF" d="M10.014,20.57c-0.603,0-1.146,0.302-1.447,0.785c-0.422,0.421-0.844,0.24-1.086,0.12 c-0.24-0.182-0.482-0.784,0.182-1.266l0,0c0.361-0.302,0.604-0.784,0.604-1.267c0-0.904-0.785-1.689-1.689-1.689 c-0.964,0-1.688,0.724-1.688,1.689c0,0.542,0.24,0.965,0.663,1.267l0,0c0.663,0.481,0.421,1.146,0.181,1.266 c-0.241,0.181-0.724,0.361-1.146-0.182c-0.302-0.422-0.845-0.724-1.448-0.724c-0.964,0-1.688,0.724-1.688,1.69 s0.784,1.688,1.688,1.688c0.543,0,1.025-0.24,1.327-0.664l0,0c0.543-0.662,1.507-0.301,1.507-0.301 c0,3.498-2.291,3.313-2.291,3.313v1.146h2.653h0.302h2.774v-1.146c0,0-2.352,0.185-2.352-3.313c0,0,0.904-0.301,1.446,0.242 c0.302,0.422,0.845,0.723,1.388,0.723c0.965,0,1.688-0.723,1.688-1.688C11.583,21.293,10.979,20.57,10.014,20.57z"/></g><g><path fill="#004402" d="M10.555,7.5c0,0.5-0.133,0.943-0.399,1.328C9.89,9.213,9.525,9.514,9.062,9.729 c0.532,0.225,0.952,0.546,1.26,0.964c0.307,0.417,0.461,0.895,0.461,1.432c0,0.927-0.314,1.639-0.943,2.137 c-0.629,0.498-1.45,0.747-2.464,0.747c-1.019,0-1.843-0.249-2.474-0.747c-0.631-0.498-0.947-1.21-0.947-2.137 c0-0.542,0.153-1.02,0.458-1.436c0.305-0.415,0.724-0.735,1.256-0.96C5.2,9.514,4.835,9.213,4.574,8.828 C4.312,8.442,4.182,8,4.182,7.5c0-0.89,0.291-1.58,0.874-2.068c0.583-0.489,1.351-0.733,2.306-0.733s1.726,0.244,2.313,0.733 C10.261,5.92,10.555,6.609,10.555,7.5z M8.779,11.987c0-0.45-0.132-0.81-0.396-1.081C8.12,10.636,7.779,10.5,7.361,10.5 s-0.755,0.135-1.012,0.406c-0.257,0.271-0.385,0.631-0.385,1.081c0,0.459,0.128,0.82,0.385,1.084s0.599,0.396,1.025,0.396 c0.417,0,0.756-0.133,1.016-0.399C8.649,12.802,8.779,12.441,8.779,11.987z M8.545,7.589c0-0.404-0.107-0.729-0.32-0.974 C8.012,6.37,7.724,6.247,7.361,6.247c-0.367,0-0.653,0.121-0.857,0.361C6.3,6.849,6.198,7.176,6.198,7.589 c0,0.417,0.103,0.749,0.31,0.995s0.496,0.368,0.867,0.368c0.363,0,0.648-0.123,0.857-0.368C8.441,8.338,8.545,8.006,8.545,7.589 z"/><path fill="#FFF" d="M9.632,6.891c0,0.5-0.133,0.943-0.399,1.328C8.966,8.605,8.602,8.905,8.138,9.121 c0.532,0.225,0.952,0.546,1.26,0.964c0.307,0.417,0.461,0.895,0.461,1.432c0,0.927-0.314,1.639-0.943,2.137 C8.287,14.151,7.466,14.4,6.452,14.4c-1.019,0-1.843-0.249-2.474-0.747c-0.631-0.498-0.947-1.21-0.947-2.137 c0-0.542,0.153-1.02,0.458-1.436c0.305-0.415,0.724-0.735,1.256-0.96C4.277,8.905,3.912,8.605,3.65,8.219 C3.389,7.834,3.258,7.391,3.258,6.891c0-0.89,0.291-1.58,0.874-2.068C4.715,4.334,5.483,4.09,6.438,4.09 s1.726,0.244,2.313,0.733C9.338,5.312,9.632,6.001,9.632,6.891z M7.856,11.379c0-0.45-0.132-0.81-0.396-1.081 c-0.264-0.271-0.605-0.406-1.022-0.406s-0.755,0.135-1.012,0.406c-0.257,0.271-0.385,0.631-0.385,1.081 c0,0.459,0.128,0.82,0.385,1.084s0.599,0.396,1.025,0.396c0.417,0,0.756-0.133,1.016-0.399 C7.726,12.193,7.856,11.833,7.856,11.379z M7.622,6.98c0-0.404-0.107-0.729-0.32-0.974C7.088,5.761,6.8,5.638,6.438,5.638 C6.071,5.638,5.785,5.759,5.581,6C5.377,6.241,5.275,6.567,5.275,6.98c0,0.417,0.103,0.749,0.31,0.995S6.08,8.343,6.452,8.343 c0.363,0,0.648-0.123,0.857-0.368C7.518,7.729,7.622,7.398,7.622,6.98z"/></g><g><path fill="#004402" d="M27.09,28.414c0,0.766-0.203,1.443-0.611,2.033c-0.406,0.59-0.965,1.051-1.674,1.381 c0.814,0.344,1.457,0.836,1.928,1.475c0.471,0.64,0.705,1.37,0.705,2.191c0,1.419-0.48,2.51-1.443,3.271 c-0.961,0.762-2.219,1.144-3.771,1.144c-1.559,0-2.822-0.382-3.787-1.144c-0.967-0.762-1.449-1.853-1.449-3.271 c0-0.829,0.234-1.561,0.701-2.196s1.107-1.126,1.922-1.47c-0.715-0.33-1.273-0.791-1.674-1.381s-0.602-1.268-0.602-2.033 c0-1.362,0.447-2.418,1.338-3.166c0.893-0.748,2.068-1.122,3.529-1.122s2.643,0.374,3.541,1.122S27.09,27.052,27.09,28.414z M24.373,35.283c0-0.688-0.203-1.239-0.607-1.654c-0.402-0.414-0.924-0.621-1.564-0.621c-0.639,0-1.154,0.207-1.549,0.621 c-0.393,0.415-0.59,0.967-0.59,1.654c0,0.703,0.197,1.256,0.59,1.66c0.395,0.403,0.918,0.605,1.57,0.605 c0.639,0,1.158-0.204,1.555-0.611S24.373,35.979,24.373,35.283z M24.014,28.551c0-0.618-0.162-1.114-0.49-1.49 c-0.326-0.376-0.768-0.563-1.322-0.563c-0.561,0-0.998,0.184-1.311,0.553s-0.469,0.869-0.469,1.501 c0,0.64,0.158,1.147,0.473,1.522c0.316,0.376,0.76,0.563,1.328,0.563c0.555,0,0.992-0.188,1.313-0.563 C23.854,29.698,24.014,29.19,24.014,28.551z"/><path fill="#FFF" d="M26.256,27.789c0,0.766-0.203,1.443-0.611,2.033c-0.406,0.59-0.965,1.051-1.674,1.381 c0.814,0.344,1.457,0.836,1.928,1.475c0.471,0.64,0.705,1.37,0.705,2.191c0,1.419-0.48,2.51-1.443,3.271 c-0.961,0.762-2.219,1.144-3.771,1.144c-1.559,0-2.822-0.382-3.787-1.144c-0.967-0.762-1.449-1.853-1.449-3.271 c0-0.829,0.234-1.561,0.701-2.196s1.107-1.126,1.922-1.47c-0.715-0.33-1.273-0.791-1.674-1.381S16.5,28.555,16.5,27.789 c0-1.362,0.447-2.418,1.338-3.166c0.893-0.748,2.068-1.122,3.529-1.122s2.643,0.374,3.541,1.122S26.256,26.427,26.256,27.789z M23.539,34.658c0-0.688-0.203-1.239-0.607-1.654c-0.402-0.414-0.924-0.621-1.564-0.621c-0.639,0-1.154,0.207-1.549,0.621 c-0.393,0.415-0.59,0.967-0.59,1.654c0,0.703,0.197,1.256,0.59,1.66c0.395,0.403,0.918,0.605,1.57,0.605 c0.639,0,1.158-0.204,1.555-0.611S23.539,35.354,23.539,34.658z M23.18,27.926c0-0.618-0.162-1.114-0.49-1.49 c-0.326-0.376-0.768-0.563-1.322-0.563c-0.561,0-0.998,0.184-1.311,0.553s-0.469,0.869-0.469,1.501 c0,0.64,0.158,1.147,0.473,1.522c0.316,0.376,0.76,0.563,1.328,0.563c0.555,0,0.992-0.188,1.313-0.563 C23.02,29.073,23.18,28.565,23.18,27.926z"/></g></svg>