<svg xmlns="http://www.w3.org/2000/svg" width="31" height="43"><path fill="#00910A" d="M28.373,0H2.627C1.208,0,0,1.206,0,2.622v37.756C0,41.848,1.208,43,2.627,43h25.746 C29.844,43,31,41.794,31,40.378V2.622C31,1.206,29.844,0,28.373,0L28.373,0z"/><linearGradient id="a" gradientUnits="userSpaceOnUse" x1="1398.297" y1="-1955.832" x2="1398.297" y2="-1915.821" gradientTransform="matrix(1 0 0 -1 -1382.8 -1914.3)"><stop offset="0" stop-color="#006609"/><stop offset="1" stop-color="#00910a"/></linearGradient><path fill="url(#a)" d="M27.426,1.521H3.514c-1.311,0-2.412,1.102-2.412,2.413v35.134c0,1.363,1.102,2.465,2.412,2.465 h23.912c1.363,0,2.465-1.102,2.465-2.465V3.933C29.838,2.622,28.736,1.521,27.426,1.521L27.426,1.521z"/><path fill="#00A000" d="M4.248,1.442c-1.73,0-3.146,1.311-3.146,2.989v23.44c0,0,2.926-12.55,6.766-17.646 c4.248-5.637,13.537-8.784,12.804-8.784L4.248,1.442L4.248,1.442z"/><path fill="#004402" d="M10.527,21.113c-0.604,0-1.146,0.302-1.447,0.784c-0.422,0.421-0.846,0.242-1.086,0.121 c-0.241-0.181-0.482-0.784,0.182-1.266l0,0c0.361-0.301,0.604-0.784,0.604-1.267c0-0.904-0.784-1.688-1.688-1.688 c-0.964,0-1.688,0.724-1.688,1.688c0,0.543,0.242,0.966,0.664,1.267l0,0c0.664,0.482,0.422,1.146,0.182,1.266 c-0.241,0.185-0.725,0.361-1.146-0.181c-0.302-0.422-0.845-0.724-1.447-0.724c-0.965,0-1.688,0.724-1.688,1.688 c0,0.967,0.784,1.689,1.688,1.689c0.543,0,1.025-0.24,1.326-0.664l0,0c0.543-0.662,1.508-0.301,1.508-0.301 c0,3.498-2.291,3.313-2.291,3.313v1.146H6.85H7.15h2.772V26.84c0,0-2.353,0.184-2.353-3.314c0,0,0.906-0.301,1.447,0.242 c0.303,0.422,0.846,0.724,1.387,0.724c0.967,0,1.688-0.724,1.688-1.689C12.096,21.836,11.492,21.113,10.527,21.113z"/><g><path fill="#FFF" d="M10.014,20.57c-0.603,0-1.146,0.302-1.447,0.785c-0.422,0.421-0.844,0.24-1.086,0.12 c-0.239-0.182-0.481-0.784,0.183-1.266l0,0c0.36-0.302,0.604-0.784,0.604-1.267c0-0.904-0.785-1.689-1.689-1.689 c-0.964,0-1.688,0.724-1.688,1.689c0,0.542,0.239,0.965,0.662,1.267l0,0c0.663,0.481,0.422,1.146,0.182,1.266 c-0.241,0.181-0.725,0.361-1.146-0.182c-0.302-0.422-0.845-0.724-1.447-0.724c-0.965,0-1.688,0.724-1.688,1.69 s0.784,1.688,1.688,1.688c0.543,0,1.024-0.24,1.326-0.664l0,0c0.543-0.662,1.508-0.301,1.508-0.301 c0,3.498-2.291,3.313-2.291,3.313v1.146h2.652h0.303h2.773v-1.146c0,0-2.352,0.185-2.352-3.313c0,0,0.903-0.301,1.445,0.242 c0.303,0.422,0.846,0.723,1.389,0.723c0.965,0,1.688-0.723,1.688-1.688C11.583,21.293,10.979,20.57,10.014,20.57z"/></g><g><path fill="#004402" d="M6.852,13.467c0.537,0,0.971-0.205,1.302-0.616c0.33-0.411,0.495-1.027,0.495-1.848v-0.151 c-0.225,0.289-0.493,0.508-0.805,0.657c-0.313,0.149-0.647,0.224-1.006,0.224c-0.936,0-1.67-0.306-2.202-0.919 c-0.532-0.612-0.798-1.458-0.798-2.536c0-1.014,0.317-1.864,0.953-2.55C5.426,5.041,6.23,4.698,7.203,4.698 c1.023,0,1.854,0.352,2.492,1.056c0.637,0.705,0.957,1.694,0.957,2.97v2.175c0,1.299-0.355,2.309-1.064,3.029 s-1.621,1.081-2.736,1.081c-0.348,0-0.707-0.036-1.076-0.106c-0.369-0.071-0.711-0.176-1.022-0.313l0.228-1.452 c0.307,0.115,0.605,0.198,0.895,0.251S6.49,13.467,6.852,13.467z M7.176,10.259c0.335,0,0.627-0.063,0.877-0.189 c0.25-0.126,0.449-0.295,0.596-0.506V8.491c0-0.734-0.129-1.292-0.385-1.673C8.006,6.437,7.658,6.247,7.217,6.247 c-0.404,0-0.732,0.199-0.987,0.596S5.848,7.717,5.848,8.277c0,0.605,0.113,1.087,0.34,1.445 C6.415,10.081,6.744,10.259,7.176,10.259z"/><path fill="#FFF" d="M5.929,12.858c0.537,0,0.971-0.205,1.302-0.616c0.33-0.411,0.495-1.027,0.495-1.848v-0.151 C7.5,10.532,7.232,10.751,6.92,10.9s-0.646,0.224-1.005,0.224c-0.937,0-1.671-0.306-2.202-0.919 C3.18,9.593,2.914,8.747,2.914,7.669c0-1.014,0.318-1.864,0.953-2.55C4.503,4.433,5.307,4.09,6.279,4.09 c1.023,0,1.854,0.352,2.492,1.056c0.638,0.705,0.957,1.694,0.957,2.97v2.175c0,1.299-0.354,2.309-1.063,3.029 S7.044,14.4,5.929,14.4c-0.349,0-0.708-0.036-1.077-0.106c-0.369-0.071-0.71-0.176-1.021-0.313l0.227-1.452 c0.308,0.115,0.605,0.198,0.895,0.251S5.566,12.858,5.929,12.858z M6.252,9.651c0.336,0,0.628-0.063,0.878-0.189 c0.25-0.126,0.448-0.295,0.596-0.506V7.882c0-0.734-0.129-1.292-0.386-1.673S6.734,5.638,6.293,5.638 c-0.403,0-0.732,0.199-0.986,0.596C5.051,6.631,4.924,7.109,4.924,7.669c0,0.605,0.113,1.087,0.341,1.445 S5.82,9.651,6.252,9.651z"/></g><g><path fill="#004402" d="M21.422,37.549c0.822,0,1.485-0.314,1.991-0.943c0.506-0.628,0.759-1.571,0.759-2.828v-0.232 c-0.344,0.442-0.755,0.778-1.232,1.006c-0.478,0.229-0.99,0.343-1.538,0.343c-1.434,0-2.558-0.469-3.372-1.406 s-1.223-2.232-1.223-3.883c0-1.552,0.487-2.854,1.46-3.903s2.203-1.575,3.692-1.575c1.566,0,2.838,0.539,3.814,1.617 s1.465,2.594,1.465,4.546v3.33c0,1.987-0.543,3.533-1.628,4.636c-1.086,1.103-2.481,1.654-4.188,1.654 c-0.534,0-1.083-0.055-1.648-0.164c-0.565-0.108-1.087-0.269-1.564-0.479l0.348-2.223c0.47,0.176,0.927,0.304,1.369,0.385 S20.867,37.549,21.422,37.549z M21.917,32.639c0.513,0,0.961-0.096,1.344-0.289s0.687-0.451,0.911-0.774v-1.644 c0-1.124-0.196-1.978-0.59-2.561s-0.928-0.874-1.602-0.874c-0.618,0-1.122,0.304-1.512,0.911s-0.585,1.34-0.585,2.196 c0,0.928,0.174,1.665,0.521,2.213S21.257,32.639,21.917,32.639z"/><path fill="#FFF" d="M20.588,36.924c0.822,0,1.485-0.314,1.991-0.943c0.506-0.628,0.759-1.571,0.759-2.828V32.92 c-0.344,0.442-0.755,0.778-1.232,1.006c-0.478,0.229-0.99,0.343-1.538,0.343c-1.434,0-2.558-0.469-3.372-1.406 s-1.223-2.232-1.223-3.883c0-1.552,0.487-2.854,1.46-3.903s2.203-1.575,3.692-1.575c1.566,0,2.838,0.539,3.814,1.617 s1.465,2.594,1.465,4.546v3.33c0,1.987-0.543,3.533-1.628,4.636c-1.086,1.103-2.481,1.654-4.188,1.654 c-0.534,0-1.083-0.055-1.648-0.164c-0.565-0.108-1.087-0.269-1.564-0.479l0.348-2.223c0.47,0.176,0.927,0.304,1.369,0.385 S20.033,36.924,20.588,36.924z M21.083,32.014c0.513,0,0.961-0.096,1.344-0.289s0.687-0.451,0.911-0.774v-1.644 c0-1.124-0.196-1.978-0.59-2.561s-0.928-0.874-1.602-0.874c-0.618,0-1.122,0.304-1.512,0.911s-0.585,1.34-0.585,2.196 c0,0.928,0.174,1.665,0.521,2.213S20.423,32.014,21.083,32.014z"/></g></svg>