<svg xmlns="http://www.w3.org/2000/svg" width="31" height="43"><path fill="#00910A" d="M28.373,0H2.627C1.208,0,0,1.206,0,2.622v37.756C0,41.848,1.208,43,2.627,43h25.746 C29.844,43,31,41.794,31,40.378V2.622C31,1.206,29.844,0,28.373,0L28.373,0z"/><linearGradient id="a" gradientUnits="userSpaceOnUse" x1="1398.297" y1="-1955.832" x2="1398.297" y2="-1915.821" gradientTransform="matrix(1 0 0 -1 -1382.8 -1914.3)"><stop offset="0" stop-color="#006609"/><stop offset="1" stop-color="#00910a"/></linearGradient><path fill="url(#a)" d="M27.426,1.521H3.514c-1.311,0-2.412,1.102-2.412,2.413v35.134c0,1.363,1.102,2.465,2.412,2.465 h23.912c1.363,0,2.465-1.102,2.465-2.465V3.933C29.838,2.622,28.736,1.521,27.426,1.521L27.426,1.521z"/><path fill="#00A000" d="M4.248,1.442c-1.73,0-3.146,1.311-3.146,2.989v23.44c0,0,2.926-12.55,6.766-17.646 c4.248-5.637,13.537-8.784,12.804-8.784L4.248,1.442L4.248,1.442z"/><path fill="#004402" d="M10.527,21.113c-0.604,0-1.146,0.302-1.447,0.784c-0.422,0.421-0.846,0.242-1.086,0.121 c-0.241-0.181-0.482-0.784,0.182-1.266l0,0c0.361-0.301,0.604-0.784,0.604-1.267c0-0.904-0.784-1.688-1.688-1.688 c-0.964,0-1.688,0.724-1.688,1.688c0,0.543,0.242,0.966,0.664,1.267l0,0c0.664,0.482,0.422,1.146,0.182,1.266 c-0.241,0.185-0.725,0.361-1.146-0.181c-0.302-0.422-0.845-0.724-1.447-0.724c-0.965,0-1.688,0.724-1.688,1.688 c0,0.967,0.784,1.689,1.688,1.689c0.543,0,1.025-0.24,1.326-0.664l0,0c0.543-0.662,1.508-0.301,1.508-0.301 c0,3.498-2.291,3.313-2.291,3.313v1.146H6.85H7.15h2.772V26.84c0,0-2.353,0.184-2.353-3.314c0,0,0.906-0.301,1.447,0.242 c0.303,0.422,0.846,0.724,1.387,0.724c0.967,0,1.688-0.724,1.688-1.689C12.096,21.836,11.492,21.113,10.527,21.113z"/><g><path fill="#FFF" d="M10.014,20.57c-0.603,0-1.146,0.302-1.447,0.785c-0.422,0.421-0.844,0.24-1.086,0.12 c-0.239-0.182-0.481-0.784,0.183-1.266l0,0c0.36-0.302,0.604-0.784,0.604-1.267c0-0.904-0.785-1.689-1.689-1.689 c-0.964,0-1.688,0.724-1.688,1.689c0,0.542,0.239,0.965,0.662,1.267l0,0c0.663,0.481,0.422,1.146,0.182,1.266 c-0.241,0.181-0.725,0.361-1.146-0.182c-0.302-0.422-0.845-0.724-1.447-0.724c-0.965,0-1.688,0.724-1.688,1.69 s0.784,1.688,1.688,1.688c0.543,0,1.024-0.24,1.326-0.664l0,0c0.543-0.662,1.508-0.301,1.508-0.301 c0,3.498-2.291,3.313-2.291,3.313v1.146h2.652h0.303h2.773v-1.146c0,0-2.352,0.185-2.352-3.313c0,0,0.903-0.301,1.445,0.242 c0.303,0.422,0.846,0.723,1.389,0.723c0.965,0,1.688-0.723,1.688-1.688C11.583,21.293,10.979,20.57,10.014,20.57z"/></g><g><path fill="#004402" d="M2.551,13.66l0.715-0.103l3.05-8.714h2.058l3.029,8.714l0.715,0.103v1.205H8.703V13.66l0.695-0.124 l-0.439-1.376h-3.25L5.27,13.536l0.695,0.124v1.205H2.551V13.66z M6.185,10.679h2.299L7.354,7.148H7.313L6.185,10.679z"/><path fill="#FFF" d="M1.627,13.051l0.716-0.103l3.05-8.714H7.45l3.028,8.714l0.716,0.103v1.205H7.78v-1.205l0.695-0.124 l-0.44-1.376H4.786l-0.44,1.376l0.695,0.124v1.205H1.627V13.051z M5.262,10.071h2.299L6.432,6.54H6.391L5.262,10.071z"/></g><g><path fill="#004402" d="M14.838,37.844l1.096-0.158l4.667-13.338h3.15l4.636,13.338l1.096,0.158v1.844h-5.227v-1.844 l1.064-0.189l-0.674-2.107h-4.974l-0.674,2.107l1.064,0.189v1.844h-5.226V37.844z M20.4,33.281h3.519l-1.728-5.404h-0.063 L20.4,33.281z"/><path fill="#FFF" d="M14.004,37.219l1.096-0.158l4.667-13.338h3.15l4.636,13.338l1.096,0.158v1.844h-5.227v-1.844 l1.064-0.189l-0.674-2.107h-4.974l-0.674,2.107l1.064,0.189v1.844h-5.226V37.219z M19.566,32.656h3.519l-1.728-5.404h-0.063 L19.566,32.656z"/></g></svg>