<svg xmlns="http://www.w3.org/2000/svg" width="31" height="43"><path fill="#00910A" d="M28.373,0H2.627C1.208,0,0,1.206,0,2.622v37.756C0,41.848,1.208,43,2.627,43h25.746 C29.844,43,31,41.794,31,40.378V2.622C31,1.206,29.844,0,28.373,0L28.373,0z"/><linearGradient id="a" gradientUnits="userSpaceOnUse" x1="1398.297" y1="-1955.832" x2="1398.297" y2="-1915.821" gradientTransform="matrix(1 0 0 -1 -1382.8 -1914.3)"><stop offset="0" stop-color="#006609"/><stop offset="1" stop-color="#00910a"/></linearGradient><path fill="url(#a)" d="M27.426,1.521H3.514c-1.311,0-2.412,1.102-2.412,2.413v35.134c0,1.363,1.102,2.465,2.412,2.465 h23.912c1.363,0,2.465-1.102,2.465-2.465V3.933C29.838,2.622,28.736,1.521,27.426,1.521L27.426,1.521z"/><path fill="#00A000" d="M4.248,1.442c-1.73,0-3.146,1.311-3.146,2.989v23.44c0,0,2.926-12.55,6.766-17.646 c4.248-5.637,13.537-8.784,12.804-8.784L4.248,1.442L4.248,1.442z"/><path fill="#004402" d="M10.527,21.113c-0.604,0-1.146,0.302-1.447,0.784c-0.422,0.421-0.846,0.242-1.086,0.121 c-0.241-0.181-0.482-0.784,0.182-1.266l0,0c0.361-0.301,0.604-0.784,0.604-1.267c0-0.904-0.784-1.688-1.688-1.688 c-0.964,0-1.688,0.724-1.688,1.688c0,0.543,0.242,0.966,0.664,1.267l0,0c0.664,0.482,0.422,1.146,0.182,1.266 c-0.241,0.185-0.725,0.361-1.146-0.181c-0.302-0.422-0.845-0.724-1.447-0.724c-0.965,0-1.688,0.724-1.688,1.688 c0,0.967,0.784,1.689,1.688,1.689c0.543,0,1.025-0.24,1.326-0.664l0,0c0.543-0.662,1.508-0.301,1.508-0.301 c0,3.498-2.291,3.313-2.291,3.313v1.146H6.85H7.15h2.772V26.84c0,0-2.353,0.184-2.353-3.314c0,0,0.906-0.301,1.447,0.242 c0.303,0.422,0.846,0.724,1.387,0.724c0.967,0,1.688-0.724,1.688-1.689C12.096,21.836,11.492,21.113,10.527,21.113z"/><g><path fill="#FFF" d="M10.014,20.57c-0.603,0-1.146,0.302-1.447,0.785c-0.422,0.421-0.844,0.24-1.086,0.12 c-0.239-0.182-0.481-0.784,0.183-1.266l0,0c0.36-0.302,0.604-0.784,0.604-1.267c0-0.904-0.785-1.689-1.689-1.689 c-0.964,0-1.688,0.724-1.688,1.689c0,0.542,0.239,0.965,0.662,1.267l0,0c0.663,0.481,0.422,1.146,0.182,1.266 c-0.241,0.181-0.725,0.361-1.146-0.182c-0.302-0.422-0.845-0.724-1.447-0.724c-0.965,0-1.688,0.724-1.688,1.69 s0.784,1.688,1.688,1.688c0.543,0,1.024-0.24,1.326-0.664l0,0c0.543-0.662,1.508-0.301,1.508-0.301 c0,3.498-2.291,3.313-2.291,3.313v1.146h2.652h0.303h2.773v-1.146c0,0-2.352,0.185-2.352-3.313c0,0,0.903-0.301,1.445,0.242 c0.303,0.422,0.846,0.723,1.389,0.723c0.965,0,1.688-0.723,1.688-1.688C11.583,21.293,10.979,20.57,10.014,20.57z"/></g><g><path fill="#004402" d="M11.246,4.843v1.211L10.173,6.26v5.596c0,0.968-0.315,1.736-0.946,2.302 c-0.631,0.567-1.428,0.85-2.392,0.85c-1.046,0-1.875-0.255-2.485-0.764c-0.609-0.509-0.904-1.259-0.881-2.25l0.014-0.042h1.955 c0,0.528,0.126,0.912,0.379,1.153c0.252,0.241,0.592,0.361,1.019,0.361c0.372,0,0.687-0.143,0.946-0.43 c0.26-0.287,0.389-0.68,0.389-1.18V6.26L7.096,6.054V4.843h3.077H11.246z"/><path fill="#FFF" d="M10.323,4.234v1.211L9.25,5.652v5.596c0,0.968-0.316,1.736-0.947,2.302 c-0.631,0.567-1.428,0.85-2.391,0.85c-1.047,0-1.875-0.255-2.485-0.764s-0.904-1.259-0.882-2.25l0.015-0.042h1.954 c0,0.528,0.127,0.912,0.379,1.153c0.252,0.241,0.592,0.361,1.02,0.361c0.371,0,0.687-0.143,0.945-0.43 c0.26-0.287,0.389-0.68,0.389-1.18V5.652L6.173,5.446V4.234H9.25H10.323z"/></g><g><path fill="#004402" d="M28.149,24.348v1.854l-1.644,0.316v8.565c0,1.482-0.483,2.657-1.449,3.524 c-0.966,0.868-2.186,1.302-3.661,1.302c-1.602,0-2.869-0.391-3.804-1.17c-0.934-0.779-1.383-1.928-1.348-3.445l0.021-0.063 h2.992c0,0.809,0.193,1.396,0.58,1.765c0.386,0.369,0.905,0.554,1.559,0.554c0.569,0,1.052-0.22,1.449-0.658 c0.396-0.439,0.595-1.042,0.595-1.808v-8.565l-1.644-0.316v-1.854h4.71H28.149z"/><path fill="#FFF" d="M27.315,23.723v1.854l-1.644,0.316v8.565c0,1.482-0.483,2.657-1.449,3.524 c-0.966,0.868-2.186,1.302-3.661,1.302c-1.602,0-2.869-0.391-3.804-1.17c-0.934-0.779-1.383-1.928-1.348-3.445l0.021-0.063 h2.992c0,0.809,0.193,1.396,0.58,1.765c0.386,0.369,0.905,0.554,1.559,0.554c0.569,0,1.052-0.22,1.449-0.658 c0.396-0.439,0.595-1.042,0.595-1.808v-8.565l-1.644-0.316v-1.854h4.71H27.315z"/></g></svg>