<svg xmlns="http://www.w3.org/2000/svg" width="31" height="43"><path fill="#00910A" d="M28.373,0H2.627C1.208,0,0,1.206,0,2.622v37.756C0,41.848,1.208,43,2.627,43h25.746 C29.844,43,31,41.794,31,40.378V2.622C31,1.206,29.844,0,28.373,0L28.373,0z"/><linearGradient id="a" gradientUnits="userSpaceOnUse" x1="1398.297" y1="-1955.832" x2="1398.297" y2="-1915.821" gradientTransform="matrix(1 0 0 -1 -1382.8 -1914.3)"><stop offset="0" stop-color="#006609"/><stop offset="1" stop-color="#00910a"/></linearGradient><path fill="url(#a)" d="M27.426,1.521H3.514c-1.311,0-2.412,1.102-2.412,2.413v35.134c0,1.363,1.102,2.465,2.412,2.465 h23.912c1.363,0,2.465-1.102,2.465-2.465V3.933C29.838,2.622,28.736,1.521,27.426,1.521L27.426,1.521z"/><path fill="#00A000" d="M4.248,1.442c-1.73,0-3.146,1.311-3.146,2.989v23.44c0,0,2.926-12.55,6.766-17.646 c4.248-5.637,13.537-8.784,12.804-8.784L4.248,1.442L4.248,1.442z"/><path fill="#004402" d="M10.527,21.113c-0.604,0-1.146,0.302-1.447,0.784c-0.422,0.421-0.846,0.242-1.086,0.121 c-0.241-0.181-0.482-0.784,0.182-1.266l0,0c0.361-0.301,0.604-0.784,0.604-1.267c0-0.904-0.784-1.688-1.688-1.688 c-0.964,0-1.688,0.724-1.688,1.688c0,0.543,0.242,0.966,0.664,1.267l0,0c0.664,0.482,0.422,1.146,0.182,1.266 c-0.241,0.185-0.725,0.361-1.146-0.181c-0.302-0.422-0.845-0.724-1.447-0.724c-0.965,0-1.688,0.724-1.688,1.688 c0,0.967,0.784,1.689,1.688,1.689c0.543,0,1.025-0.24,1.326-0.664l0,0c0.543-0.662,1.508-0.301,1.508-0.301 c0,3.498-2.291,3.313-2.291,3.313v1.146H6.85H7.15h2.772V26.84c0,0-2.353,0.184-2.353-3.314c0,0,0.906-0.301,1.447,0.242 c0.303,0.422,0.846,0.724,1.387,0.724c0.967,0,1.688-0.724,1.688-1.689C12.096,21.836,11.492,21.113,10.527,21.113z"/><g><path fill="#FFF" d="M10.014,20.57c-0.603,0-1.146,0.302-1.447,0.785c-0.422,0.421-0.844,0.24-1.086,0.12 c-0.239-0.182-0.481-0.784,0.183-1.266l0,0c0.36-0.302,0.604-0.784,0.604-1.267c0-0.904-0.785-1.689-1.689-1.689 c-0.964,0-1.688,0.724-1.688,1.689c0,0.542,0.239,0.965,0.662,1.267l0,0c0.663,0.481,0.422,1.146,0.182,1.266 c-0.241,0.181-0.725,0.361-1.146-0.182c-0.302-0.422-0.845-0.724-1.447-0.724c-0.965,0-1.688,0.724-1.688,1.69 s0.784,1.688,1.688,1.688c0.543,0,1.024-0.24,1.326-0.664l0,0c0.543-0.662,1.508-0.301,1.508-0.301 c0,3.498-2.291,3.313-2.291,3.313v1.146h2.652h0.303h2.773v-1.146c0,0-2.352,0.185-2.352-3.313c0,0,0.903-0.301,1.445,0.242 c0.303,0.422,0.846,0.723,1.389,0.723c0.965,0,1.688-0.723,1.688-1.688C11.583,21.293,10.979,20.57,10.014,20.57z"/></g><g><path fill="#004402" d="M11.891,9.929c0,0.872-0.157,1.668-0.472,2.388c-0.314,0.721-0.753,1.308-1.317,1.762l2.133,1.329 l-1.418,1.094l-2.402-1.618c-0.178,0.037-0.358,0.066-0.539,0.09c-0.182,0.022-0.362,0.034-0.541,0.034 c-1.354,0-2.447-0.479-3.279-1.438c-0.834-0.959-1.25-2.173-1.25-3.641V9.778c0-1.459,0.416-2.671,1.246-3.634 c0.83-0.964,1.922-1.445,3.276-1.445c1.358,0,2.458,0.481,3.3,1.445c0.843,0.963,1.264,2.175,1.264,3.634V9.929z M9.888,9.764 c0-1.037-0.216-1.879-0.647-2.526s-1.068-0.97-1.913-0.97s-1.474,0.321-1.89,0.963C5.022,7.874,4.814,8.718,4.814,9.764v0.165 c0,1.055,0.211,1.905,0.63,2.55c0.42,0.645,1.05,0.967,1.89,0.967c0.849,0,1.486-0.322,1.914-0.967 c0.426-0.645,0.64-1.495,0.64-2.55V9.764z"/><path fill="#FFF" d="M10.967,9.321c0,0.872-0.156,1.668-0.471,2.388c-0.314,0.721-0.754,1.308-1.318,1.762l2.134,1.329 l-1.418,1.094l-2.402-1.618c-0.179,0.037-0.358,0.066-0.54,0.09C6.77,14.389,6.59,14.4,6.41,14.4 c-1.354,0-2.446-0.479-3.279-1.438s-1.25-2.173-1.25-3.641V9.169c0-1.459,0.416-2.671,1.246-3.634 C3.958,4.571,5.05,4.09,6.404,4.09c1.357,0,2.457,0.481,3.3,1.445c0.843,0.963,1.263,2.175,1.263,3.634V9.321z M8.965,9.156 c0-1.037-0.217-1.879-0.647-2.526c-0.432-0.647-1.069-0.97-1.913-0.97c-0.845,0-1.475,0.321-1.891,0.963 C4.1,7.265,3.892,8.109,3.892,9.156v0.165c0,1.055,0.21,1.905,0.63,2.55c0.42,0.645,1.049,0.967,1.889,0.967 c0.85,0,1.487-0.322,1.914-0.967c0.427-0.645,0.641-1.495,0.641-2.55V9.156z"/></g><g><path fill="#004402" d="M29.135,32.133c0,1.335-0.24,2.554-0.723,3.656c-0.48,1.103-1.152,2.002-2.018,2.697l3.266,2.033 l-2.17,1.676l-3.676-2.477c-0.275,0.057-0.551,0.103-0.828,0.138s-0.553,0.053-0.826,0.053c-2.072,0-3.746-0.734-5.021-2.202 c-1.274-1.468-1.912-3.326-1.912-5.574v-0.231c0-2.233,0.636-4.088,1.907-5.563c1.271-1.476,2.942-2.213,5.015-2.213 c2.08,0,3.764,0.737,5.053,2.213c1.289,1.475,1.934,3.329,1.934,5.563V32.133z M26.068,31.881c0-1.588-0.33-2.877-0.99-3.867 s-1.637-1.485-2.93-1.485c-1.291,0-2.256,0.491-2.891,1.475c-0.637,0.983-0.955,2.276-0.955,3.878v0.252 c0,1.616,0.322,2.917,0.965,3.904c0.643,0.986,1.607,1.48,2.893,1.48c1.299,0,2.275-0.494,2.928-1.48 c0.654-0.987,0.98-2.288,0.98-3.904V31.881z"/><path fill="#FFF" d="M28.301,31.508c0,1.335-0.24,2.554-0.723,3.656c-0.48,1.103-1.152,2.002-2.018,2.697l3.266,2.033 l-2.17,1.676l-3.676-2.477c-0.275,0.057-0.551,0.103-0.828,0.138s-0.553,0.053-0.826,0.053c-2.072,0-3.746-0.734-5.021-2.202 c-1.274-1.468-1.912-3.326-1.912-5.574v-0.231c0-2.233,0.636-4.088,1.907-5.563c1.271-1.476,2.942-2.213,5.015-2.213 c2.08,0,3.764,0.737,5.053,2.213c1.289,1.475,1.934,3.329,1.934,5.563V31.508z M25.234,31.256c0-1.588-0.33-2.877-0.99-3.867 s-1.637-1.485-2.93-1.485c-1.291,0-2.256,0.491-2.891,1.475c-0.637,0.983-0.955,2.276-0.955,3.878v0.252 c0,1.616,0.322,2.917,0.965,3.904c0.643,0.986,1.607,1.48,2.893,1.48c1.299,0,2.275-0.494,2.928-1.48 c0.654-0.987,0.98-2.288,0.98-3.904V31.256z"/></g></svg>