<svg xmlns="http://www.w3.org/2000/svg" width="31" height="43"><path fill="#00910A" d="M28.373,0H2.627C1.208,0,0,1.206,0,2.622v37.756C0,41.848,1.208,43,2.627,43h25.746 C29.844,43,31,41.794,31,40.378V2.622C31,1.206,29.844,0,28.373,0L28.373,0z"/><linearGradient id="a" gradientUnits="userSpaceOnUse" x1="1398.297" y1="-1955.832" x2="1398.297" y2="-1915.821" gradientTransform="matrix(1 0 0 -1 -1382.8 -1914.3)"><stop offset="0" stop-color="#006609"/><stop offset="1" stop-color="#00910a"/></linearGradient><path fill="url(#a)" d="M27.426,1.521H3.514c-1.311,0-2.412,1.102-2.412,2.413v35.134c0,1.363,1.102,2.465,2.412,2.465 h23.912c1.363,0,2.465-1.102,2.465-2.465V3.933C29.838,2.622,28.736,1.521,27.426,1.521L27.426,1.521z"/><path fill="#00A000" d="M4.248,1.442c-1.73,0-3.146,1.311-3.146,2.989v23.44c0,0,2.926-12.55,6.766-17.646 c4.248-5.637,13.537-8.784,12.804-8.784L4.248,1.442L4.248,1.442z"/><path fill="#004402" d="M10.527,21.113c-0.604,0-1.146,0.302-1.447,0.784c-0.422,0.421-0.846,0.242-1.086,0.121 c-0.241-0.181-0.482-0.784,0.182-1.266l0,0c0.361-0.301,0.604-0.784,0.604-1.267c0-0.904-0.784-1.688-1.688-1.688 c-0.964,0-1.688,0.724-1.688,1.688c0,0.543,0.242,0.966,0.664,1.267l0,0c0.664,0.482,0.422,1.146,0.182,1.266 c-0.241,0.185-0.725,0.361-1.146-0.181c-0.302-0.422-0.845-0.724-1.447-0.724c-0.965,0-1.688,0.724-1.688,1.688 c0,0.967,0.784,1.689,1.688,1.689c0.543,0,1.025-0.24,1.326-0.664l0,0c0.543-0.662,1.508-0.301,1.508-0.301 c0,3.498-2.291,3.313-2.291,3.313v1.146H6.85H7.15h2.772V26.84c0,0-2.353,0.184-2.353-3.314c0,0,0.906-0.301,1.447,0.242 c0.303,0.422,0.846,0.724,1.387,0.724c0.967,0,1.688-0.724,1.688-1.689C12.096,21.836,11.492,21.113,10.527,21.113z"/><g><path fill="#FFF" d="M10.014,20.57c-0.603,0-1.146,0.302-1.447,0.785c-0.422,0.421-0.844,0.24-1.086,0.12 c-0.239-0.182-0.481-0.784,0.183-1.266l0,0c0.36-0.302,0.604-0.784,0.604-1.267c0-0.904-0.785-1.689-1.689-1.689 c-0.964,0-1.688,0.724-1.688,1.689c0,0.542,0.239,0.965,0.662,1.267l0,0c0.663,0.481,0.422,1.146,0.182,1.266 c-0.241,0.181-0.725,0.361-1.146-0.182c-0.302-0.422-0.845-0.724-1.447-0.724c-0.965,0-1.688,0.724-1.688,1.69 s0.784,1.688,1.688,1.688c0.543,0,1.024-0.24,1.326-0.664l0,0c0.543-0.662,1.508-0.301,1.508-0.301 c0,3.498-2.291,3.313-2.291,3.313v1.146h2.652h0.303h2.773v-1.146c0,0-2.352,0.185-2.352-3.313c0,0,0.903-0.301,1.445,0.242 c0.303,0.422,0.846,0.723,1.389,0.723c0.965,0,1.688-0.723,1.688-1.688C11.583,21.293,10.979,20.57,10.014,20.57z"/></g><g><g fill="#004402"><path d="M1.504 13.66l1.454-.207V6.667H1.486V5.517l3.192-.674v8.61l1.454.207v1.205H1.504V13.66zM12.865 10.961c0 1.326-.26 2.333-.782 3.019s-1.229 1.029-2.12 1.029c-.898 0-1.61-.343-2.134-1.029-.524-.686-.786-1.692-.786-3.019V8.752c0-1.321.262-2.327.783-3.018.521-.69 1.23-1.036 2.125-1.036.891 0 1.599.345 2.126 1.036.525.691.788 1.697.788 3.018V10.961zM11.146 8.545c0-.793-.103-1.375-.308-1.745-.204-.369-.501-.554-.887-.554-.391 0-.686.184-.887.551s-.302.95-.302 1.748v2.609c0 .808.102 1.395.305 1.762s.502.55.896.55c.386 0 .68-.183.881-.55s.302-.955.302-1.762V8.545z"/></g><g fill="#FFF"><path d="M.71 13.051l1.454-.207V6.058H.693V4.909l3.192-.674v8.61l1.454.207v1.205H.71V13.051zM12.072 10.353c0 1.326-.261 2.333-.782 3.019-.523.686-1.229 1.029-2.12 1.029-.898 0-1.609-.343-2.134-1.029s-.787-1.692-.787-3.019V8.144c0-1.321.262-2.327.783-3.018C7.555 4.435 8.264 4.09 9.158 4.09c.891 0 1.6.345 2.125 1.036.527.691.789 1.697.789 3.018V10.353zM10.353 7.937c0-.793-.103-1.375-.308-1.745-.204-.369-.5-.554-.887-.554-.391 0-.686.184-.887.551-.2.367-.301.95-.301 1.748v2.609c0 .808.101 1.395.303 1.762.203.367.502.55.896.55.387 0 .68-.183.881-.55s.302-.955.302-1.762V7.937z"/></g></g><g><g fill="#004402"><path d="M13.744 37.844l2.101-.316V27.14h-2.126v-1.76l4.611-1.032v13.18l2.102.316v1.844h-6.688V37.844zM30.157 33.714c0 2.029-.377 3.569-1.131 4.62-.755 1.05-1.775 1.575-3.062 1.575-1.299 0-2.326-.525-3.084-1.575-.756-1.051-1.135-2.591-1.135-4.62v-3.382c0-2.023.377-3.563 1.131-4.62.755-1.058 1.778-1.586 3.07-1.586 1.287 0 2.311.528 3.07 1.586.76 1.057 1.14 2.597 1.14 4.62V33.714zM27.673 30.016c0-1.215-.148-2.105-.444-2.671s-.724-.848-1.281-.848c-.563 0-.99.28-1.281.843-.29.562-.436 1.453-.436 2.676v3.993c0 1.236.146 2.135.44 2.697.293.562.725.843 1.294.843.558 0 .981-.281 1.272-.843.29-.563.436-1.461.436-2.697V30.016z"/></g><g fill="#FFF"><path d="M13.068 37.219l2.101-.316V26.515h-2.126v-1.76l4.611-1.032v13.18l2.102.316v1.844h-6.688V37.219zM29.481 33.089c0 2.029-.377 3.569-1.132 4.62-.754 1.05-1.774 1.575-3.062 1.575-1.298 0-2.325-.525-3.083-1.575-.757-1.051-1.135-2.591-1.135-4.62v-3.382c0-2.023.377-3.563 1.131-4.62.755-1.058 1.778-1.586 3.07-1.586 1.286 0 2.31.528 3.07 1.586.76 1.057 1.14 2.597 1.14 4.62V33.089zM26.996 29.391c0-1.215-.147-2.105-.443-2.671s-.724-.848-1.281-.848c-.563 0-.991.28-1.281.843-.291.562-.436 1.453-.436 2.676v3.993c0 1.236.146 2.135.44 2.697.293.562.724.843 1.293.843.559 0 .982-.281 1.273-.843.289-.563.435-1.461.435-2.697V29.391z"/></g></g></svg>