<svg xmlns="http://www.w3.org/2000/svg" width="31" height="43"><path fill="#A51C2A" d="M28.373,0H2.627C1.208,0,0,1.206,0,2.622v37.756C0,41.848,1.208,43,2.627,43h25.746 C29.844,43,31,41.794,31,40.378V2.622C31,1.206,29.844,0,28.373,0L28.373,0z"/><linearGradient id="a" gradientUnits="userSpaceOnUse" x1="1602.256" y1="2339.493" x2="1602.256" y2="2299.482" gradientTransform="translate(-1586.76 -2297.96)"><stop offset="0" stop-color="#66111a"/><stop offset="1" stop-color="#a51c2a"/></linearGradient><path fill="url(#a)" d="M27.426,1.521H3.514c-1.311,0-2.413,1.102-2.413,2.412v35.135c0,1.363,1.102,2.465,2.413,2.465 h23.912c1.363,0,2.465-1.102,2.465-2.465V3.934C29.838,2.622,28.736,1.521,27.426,1.521L27.426,1.521z"/><path fill="#AF2034" d="M4.248,1.441c-1.73,0-3.146,1.312-3.146,2.99v23.439c0,0,2.925-12.551,6.765-17.646 c4.248-5.637,13.537-8.783,12.804-8.783H4.248L4.248,1.441z"/><path fill="#560008" d="M9.334,17.637c-1.027,0-1.906,0.676-2.314,1.643c-0.408-0.967-1.288-1.643-2.315-1.643 c-1.414,0-2.561,1.844-2.561,3.413c0,1.461,4.876,6.336,4.876,6.336s4.876-4.875,4.876-6.336 C11.896,19.48,10.749,17.637,9.334,17.637"/><path fill="#FFF" d="M8.74,17.279c-1.027,0-1.906,0.676-2.314,1.644c-0.409-0.968-1.289-1.644-2.316-1.644 c-1.414,0-2.561,1.844-2.561,3.414c0,1.461,4.876,6.336,4.876,6.336s4.876-4.875,4.876-6.336 C11.301,19.123,10.154,17.279,8.74,17.279"/><g><path fill="#560008" d="M6.126,9h1.129c0.477,0,0.83-0.125,1.06-0.375s0.344-0.598,0.344-1.043c0-0.404-0.115-0.727-0.344-0.971 C8.085,6.368,7.752,6.246,7.316,6.246c-0.376,0-0.693,0.111-0.95,0.331S5.981,7.086,5.981,7.444H4.033L4.02,7.402 c-0.027-0.784,0.273-1.432,0.902-1.94C5.55,4.953,6.33,4.698,7.262,4.698c1.037,0,1.864,0.247,2.481,0.743s0.926,1.202,0.926,2.12 c0,0.437-0.137,0.851-0.413,1.242C9.98,9.196,9.602,9.502,9.12,9.723c0.555,0.197,0.979,0.5,1.27,0.908 c0.291,0.408,0.437,0.884,0.437,1.426c0,0.917-0.334,1.639-1.001,2.164c-0.668,0.525-1.522,0.788-2.564,0.788 c-0.932,0-1.731-0.247-2.399-0.739c-0.667-0.494-0.99-1.19-0.967-2.09l0.014-0.041h1.948c0,0.385,0.138,0.703,0.413,0.953 s0.624,0.375,1.046,0.375c0.464,0,0.83-0.129,1.098-0.385c0.269-0.258,0.402-0.605,0.402-1.047c0-0.527-0.132-0.914-0.396-1.16 c-0.264-0.245-0.653-0.367-1.167-0.367H6.126V9z"/></g><g><path fill="#FFF" d="M5.203,8.392h1.129c0.477,0,0.83-0.125,1.06-0.375c0.229-0.251,0.344-0.598,0.344-1.043 c0-0.403-0.115-0.728-0.344-0.971S6.829,5.639,6.393,5.639c-0.376,0-0.693,0.109-0.95,0.33s-0.385,0.51-0.385,0.867H3.11 L3.096,6.795C3.069,6.01,3.369,5.363,3.998,4.854c0.628-0.51,1.409-0.764,2.34-0.764c1.037,0,1.864,0.248,2.481,0.743 s0.926,1.202,0.926,2.12c0,0.436-0.137,0.85-0.413,1.242S8.678,8.895,8.197,9.114c0.555,0.197,0.979,0.5,1.27,0.909 c0.291,0.408,0.437,0.883,0.437,1.424c0,0.918-0.334,1.64-1.001,2.165C8.234,14.138,7.38,14.4,6.338,14.4 c-0.932,0-1.731-0.246-2.399-0.74c-0.667-0.492-0.99-1.189-0.967-2.089l0.014-0.041h1.948c0,0.386,0.138,0.703,0.413,0.953 s0.624,0.375,1.046,0.375c0.464,0,0.83-0.128,1.098-0.386c0.269-0.256,0.402-0.605,0.402-1.046c0-0.527-0.132-0.914-0.396-1.159 c-0.264-0.246-0.653-0.369-1.167-0.369H5.203V8.392z"/></g><g><path fill="#560008" d="M20.311,30.711h1.729c0.73,0,1.271-0.191,1.621-0.574c0.352-0.383,0.527-0.915,0.527-1.596 c0-0.618-0.176-1.113-0.527-1.486c-0.35-0.372-0.859-0.558-1.527-0.558c-0.576,0-1.061,0.168-1.453,0.505 c-0.395,0.338-0.59,0.78-0.59,1.328h-2.982l-0.021-0.063c-0.041-1.201,0.418-2.191,1.381-2.971c0.963-0.78,2.156-1.17,3.582-1.17 c1.588,0,2.854,0.379,3.799,1.138c0.943,0.759,1.416,1.841,1.416,3.245c0,0.668-0.211,1.302-0.631,1.902 c-0.422,0.6-1.002,1.069-1.738,1.406c0.85,0.302,1.496,0.766,1.943,1.391c0.445,0.625,0.668,1.353,0.668,2.181 c0,1.405-0.51,2.51-1.533,3.313c-1.021,0.805-2.33,1.207-3.924,1.207c-1.426,0-2.65-0.378-3.672-1.133s-1.516-1.821-1.48-3.198 l0.021-0.063H19.9c0,0.59,0.211,1.076,0.631,1.459c0.422,0.383,0.955,0.574,1.602,0.574c0.709,0,1.27-0.196,1.682-0.59 c0.41-0.394,0.615-0.928,0.615-1.602c0-0.808-0.201-1.399-0.605-1.775s-1-0.563-1.785-0.563h-1.729V30.711z"/></g><g><path fill="#FFF" d="M19.477,30.086h1.729c0.73,0,1.271-0.191,1.621-0.574c0.352-0.383,0.527-0.915,0.527-1.596 c0-0.618-0.176-1.113-0.527-1.486c-0.35-0.372-0.859-0.558-1.527-0.558c-0.576,0-1.061,0.168-1.453,0.505 c-0.395,0.338-0.59,0.78-0.59,1.328h-2.982l-0.021-0.063c-0.041-1.201,0.418-2.191,1.381-2.971c0.963-0.78,2.156-1.17,3.582-1.17 c1.588,0,2.854,0.379,3.799,1.138c0.943,0.759,1.416,1.841,1.416,3.245c0,0.668-0.211,1.302-0.631,1.902 c-0.422,0.6-1.002,1.069-1.738,1.406c0.85,0.302,1.496,0.766,1.943,1.391c0.445,0.625,0.668,1.353,0.668,2.181 c0,1.405-0.51,2.51-1.533,3.313c-1.021,0.805-2.33,1.207-3.924,1.207c-1.426,0-2.65-0.378-3.672-1.133s-1.516-1.821-1.48-3.198 l0.021-0.063h2.982c0,0.59,0.211,1.076,0.631,1.459c0.422,0.383,0.955,0.574,1.602,0.574c0.709,0,1.27-0.196,1.682-0.59 c0.41-0.394,0.615-0.928,0.615-1.602c0-0.808-0.201-1.399-0.605-1.775s-1-0.563-1.785-0.563h-1.729V30.086z"/></g></svg>