<svg xmlns="http://www.w3.org/2000/svg" width="31" height="43"><path fill="#A51C2A" d="M28.373,0H2.627C1.208,0,0,1.206,0,2.622v37.756C0,41.848,1.208,43,2.627,43h25.746 C29.844,43,31,41.794,31,40.378V2.622C31,1.206,29.844,0,28.373,0L28.373,0z"/><linearGradient id="a" gradientUnits="userSpaceOnUse" x1="1602.256" y1="2339.493" x2="1602.256" y2="2299.482" gradientTransform="translate(-1586.76 -2297.96)"><stop offset="0" stop-color="#66111a"/><stop offset="1" stop-color="#a51c2a"/></linearGradient><path fill="url(#a)" d="M27.426,1.521H3.514c-1.311,0-2.413,1.102-2.413,2.412v35.135c0,1.363,1.102,2.465,2.413,2.465 h23.912c1.363,0,2.465-1.102,2.465-2.465V3.934C29.838,2.622,28.736,1.521,27.426,1.521L27.426,1.521z"/><path fill="#AF2034" d="M4.248,1.441c-1.73,0-3.146,1.312-3.146,2.99v23.439c0,0,2.925-12.551,6.765-17.646 c4.248-5.637,13.537-8.783,12.804-8.783H4.248L4.248,1.441z"/><path fill="#560008" d="M9.334,17.637c-1.027,0-1.906,0.676-2.314,1.643c-0.408-0.967-1.288-1.643-2.315-1.643 c-1.414,0-2.561,1.844-2.561,3.413c0,1.461,4.876,6.336,4.876,6.336s4.876-4.875,4.876-6.336 C11.896,19.48,10.749,17.637,9.334,17.637"/><path fill="#FFF" d="M8.74,17.279c-1.027,0-1.906,0.676-2.314,1.644c-0.409-0.968-1.289-1.644-2.316-1.644 c-1.414,0-2.561,1.844-2.561,3.414c0,1.461,4.876,6.336,4.876,6.336s4.876-4.875,4.876-6.336 C11.301,19.123,10.154,17.279,8.74,17.279"/><g><path fill="#560008" d="M9.794,11.134h1.136v1.335H9.794v0.984l1.067,0.207v1.204H6.718V13.66l1.074-0.207v-0.984H3.703 l-0.097-0.984l4.165-6.642h2.023V11.134z M5.486,11.134h2.306V7.52L7.75,7.506L7.585,7.795L5.486,11.134z"/></g><g><path fill="#FFF" d="M8.871,10.525h1.136v1.335H8.871v0.984l1.067,0.206v1.205H5.794v-1.205l1.074-0.206V11.86H2.78 l-0.097-0.983l4.165-6.643h2.023V10.525z M4.563,10.525h2.306V6.912L6.827,6.898L6.662,7.188L4.563,10.525z"/></g><g><path fill="#560008" d="M25.926,33.978h1.739v2.044h-1.739v1.506l1.634,0.316v1.844h-6.343v-1.844l1.644-0.316v-1.506h-6.259 l-0.146-1.507l6.374-10.167h3.097V33.978z M19.331,33.978h3.529v-5.532l-0.063-0.021l-0.253,0.442L19.331,33.978z"/></g><g><path fill="#FFF" d="M25.092,33.353h1.739v2.044h-1.739v1.506l1.634,0.316v1.844h-6.343v-1.844l1.644-0.316v-1.506h-6.258 l-0.147-1.507l6.375-10.167h3.097V33.353z M18.497,33.353h3.529V27.82L21.963,27.8l-0.253,0.442L18.497,33.353z"/></g></svg>