<svg xmlns="http://www.w3.org/2000/svg" width="31" height="43"><path fill="#A51C2A" d="M28.373,0H2.627C1.208,0,0,1.206,0,2.622v37.756C0,41.848,1.208,43,2.627,43h25.746 C29.844,43,31,41.794,31,40.378V2.622C31,1.206,29.844,0,28.373,0L28.373,0z"/><linearGradient id="a" gradientUnits="userSpaceOnUse" x1="1602.256" y1="2339.493" x2="1602.256" y2="2299.482" gradientTransform="translate(-1586.76 -2297.96)"><stop offset="0" stop-color="#66111a"/><stop offset="1" stop-color="#a51c2a"/></linearGradient><path fill="url(#a)" d="M27.426,1.521H3.514c-1.311,0-2.413,1.102-2.413,2.412v35.135c0,1.363,1.102,2.465,2.413,2.465 h23.912c1.363,0,2.465-1.102,2.465-2.465V3.934C29.838,2.622,28.736,1.521,27.426,1.521L27.426,1.521z"/><path fill="#AF2034" d="M4.248,1.441c-1.73,0-3.146,1.312-3.146,2.99v23.439c0,0,2.925-12.551,6.765-17.646 c4.248-5.637,13.537-8.783,12.804-8.783H4.248L4.248,1.441z"/><path fill="#560008" d="M9.334,17.637c-1.027,0-1.906,0.676-2.314,1.643c-0.408-0.967-1.288-1.643-2.315-1.643 c-1.414,0-2.561,1.844-2.561,3.413c0,1.461,4.876,6.336,4.876,6.336s4.876-4.875,4.876-6.336 C11.896,19.48,10.749,17.637,9.334,17.637"/><path fill="#FFF" d="M8.74,17.279c-1.027,0-1.906,0.676-2.314,1.644c-0.409-0.968-1.289-1.644-2.316-1.644 c-1.414,0-2.561,1.844-2.561,3.414c0,1.461,4.876,6.336,4.876,6.336s4.876-4.875,4.876-6.336 C11.301,19.123,10.154,17.279,8.74,17.279"/><g><path fill="#560008" d="M8.04,4.698c0.376,0,0.724,0.035,1.043,0.106c0.319,0.071,0.639,0.176,0.96,0.313L9.691,6.584 c-0.289-0.102-0.555-0.178-0.798-0.23S8.37,6.274,8.053,6.274c-0.596,0-1.075,0.218-1.435,0.653 c-0.36,0.437-0.542,1.078-0.547,1.928L6.092,8.89c0.225-0.233,0.51-0.417,0.857-0.55c0.346-0.134,0.733-0.2,1.16-0.2 c0.895,0,1.597,0.317,2.106,0.953c0.509,0.636,0.764,1.446,0.764,2.433c0,1.01-0.314,1.843-0.943,2.499s-1.441,0.984-2.437,0.984 c-1.056,0-1.916-0.358-2.581-1.077c-0.666-0.719-0.998-1.713-0.998-2.984V9.186c0-1.418,0.375-2.52,1.125-3.307 C5.896,5.092,6.86,4.698,8.04,4.698z M7.579,9.66c-0.372,0-0.688,0.061-0.95,0.18c-0.261,0.119-0.463,0.282-0.605,0.488v0.668 c0,0.794,0.143,1.404,0.43,1.83c0.287,0.428,0.668,0.641,1.146,0.641c0.413,0,0.745-0.189,0.995-0.568 c0.25-0.378,0.375-0.836,0.375-1.373c0-0.555-0.126-1.004-0.378-1.349S8,9.66,7.579,9.66z"/></g><g><path fill="#FFF" d="M7.116,4.09c0.376,0,0.724,0.035,1.043,0.106c0.319,0.071,0.639,0.175,0.96,0.313L8.768,5.976 C8.479,5.875,8.213,5.798,7.97,5.745S7.447,5.666,7.13,5.666c-0.596,0-1.075,0.218-1.435,0.654 c-0.36,0.436-0.542,1.078-0.547,1.927l0.021,0.034c0.225-0.234,0.51-0.418,0.857-0.551c0.346-0.133,0.733-0.199,1.16-0.199 c0.895,0,1.597,0.318,2.106,0.953c0.509,0.636,0.764,1.447,0.764,2.434c0,1.01-0.314,1.842-0.943,2.498S7.671,14.4,6.676,14.4 c-1.056,0-1.916-0.359-2.581-1.077c-0.666-0.718-0.998-1.713-0.998-2.983V8.577c0-1.417,0.375-2.521,1.125-3.308 C4.972,4.482,5.937,4.09,7.116,4.09z M6.655,9.053c-0.372,0-0.688,0.059-0.95,0.179C5.444,9.351,5.242,9.514,5.1,9.72v0.668 c0,0.794,0.143,1.403,0.43,1.831c0.287,0.426,0.668,0.64,1.146,0.64c0.413,0,0.745-0.188,0.995-0.567s0.375-0.836,0.375-1.373 c0-0.556-0.126-1.006-0.378-1.35S7.077,9.053,6.655,9.053z"/></g><g><path fill="#560008" d="M23.239,24.126c0.576,0,1.108,0.055,1.597,0.163c0.488,0.109,0.978,0.269,1.47,0.479l-0.537,2.244 c-0.442-0.154-0.851-0.272-1.223-0.353c-0.372-0.081-0.801-0.121-1.285-0.121c-0.913,0-1.646,0.333-2.196,1.001 c-0.552,0.667-0.831,1.65-0.838,2.949l0.031,0.053c0.345-0.357,0.781-0.639,1.312-0.843c0.53-0.203,1.122-0.306,1.775-0.306 c1.37,0,2.444,0.487,3.225,1.46c0.779,0.973,1.169,2.214,1.169,3.724c0,1.546-0.481,2.82-1.443,3.825 c-0.962,1.004-2.205,1.507-3.729,1.507c-1.615,0-2.933-0.55-3.951-1.649c-1.019-1.099-1.527-2.621-1.527-4.567v-2.697 c0-2.17,0.574-3.857,1.723-5.063C19.958,24.729,21.435,24.126,23.239,24.126z M22.534,31.723c-0.569,0-1.054,0.091-1.454,0.273 s-0.71,0.433-0.928,0.748v1.022c0,1.215,0.22,2.149,0.659,2.803c0.438,0.652,1.023,0.979,1.754,0.979 c0.632,0,1.14-0.29,1.522-0.869c0.383-0.58,0.574-1.28,0.574-2.103c0-0.85-0.193-1.538-0.58-2.064 C23.696,31.985,23.18,31.723,22.534,31.723z"/></g><g><path fill="#FFF" d="M22.405,23.501c0.576,0,1.108,0.055,1.597,0.163c0.488,0.109,0.978,0.269,1.47,0.479l-0.537,2.244 c-0.442-0.154-0.851-0.272-1.223-0.353c-0.372-0.081-0.801-0.121-1.285-0.121c-0.913,0-1.646,0.333-2.196,1.001 c-0.552,0.667-0.831,1.65-0.838,2.949l0.031,0.053c0.345-0.357,0.781-0.639,1.312-0.843c0.53-0.203,1.122-0.306,1.775-0.306 c1.37,0,2.444,0.487,3.225,1.46c0.779,0.973,1.169,2.214,1.169,3.724c0,1.546-0.481,2.82-1.443,3.825 c-0.962,1.004-2.205,1.507-3.729,1.507c-1.615,0-2.933-0.55-3.951-1.649c-1.019-1.099-1.527-2.621-1.527-4.567V30.37 c0-2.17,0.574-3.857,1.723-5.063C19.124,24.104,20.601,23.501,22.405,23.501z M21.7,31.098c-0.569,0-1.054,0.091-1.454,0.273 s-0.71,0.433-0.928,0.748v1.022c0,1.215,0.22,2.149,0.659,2.803c0.438,0.652,1.023,0.979,1.754,0.979 c0.632,0,1.14-0.29,1.522-0.869c0.383-0.58,0.574-1.28,0.574-2.103c0-0.85-0.193-1.538-0.58-2.064 C22.862,31.36,22.346,31.098,21.7,31.098z"/></g></svg>