<svg xmlns="http://www.w3.org/2000/svg" width="31" height="43"><path fill="#A51C2A" d="M28.373,0H2.627C1.208,0,0,1.206,0,2.622v37.756C0,41.848,1.208,43,2.627,43h25.746 C29.844,43,31,41.794,31,40.378V2.622C31,1.206,29.844,0,28.373,0L28.373,0z"/><linearGradient id="a" gradientUnits="userSpaceOnUse" x1="1602.256" y1="2339.493" x2="1602.256" y2="2299.482" gradientTransform="translate(-1586.76 -2297.96)"><stop offset="0" stop-color="#66111a"/><stop offset="1" stop-color="#a51c2a"/></linearGradient><path fill="url(#a)" d="M27.426,1.521H3.514c-1.311,0-2.413,1.102-2.413,2.412v35.135c0,1.363,1.102,2.465,2.413,2.465 h23.912c1.363,0,2.465-1.102,2.465-2.465V3.934C29.838,2.622,28.736,1.521,27.426,1.521L27.426,1.521z"/><path fill="#AF2034" d="M4.248,1.441c-1.73,0-3.146,1.312-3.146,2.99v23.439c0,0,2.925-12.551,6.765-17.646 c4.248-5.637,13.537-8.783,12.804-8.783H4.248L4.248,1.441z"/><path fill="#560008" d="M9.334,17.637c-1.027,0-1.906,0.676-2.314,1.643c-0.408-0.967-1.288-1.643-2.315-1.643 c-1.414,0-2.561,1.844-2.561,3.413c0,1.461,4.876,6.336,4.876,6.336s4.876-4.875,4.876-6.336 C11.896,19.48,10.749,17.637,9.334,17.637"/><path fill="#FFF" d="M8.74,17.279c-1.027,0-1.906,0.676-2.314,1.644c-0.409-0.968-1.289-1.644-2.316-1.644 c-1.414,0-2.561,1.844-2.561,3.414c0,1.461,4.876,6.336,4.876,6.336s4.876-4.875,4.876-6.336 C11.301,19.123,10.154,17.279,8.74,17.279"/><g><path fill="#560008" d="M10.941,6.391C9.867,7.648,9.134,8.82,8.742,9.908c-0.392,1.088-0.673,2.4-0.843,3.938l-0.096,1.019h-2.01 l0.096-1.019c0.156-1.473,0.491-2.826,1.005-4.058c0.514-1.231,1.218-2.364,2.113-3.397H5.476L5.4,7.383H3.858v-2.54h7.083V6.391z"/></g><g><path fill="#FFF" d="M10.018,5.783C8.944,7.04,8.211,8.213,7.818,9.301c-0.392,1.087-0.673,2.399-0.843,3.937l-0.096,1.019 h-2.01l0.096-1.019c0.156-1.474,0.491-2.825,1.005-4.058c0.514-1.232,1.218-2.364,2.113-3.396H4.552l-0.076,0.99H2.935V4.234 h7.083V5.783z"/></g><g><path fill="#560008" d="M27.68,26.718c-1.643,1.925-2.766,3.719-3.365,5.384c-0.602,1.665-1.031,3.674-1.291,6.026l-0.146,1.56 h-3.078l0.148-1.56c0.238-2.255,0.752-4.325,1.537-6.211c0.787-1.886,1.865-3.619,3.236-5.199h-5.406l-0.115,1.518h-2.36v-3.888 H27.68V26.718z"/></g><g><path fill="#FFF" d="M26.846,26.093c-1.643,1.925-2.766,3.719-3.365,5.384c-0.602,1.665-1.031,3.674-1.291,6.026l-0.146,1.56 h-3.078l0.148-1.56c0.238-2.255,0.752-4.325,1.537-6.211c0.787-1.886,1.865-3.619,3.236-5.199H18.48l-0.115,1.518h-2.36v-3.888 h10.841V26.093z"/></g></svg>