<svg xmlns="http://www.w3.org/2000/svg" width="31" height="43"><path fill="#A51C2A" d="M28.373,0H2.627C1.208,0,0,1.206,0,2.622v37.756C0,41.848,1.208,43,2.627,43h25.746 C29.844,43,31,41.794,31,40.378V2.622C31,1.206,29.844,0,28.373,0L28.373,0z"/><linearGradient id="a" gradientUnits="userSpaceOnUse" x1="1602.256" y1="2339.493" x2="1602.256" y2="2299.482" gradientTransform="translate(-1586.76 -2297.96)"><stop offset="0" stop-color="#66111a"/><stop offset="1" stop-color="#a51c2a"/></linearGradient><path fill="url(#a)" d="M27.426,1.521H3.514c-1.311,0-2.413,1.102-2.413,2.412v35.135c0,1.363,1.102,2.465,2.413,2.465 h23.912c1.363,0,2.465-1.102,2.465-2.465V3.934C29.838,2.622,28.736,1.521,27.426,1.521L27.426,1.521z"/><path fill="#AF2034" d="M4.248,1.441c-1.73,0-3.146,1.312-3.146,2.99v23.439c0,0,2.925-12.551,6.765-17.646 c4.248-5.637,13.537-8.783,12.804-8.783H4.248L4.248,1.441z"/><path fill="#560008" d="M9.334,17.637c-1.027,0-1.906,0.676-2.314,1.643c-0.408-0.967-1.288-1.643-2.315-1.643 c-1.414,0-2.561,1.844-2.561,3.413c0,1.461,4.876,6.336,4.876,6.336s4.876-4.875,4.876-6.336 C11.896,19.48,10.749,17.637,9.334,17.637"/><path fill="#FFF" d="M8.74,17.279c-1.027,0-1.906,0.676-2.314,1.644c-0.409-0.968-1.289-1.644-2.316-1.644 c-1.414,0-2.561,1.844-2.561,3.414c0,1.461,4.876,6.336,4.876,6.336s4.876-4.875,4.876-6.336 C11.301,19.123,10.154,17.279,8.74,17.279"/><g><path fill="#560008" d="M10.555,7.5c0,0.5-0.133,0.942-0.399,1.328C9.89,9.213,9.525,9.514,9.062,9.729 c0.532,0.226,0.952,0.546,1.26,0.964c0.307,0.418,0.461,0.895,0.461,1.432c0,0.927-0.314,1.639-0.943,2.137 c-0.629,0.498-1.45,0.747-2.464,0.747c-1.019,0-1.843-0.249-2.474-0.747c-0.631-0.498-0.947-1.21-0.947-2.137 c0-0.541,0.153-1.02,0.458-1.436c0.305-0.415,0.724-0.734,1.256-0.96C5.2,9.514,4.835,9.213,4.574,8.828 C4.312,8.442,4.182,8,4.182,7.5c0-0.891,0.291-1.58,0.874-2.068c0.583-0.489,1.351-0.733,2.306-0.733s1.726,0.244,2.313,0.733 C10.261,5.92,10.555,6.609,10.555,7.5z M8.779,11.987c0-0.45-0.132-0.81-0.396-1.081C8.12,10.636,7.779,10.5,7.361,10.5 s-0.755,0.136-1.012,0.406c-0.257,0.271-0.385,0.631-0.385,1.081c0,0.459,0.128,0.82,0.385,1.084s0.599,0.396,1.025,0.396 c0.417,0,0.756-0.133,1.016-0.398C8.649,12.802,8.779,12.441,8.779,11.987z M8.545,7.589c0-0.403-0.107-0.729-0.32-0.974 C8.012,6.369,7.724,6.246,7.361,6.246c-0.367,0-0.653,0.121-0.857,0.361C6.3,6.85,6.198,7.176,6.198,7.589 c0,0.417,0.103,0.749,0.31,0.995c0.207,0.245,0.496,0.367,0.867,0.367c0.363,0,0.648-0.122,0.857-0.367 C8.441,8.338,8.545,8.006,8.545,7.589z"/></g><g><path fill="#FFF" d="M9.632,6.891c0,0.5-0.133,0.943-0.399,1.328C8.966,8.605,8.602,8.905,8.138,9.121 c0.532,0.225,0.952,0.546,1.26,0.964c0.307,0.417,0.461,0.895,0.461,1.432c0,0.927-0.314,1.64-0.943,2.138 C8.287,14.151,7.466,14.4,6.452,14.4c-1.019,0-1.843-0.249-2.474-0.746c-0.631-0.498-0.947-1.211-0.947-2.138 c0-0.542,0.153-1.021,0.458-1.436s0.724-0.735,1.256-0.96C4.277,8.905,3.912,8.605,3.65,8.219 C3.389,7.834,3.258,7.391,3.258,6.891c0-0.89,0.291-1.579,0.874-2.068C4.715,4.334,5.483,4.09,6.438,4.09s1.726,0.244,2.313,0.732 C9.338,5.312,9.632,6.001,9.632,6.891z M7.856,11.379c0-0.449-0.132-0.811-0.396-1.08c-0.264-0.271-0.605-0.406-1.022-0.406 s-0.755,0.135-1.012,0.406c-0.257,0.27-0.385,0.631-0.385,1.08c0,0.459,0.128,0.82,0.385,1.084s0.599,0.396,1.025,0.396 c0.417,0,0.756-0.133,1.016-0.399C7.726,12.193,7.856,11.833,7.856,11.379z M7.622,6.98c0-0.404-0.107-0.729-0.32-0.975 C7.088,5.762,6.8,5.639,6.438,5.639c-0.367,0-0.653,0.12-0.857,0.361C5.377,6.24,5.275,6.567,5.275,6.98 c0,0.418,0.103,0.749,0.31,0.994C5.791,8.221,6.08,8.344,6.452,8.344c0.363,0,0.648-0.123,0.857-0.369 C7.518,7.729,7.622,7.398,7.622,6.98z"/></g><g><path fill="#560008" d="M27.09,28.414c0,0.766-0.203,1.443-0.611,2.033c-0.406,0.59-0.965,1.051-1.674,1.381 c0.814,0.344,1.457,0.836,1.928,1.475c0.471,0.64,0.705,1.37,0.705,2.191c0,1.419-0.48,2.51-1.443,3.271 c-0.961,0.762-2.219,1.144-3.771,1.144c-1.559,0-2.822-0.382-3.787-1.144c-0.967-0.762-1.449-1.853-1.449-3.271 c0-0.829,0.234-1.561,0.701-2.196s1.107-1.126,1.922-1.47c-0.715-0.33-1.273-0.791-1.674-1.381s-0.602-1.268-0.602-2.033 c0-1.362,0.447-2.418,1.338-3.166c0.893-0.748,2.068-1.122,3.529-1.122s2.643,0.374,3.541,1.122S27.09,27.052,27.09,28.414z M24.373,35.283c0-0.688-0.203-1.239-0.607-1.654c-0.402-0.414-0.924-0.621-1.564-0.621c-0.639,0-1.154,0.207-1.549,0.621 c-0.393,0.415-0.59,0.967-0.59,1.654c0,0.703,0.197,1.256,0.59,1.66c0.395,0.403,0.918,0.605,1.57,0.605 c0.639,0,1.158-0.204,1.555-0.611S24.373,35.979,24.373,35.283z M24.014,28.551c0-0.618-0.162-1.114-0.49-1.49 c-0.326-0.376-0.768-0.563-1.322-0.563c-0.561,0-0.998,0.184-1.311,0.553s-0.469,0.869-0.469,1.501 c0,0.64,0.158,1.147,0.473,1.522c0.316,0.376,0.76,0.563,1.328,0.563c0.555,0,0.992-0.188,1.313-0.563 C23.854,29.698,24.014,29.19,24.014,28.551z"/></g><g><path fill="#FFF" d="M26.256,27.789c0,0.766-0.203,1.443-0.611,2.033c-0.406,0.59-0.965,1.051-1.674,1.381 c0.814,0.344,1.457,0.836,1.928,1.475c0.471,0.64,0.705,1.37,0.705,2.191c0,1.419-0.48,2.51-1.443,3.271 c-0.961,0.762-2.219,1.144-3.771,1.144c-1.559,0-2.822-0.382-3.787-1.144c-0.967-0.762-1.449-1.853-1.449-3.271 c0-0.829,0.234-1.561,0.701-2.196s1.107-1.126,1.922-1.47c-0.715-0.33-1.273-0.791-1.674-1.381S16.5,28.555,16.5,27.789 c0-1.362,0.447-2.418,1.338-3.166c0.893-0.748,2.068-1.122,3.529-1.122s2.643,0.374,3.541,1.122S26.256,26.427,26.256,27.789z M23.539,34.658c0-0.688-0.203-1.239-0.607-1.654c-0.402-0.414-0.924-0.621-1.564-0.621c-0.639,0-1.154,0.207-1.549,0.621 c-0.393,0.415-0.59,0.967-0.59,1.654c0,0.703,0.197,1.256,0.59,1.66c0.395,0.403,0.918,0.605,1.57,0.605 c0.639,0,1.158-0.204,1.555-0.611S23.539,35.354,23.539,34.658z M23.18,27.926c0-0.618-0.162-1.114-0.49-1.49 c-0.326-0.376-0.768-0.563-1.322-0.563c-0.561,0-0.998,0.184-1.311,0.553s-0.469,0.869-0.469,1.501 c0,0.64,0.158,1.147,0.473,1.522c0.316,0.376,0.76,0.563,1.328,0.563c0.555,0,0.992-0.188,1.313-0.563 C23.02,29.073,23.18,28.565,23.18,27.926z"/></g></svg>