<svg xmlns="http://www.w3.org/2000/svg" width="31" height="43"><path fill="#A51C2A" d="M28.373,0H2.627C1.208,0,0,1.206,0,2.622v37.756C0,41.848,1.208,43,2.627,43h25.746 C29.844,43,31,41.794,31,40.378V2.622C31,1.206,29.844,0,28.373,0L28.373,0z"/><linearGradient id="a" gradientUnits="userSpaceOnUse" x1="1602.256" y1="2339.493" x2="1602.256" y2="2299.482" gradientTransform="translate(-1586.76 -2297.96)"><stop offset="0" stop-color="#66111a"/><stop offset="1" stop-color="#a51c2a"/></linearGradient><path fill="url(#a)" d="M27.426,1.521H3.514c-1.311,0-2.412,1.102-2.412,2.412v35.135c0,1.363,1.102,2.465,2.412,2.465 h23.912c1.363,0,2.465-1.102,2.465-2.465V3.934C29.838,2.622,28.736,1.521,27.426,1.521L27.426,1.521z"/><path fill="#AF2034" d="M4.248,1.441c-1.73,0-3.146,1.312-3.146,2.99v23.439c0,0,2.926-12.551,6.766-17.646 c4.248-5.637,13.537-8.783,12.804-8.783H4.248L4.248,1.441z"/><path fill="#560008" d="M9.334,17.637c-1.027,0-1.906,0.676-2.314,1.643c-0.408-0.967-1.287-1.643-2.314-1.643 c-1.414,0-2.561,1.844-2.561,3.413c0,1.461,4.875,6.336,4.875,6.336s4.877-4.875,4.877-6.336 C11.896,19.48,10.749,17.637,9.334,17.637"/><path fill="#FFF" d="M8.74,17.279c-1.027,0-1.906,0.676-2.314,1.644c-0.408-0.968-1.289-1.644-2.316-1.644 c-1.414,0-2.561,1.844-2.561,3.414c0,1.461,4.876,6.336,4.876,6.336s4.876-4.875,4.876-6.336 C11.301,19.123,10.154,17.279,8.74,17.279"/><g><path fill="#560008" d="M2.551,13.66l0.715-0.104l3.05-8.714h2.058l3.029,8.714l0.715,0.104v1.204H8.703V13.66l0.695-0.125 l-0.439-1.376h-3.25L5.27,13.535l0.695,0.125v1.204H2.551V13.66z M6.185,10.68h2.299L7.354,7.148H7.313L6.185,10.68z"/></g><g><path fill="#FFF" d="M1.627,13.051l0.716-0.103l3.05-8.714H7.45l3.028,8.714l0.716,0.103v1.205H7.78v-1.205l0.695-0.123 l-0.44-1.377H4.786l-0.44,1.377l0.695,0.123v1.205H1.627V13.051z M5.262,10.07h2.299L6.432,6.54H6.391L5.262,10.07z"/></g><g><path fill="#560008" d="M14.838,37.844l1.096-0.158l4.667-13.338h3.15l4.636,13.338l1.096,0.158v1.844h-5.227v-1.844l1.064-0.189 l-0.674-2.107h-4.974l-0.674,2.107l1.064,0.189v1.844h-5.226V37.844z M20.4,33.281h3.519l-1.728-5.404h-0.063L20.4,33.281z"/></g><g><path fill="#FFF" d="M14.004,37.219l1.096-0.158l4.667-13.338h3.15l4.636,13.338l1.096,0.158v1.844h-5.227v-1.844l1.064-0.189 l-0.674-2.107h-4.974l-0.674,2.107l1.064,0.189v1.844h-5.226V37.219z M19.566,32.656h3.519l-1.728-5.404h-0.063L19.566,32.656z"/></g></svg>