<svg xmlns="http://www.w3.org/2000/svg" width="31" height="43"><path fill="#A51C2A" d="M28.373,0H2.627C1.208,0,0,1.206,0,2.622v37.756C0,41.848,1.208,43,2.627,43h25.746 C29.844,43,31,41.794,31,40.378V2.622C31,1.206,29.844,0,28.373,0L28.373,0z"/><linearGradient id="a" gradientUnits="userSpaceOnUse" x1="1602.256" y1="2339.493" x2="1602.256" y2="2299.482" gradientTransform="translate(-1586.76 -2297.96)"><stop offset="0" stop-color="#66111a"/><stop offset="1" stop-color="#a51c2a"/></linearGradient><path fill="url(#a)" d="M27.426,1.521H3.514c-1.311,0-2.412,1.102-2.412,2.412v35.135c0,1.363,1.102,2.465,2.412,2.465 h23.912c1.363,0,2.465-1.102,2.465-2.465V3.934C29.838,2.622,28.736,1.521,27.426,1.521L27.426,1.521z"/><path fill="#AF2034" d="M4.248,1.441c-1.73,0-3.146,1.312-3.146,2.99v23.439c0,0,2.926-12.551,6.766-17.646 c4.248-5.637,13.537-8.783,12.804-8.783H4.248L4.248,1.441z"/><path fill="#560008" d="M9.334,17.637c-1.027,0-1.906,0.676-2.314,1.643c-0.408-0.967-1.287-1.643-2.314-1.643 c-1.414,0-2.561,1.844-2.561,3.413c0,1.461,4.875,6.336,4.875,6.336s4.877-4.875,4.877-6.336 C11.896,19.48,10.749,17.637,9.334,17.637"/><path fill="#FFF" d="M8.74,17.279c-1.027,0-1.906,0.676-2.314,1.644c-0.408-0.968-1.289-1.644-2.316-1.644 c-1.414,0-2.561,1.844-2.561,3.414c0,1.461,4.876,6.336,4.876,6.336s4.876-4.875,4.876-6.336 C11.301,19.123,10.154,17.279,8.74,17.279"/><g><path fill="#560008" d="M11.246,4.843v1.212L10.173,6.26v5.597c0,0.968-0.315,1.735-0.946,2.302 c-0.631,0.567-1.428,0.851-2.392,0.851c-1.046,0-1.875-0.255-2.485-0.765c-0.609-0.509-0.904-1.259-0.881-2.25l0.014-0.041h1.955 c0,0.527,0.126,0.912,0.379,1.152c0.252,0.241,0.592,0.361,1.019,0.361c0.372,0,0.687-0.143,0.946-0.43s0.389-0.681,0.389-1.181 V6.26L7.096,6.055V4.843h3.077H11.246z"/></g><g><path fill="#FFF" d="M10.323,4.234v1.211L9.25,5.652v5.596c0,0.969-0.316,1.736-0.947,2.303S6.875,14.4,5.912,14.4 c-1.047,0-1.875-0.255-2.485-0.764c-0.61-0.51-0.904-1.26-0.882-2.251l0.015-0.042h1.954c0,0.528,0.127,0.912,0.379,1.153 s0.592,0.361,1.02,0.361c0.371,0,0.687-0.144,0.945-0.431c0.26-0.286,0.389-0.68,0.389-1.18V5.652L6.173,5.445V4.234H9.25H10.323z"/></g><g><path fill="#560008" d="M28.149,24.348v1.854l-1.644,0.316v8.565c0,1.482-0.483,2.657-1.449,3.524 c-0.966,0.868-2.186,1.302-3.661,1.302c-1.602,0-2.869-0.391-3.804-1.17c-0.934-0.779-1.383-1.928-1.348-3.445l0.021-0.063h2.992 c0,0.809,0.193,1.396,0.58,1.765c0.386,0.369,0.905,0.554,1.559,0.554c0.569,0,1.052-0.22,1.449-0.658 c0.396-0.439,0.595-1.042,0.595-1.808v-8.565l-1.644-0.316v-1.854h4.71H28.149z"/></g><g><path fill="#FFF" d="M27.315,23.723v1.854l-1.644,0.316v8.565c0,1.482-0.483,2.657-1.449,3.524 c-0.966,0.868-2.186,1.302-3.661,1.302c-1.602,0-2.869-0.391-3.804-1.17c-0.934-0.779-1.383-1.928-1.348-3.445l0.021-0.063h2.992 c0,0.809,0.193,1.396,0.58,1.765c0.386,0.369,0.905,0.554,1.559,0.554c0.569,0,1.052-0.22,1.449-0.658 c0.396-0.439,0.595-1.042,0.595-1.808v-8.565l-1.644-0.316v-1.854h4.71H27.315z"/></g></svg>