<svg xmlns="http://www.w3.org/2000/svg" width="31" height="43"><path fill="#A51C2A" d="M28.373,0H2.627C1.208,0,0,1.206,0,2.622v37.756C0,41.848,1.208,43,2.627,43h25.746 C29.844,43,31,41.794,31,40.378V2.622C31,1.206,29.844,0,28.373,0L28.373,0z"/><linearGradient id="a" gradientUnits="userSpaceOnUse" x1="1602.256" y1="2339.493" x2="1602.256" y2="2299.482" gradientTransform="translate(-1586.76 -2297.96)"><stop offset="0" stop-color="#66111a"/><stop offset="1" stop-color="#a51c2a"/></linearGradient><path fill="url(#a)" d="M27.426,1.521H3.514c-1.311,0-2.412,1.102-2.412,2.412v35.135c0,1.363,1.102,2.465,2.412,2.465 h23.912c1.363,0,2.465-1.102,2.465-2.465V3.934C29.838,2.622,28.736,1.521,27.426,1.521L27.426,1.521z"/><path fill="#AF2034" d="M4.248,1.441c-1.73,0-3.146,1.312-3.146,2.99v23.439c0,0,2.926-12.551,6.766-17.646 c4.248-5.637,13.537-8.783,12.804-8.783H4.248L4.248,1.441z"/><path fill="#560008" d="M9.334,17.637c-1.027,0-1.906,0.676-2.314,1.643c-0.408-0.967-1.287-1.643-2.314-1.643 c-1.414,0-2.561,1.844-2.561,3.413c0,1.461,4.875,6.336,4.875,6.336s4.877-4.875,4.877-6.336 C11.896,19.48,10.749,17.637,9.334,17.637"/><path fill="#FFF" d="M8.74,17.279c-1.027,0-1.906,0.676-2.314,1.644c-0.408-0.968-1.289-1.644-2.316-1.644 c-1.414,0-2.561,1.844-2.561,3.414c0,1.461,4.876,6.336,4.876,6.336s4.876-4.875,4.876-6.336 C11.301,19.123,10.154,17.279,8.74,17.279"/><g><g fill="#560008"><path d="M1.504 13.66l1.454-.207V6.666H1.486V5.518l3.192-.675v8.61l1.454.207v1.204H1.504V13.66zM12.865 10.961c0 1.326-.26 2.333-.782 3.02-.522.686-1.229 1.028-2.12 1.028-.898 0-1.61-.343-2.134-1.028-.524-.687-.786-1.693-.786-3.02V8.752c0-1.321.262-2.327.783-3.018.521-.691 1.23-1.036 2.125-1.036.891 0 1.599.345 2.126 1.036.525.69.788 1.696.788 3.018V10.961zM11.146 8.545c0-.793-.103-1.375-.308-1.744-.204-.369-.501-.555-.887-.555-.391 0-.686.184-.887.551s-.302.95-.302 1.748v2.609c0 .808.102 1.395.305 1.762s.502.551.896.551c.386 0 .68-.184.881-.551s.302-.954.302-1.762V8.545z"/></g></g><g><g fill="#FFF"><path d="M.71 13.051l1.454-.206V6.059H.693v-1.15l3.192-.674v8.61l1.454.206v1.205H.71V13.051zM12.072 10.354c0 1.326-.261 2.332-.782 3.018-.523.687-1.229 1.029-2.12 1.029-.898 0-1.609-.343-2.134-1.029-.524-.686-.787-1.691-.787-3.018v-2.21c0-1.321.262-2.327.783-3.019C7.555 4.436 8.264 4.09 9.158 4.09c.891 0 1.6.346 2.125 1.035.527.691.789 1.697.789 3.019V10.354zM10.353 7.938c0-.794-.103-1.375-.308-1.745-.204-.369-.5-.554-.887-.554-.391 0-.686.184-.887.551-.2.367-.301.949-.301 1.748v2.608c0 .808.101 1.396.303 1.763.203.367.502.55.896.55.387 0 .68-.183.881-.55s.302-.955.302-1.763V7.938z"/></g></g><g><g fill="#560008"><path d="M13.744 37.844l2.101-.316V27.14h-2.126v-1.76l4.611-1.032v13.18l2.102.316v1.844h-6.688V37.844zM30.157 33.714c0 2.029-.377 3.569-1.131 4.62-.755 1.05-1.775 1.575-3.062 1.575-1.299 0-2.326-.525-3.084-1.575-.756-1.051-1.135-2.591-1.135-4.62v-3.382c0-2.023.377-3.563 1.131-4.62.755-1.058 1.778-1.586 3.07-1.586 1.287 0 2.311.528 3.07 1.586.76 1.057 1.14 2.597 1.14 4.62V33.714zM27.673 30.016c0-1.215-.148-2.105-.444-2.671s-.724-.848-1.281-.848c-.563 0-.99.28-1.281.843-.29.562-.436 1.453-.436 2.676v3.993c0 1.236.146 2.135.44 2.697.293.562.725.843 1.294.843.558 0 .981-.281 1.272-.843.29-.563.436-1.461.436-2.697V30.016z"/></g></g><g><g fill="#FFF"><path d="M13.068 37.219l2.101-.316V26.515h-2.126v-1.76l4.611-1.032v13.18l2.102.316v1.844h-6.688V37.219zM29.481 33.089c0 2.029-.377 3.569-1.132 4.62-.754 1.05-1.774 1.575-3.062 1.575-1.298 0-2.325-.525-3.083-1.575-.757-1.051-1.135-2.591-1.135-4.62v-3.382c0-2.023.377-3.563 1.131-4.62.755-1.058 1.778-1.586 3.07-1.586 1.286 0 2.31.528 3.07 1.586.76 1.057 1.14 2.597 1.14 4.62V33.089zM26.996 29.391c0-1.215-.147-2.105-.443-2.671s-.724-.848-1.281-.848c-.563 0-.991.28-1.281.843-.291.562-.436 1.453-.436 2.676v3.993c0 1.236.146 2.135.44 2.697.293.562.724.843 1.293.843.559 0 .982-.281 1.273-.843.289-.563.435-1.461.435-2.697V29.391z"/></g></g></svg>